SplineFontDB: 1.0
FontName: GaramondNo8-Reg
FullName: GaramondNo8 Regular
FamilyName: GaramondNo8
Weight: Regular
Copyright: Copyright (URW)++,Copyright 2000 by (URW)++ Design & Development
Version: 1.05
ItalicAngle: 0
UnderlinePosition: -225
UnderlineWidth: 51
Ascent: 800
Descent: 200
NeedsXUIDChange: 1
UniqueID: 4038270
OS2WinAscent: 0
OS2WinAOffset: 1
OS2WinDescent: 0
OS2WinDOffset: 1
HheadAscent: 0
HheadAOffset: 1
HheadDescent: 0
HheadDOffset: 1
ScriptLang: 2
 1 latn 1 dflt 
 1 DFLT 1 dflt 
Encoding: AdobeStandard
UnicodeInterp: none
DisplaySize: -24
AntiAlias: 1
FitToEm: 1
WinInfo: 64 16 4
BeginPrivate: 7
BlueValues 23 [-20 0 420 440 689 709]
BlueScale 8 0.039625
StdHW 4 [33]
StdVW 4 [75]
StemSnapH 200 [33 39 44 49 58 64] 
systemdict /internaldict known
{1183615869 systemdict /internaldict get exec
/StemSnapLength 2 copy known { get 6 lt } { pop pop true } ifelse }
{ true } ifelse { pop [33 39] } if
StemSnapV 199 [75 83 89 108 113] 
systemdict /internaldict known
{1183615869 systemdict /internaldict get exec
/StemSnapLength 2 copy known { get 5 lt } { pop pop true } ifelse }
{ true } ifelse { pop [75 89] } if
ForceBold 5 false
EndPrivate
BeginChars: 353 353
StartChar: exclam
Encoding: 33 33 157
Width: 258
Flags: MW
HStem: -10 121<114 148.5>
VStem: 71 121<32.5 68>
Fore
120 192 m 1
 72 571 l 1
 68 601 67 608 67 618 c 0
 67 661 91 688 131 688 c 0
 170 688 194 662 194 617 c 0
 194 607 194 607 189 571 c 1
 141 192 l 1
 120 192 l 1
132 111 m 0
 168 111 192 88 192 52 c 0
 192 13 168 -10 129 -10 c 0
 93 -10 71 12 71 50 c 0
 71 86 96 111 132 111 c 0
EndSplineSet
EndChar
StartChar: quotedbl
Encoding: 34 34 180
Width: 424
Flags: MW
HStem: 684 20<125 151.5 272 298.5>
Fore
146 445 m 2
 133 445 l 2
 124 445 122 447 119 461 c 1
 97 611 l 1
 93 633 91 651 91 657 c 0
 91 683 112 704 138 704 c 0
 165 704 183 685 183 657 c 0
 183 646 183 639 181 629 c 1
 159 475 l 1
 156 450 154 445 146 445 c 2
293 445 m 2
 280 445 l 2
 271 445 269 447 267 461 c 2
 244 611 l 1
 240 633 238 651 238 657 c 0
 238 684 259 704 285 704 c 0
 312 704 330 685 330 657 c 0
 330 643 330 639 328 629 c 1
 307 475 l 1
 303 450 301 445 293 445 c 2
EndSplineSet
EndChar
StartChar: numbersign
Encoding: 35 35 182
Width: 479
Flags: MW
HStem: -15 20 220 64<52 96 160 267 329 373> 378 67<102 144 209 315 379 417>
Fore
96 220 m 1
 32 220 l 2
 24 220 21 222 21 227 c 0
 21 229 22 232 23 235 c 2
 34 271 l 2
 37 281 41 284 52 284 c 2
 115 284 l 1
 144 378 l 1
 81 378 l 2
 75 378 71 381 71 386 c 0
 71 388 71 391 72 393 c 1
 84 432 l 1
 88 443 91 445 102 445 c 2
 164 445 l 1
 230 661 l 1
 231 667 l 1
 233 673 235 675 241 675 c 2
 270 675 l 2
 274 675 277 672 277 669 c 0
 277 667 277 667 274 655 c 1
 209 445 l 1
 336 445 l 1
 403 661 l 1
 408 675 408 675 416 675 c 2
 440 675 l 2
 444 675 447 673 447 669 c 0
 447 668 446 664 445 661 c 2
 379 445 l 1
 432 445 l 2
 447 445 451 444 452 438 c 1
 452 432 l 1
 440 393 l 1
 435 380 433 378 417 378 c 2
 358 378 l 1
 329 284 l 1
 387 284 l 2
 400 284 402 283 402 278 c 0
 402 275 401 271 400 267 c 2
 388 229 l 1
 386 221 384 220 373 220 c 2
 310 220 l 1
 242 -5 l 1
 240 -13 237 -15 228 -15 c 2
 205 -15 l 2
 200 -15 198 -12 198 -7 c 2
 198 -2 l 1
 267 220 l 1
 141 220 l 1
 73 -5 l 2
 70 -14 68 -15 60 -15 c 2
 36 -15 l 2
 30 -15 28 -13 28 -9 c 0
 28 -5 28 -3 29 0 c 2
 96 220 l 1
160 284 m 1
 286 284 l 1
 315 378 l 1
 189 378 l 1
 160 284 l 1
EndSplineSet
EndChar
StartChar: dollar
Encoding: 36 36 138
Width: 479
Flags: MW
VStem: 62 79<500 532.5> 220 38<-52 0 43 296 413 618 661 711> 347 79<151 193.5>
Fore
220 43 m 1
 220 316 l 1
 175 337 158 347 133 364 c 0
 87 396 62 441 62 491 c 0
 62 574 124 641 220 661 c 1
 220 713 l 2
 220 724 222 726 230 726 c 2
 248 726 l 2
 256 726 258 723 258 711 c 2
 258 661 l 1
 303 658 327 652 357 634 c 0
 395 612 415 587 415 559 c 0
 415 536 400 518 381 518 c 0
 363 518 353 527 324 568 c 0
 300 601 284 613 258 618 c 1
 258 396 l 1
 266 391 274 386 283 382 c 0
 345 348 369 330 390 305 c 0
 414 275 426 239 426 198 c 0
 426 104 363 30 258 0 c 1
 258 -52 l 2
 258 -61 255 -65 248 -65 c 2
 232 -65 l 2
 224 -65 220 -60 220 -52 c 2
 220 0 l 1
 169 1 139 9 105 31 c 0
 72 53 50 83 50 107 c 0
 50 128 66 144 86 144 c 0
 102 144 115 135 133 111 c 0
 172 60 185 50 220 43 c 1
258 296 m 1
 258 43 l 1
 312 53 347 101 347 164 c 0
 347 223 321 261 258 296 c 1
220 413 m 1
 220 618 l 1
 168 607 141 575 141 525 c 0
 141 475 164 442 220 413 c 1
EndSplineSet
EndChar
StartChar: percent
Encoding: 37 37 203
Width: 811
Flags: W
HStem: -15 31<587.5 636> 307 31<169.5 218> 309 31<589.5 637.5> 630 31<171 219.5>
VStem: 36 80<444.5 532> 273 80<438.5 529> 454 80<123 210.5> 691 80<116.5 207>
Fore
262 -15 m 2xbf
 239 -15 l 2
 230 -15 226 -12 226 -6 c 0
 226 -4 226 -3 229 3 c 2
 526 649 l 2
 531 659 534 661 546 661 c 2
 568 661 l 2
 576 661 581 659 581 655 c 0
 581 653 580 650 578 647 c 1
 283 3 l 2
 275 -15 275 -15 262 -15 c 2xbf
616 340 m 0
 701 340 771 259 771 161 c 0
 771 62 701 -15 610 -15 c 0
 521 -15 454 60 454 160 c 0
 454 261 524 340 616 340 c 0
613 309 m 0
 566 309 534 254 534 171 c 0
 534 75 563 16 612 16 c 0
 660 16 691 73 691 160 c 0
 691 254 662 309 613 309 c 0
198 661 m 0
 283 661 353 581 353 483 c 0
 353 384 283 307 192 307 c 0x5f
 103 307 36 382 36 481 c 0
 36 583 106 661 198 661 c 0
195 630 m 0
 147 630 116 575 116 492 c 0
 116 397 145 338 194 338 c 0
 242 338 273 395 273 482 c 0
 273 576 244 630 195 630 c 0
EndSplineSet
EndChar
StartChar: ampersand
Encoding: 38 38 174
Width: 830
Flags: W
HStem: -5 64<661 662> -5 74<258.5 282> 637 33<252.5 296.5>
VStem: 47 82<196.5 218.5> 127 68<545.5 569.5> 344 68<535 574.5>
Fore
778 502 m 2x6c
 778 494 l 2
 778 484 776 482 763 481 c 0
 704 477 694 469 633 380 c 0
 606 340 601 333 541 252 c 1
 532 242 524 231 517 219 c 1
 547 164 563 137 583 111 c 0
 606 80 644 59 678 59 c 0
 713 59 757 80 779 107 c 0
 787 116 789 117 794 117 c 0
 802 117 809 111 809 105 c 0
 809 100 799 84 786 68 c 0
 748 23 690 -5 634 -5 c 0xac
 600 -5 564 6 536 24 c 0
 521 35 509 55 486 110 c 0
 480 125 474 139 467 152 c 1
 361 22 322 -5 242 -5 c 0
 130 -5 47 76 47 185 c 0x70
 47 252 68 293 125 335 c 1
 150 355 166 365 215 397 c 1
 201 409 l 2
 144 460 127 489 127 532 c 0
 127 607 195 670 275 670 c 0
 352 670 412 617 412 551 c 0
 412 519 396 489 367 466 c 0
 353 455 343 448 309 426 c 1
 413 356 441 330 499 248 c 1
 567 334 605 403 605 438 c 0
 605 467 586 482 546 483 c 0
 526 484 525 484 525 496 c 2
 525 506 l 2
 525 513 528 515 535 515 c 0
 539 515 550 514 560 513 c 0
 574 511 642 507 654 507 c 0
 655 507 668 508 734 512 c 2
 767 513 l 2
 775 513 778 510 778 502 c 2x6c
287 439 m 1
 328 471 344 500 344 545 c 0
 344 604 319 637 274 637 c 0
 231 637 195 605 195 566 c 0
 195 525 231 476 287 439 c 1
237 381 m 1x50
 160 330 129 282 129 216 c 0
 129 177 144 142 174 114 c 0
 202 87 243 69 274 69 c 0
 320 69 363 93 417 148 c 0
 425 157 430 162 449 183 c 1
 415 249 350 309 237 381 c 1x50
EndSplineSet
EndChar
StartChar: quoteright
Encoding: 39 8217 193
Width: 276
Flags: MW
HStem: 684 20<110.5 151.5>
VStem: 159 55
Fore
75 454 m 1
 69 468 l 1
 68 475 l 1
 68 478 70 480 76 483 c 0
 129 503 159 532 159 562 c 0
 159 572 153 583 144 590 c 0
 140 594 140 594 113 603 c 0
 86 613 69 633 69 655 c 0
 69 683 94 704 127 704 c 0
 176 704 214 658 214 598 c 0
 214 552 190 511 148 482 c 0
 123 464 91 448 82 448 c 0
 79 448 76 450 75 454 c 1
EndSplineSet
KernsSLIF: 121 -10 1 0 119 -12 1 0 118 -10 1 0 116 -15 1 0 115 -15 1 0 114 -31 1 0 46 -47 1 0 111 -30 1 0 100 -29 1 0 44 -40 1 0 261 -86 1 0 256 -86 1 0 257 -86 1 0 225 -169 1 0 65 -86 1 0
EndChar
StartChar: parenleft
Encoding: 40 40 170
Width: 295
Flags: MW
VStem: 76 68<211 291.5>
Fore
308 -208 m 2
 299 -218 l 1
 296 -223 294 -225 292 -225 c 0
 280 -225 224 -167 191 -120 c 0
 119 -17 76 117 76 240 c 0
 76 343 110 466 163 559 c 0
 189 604 251 679 283 705 c 1
 287 707 290 710 293 713 c 0
 298 717 299 718 300 718 c 0
 301 718 301 718 307 712 c 1
 316 700 l 1
 323 693 323 692 323 691 c 0
 323 689 321 686 309 674 c 0
 207 572 144 413 144 255 c 0
 144 167 164 64 196 -19 c 0
 221 -82 272 -164 301 -185 c 0
 312 -194 314 -195 314 -198 c 0
 314 -200 313 -201 308 -208 c 2
EndSplineSet
EndChar
StartChar: parenright
Encoding: 41 41 171
Width: 295
Flags: MW
VStem: 185 68<201.5 282.5>
Fore
21 701 m 2
 30 712 l 1
 32 716 36 718 37 718 c 0
 49 718 106 659 138 613 c 0
 210 509 253 375 253 253 c 0
 253 150 219 27 166 -66 c 0
 140 -110 77 -187 46 -212 c 2
 36 -220 l 2
 32 -224 31 -225 29 -225 c 0
 28 -225 27 -224 26 -222 c 2
 22 -218 l 1
 13 -207 l 2
 6 -199 6 -199 6 -197 c 0
 6 -195 8 -192 20 -180 c 0
 123 -77 185 80 185 238 c 0
 185 327 165 430 133 513 c 0
 108 576 57 657 28 679 c 0
 17 687 15 689 15 692 c 0
 15 694 16 695 21 701 c 2
EndSplineSet
EndChar
StartChar: asterisk
Encoding: 42 42 178
Width: 479
Flags: MW
HStem: 674 20<289.5 308>
Fore
264 542 m 1
 248 550 l 1
 250 581 259 635 268 667 c 0
 273 684 283 694 296 694 c 0
 320 694 349 673 348 656 c 0
 347 642 339 629 304 586 c 0
 283 561 274 551 264 542 c 1
284 499 m 1
 287 517 l 1
 317 524 383 534 406 534 c 0
 429 534 440 523 440 500 c 0
 440 471 428 453 409 453 c 0
 393 453 324 478 284 499 c 1
254 459 m 1
 272 461 l 1
 298 423 328 356 328 338 c 0
 328 319 309 307 281 307 c 0
 256 307 247 319 247 349 c 0
 247 384 250 433 254 459 c 1
208 480 m 1
 216 463 l 1
 205 450 193 438 172 418 c 0
 134 381 120 371 106 371 c 0
 90 371 69 400 69 422 c 0
 69 436 78 445 97 452 c 0
 129 462 178 475 208 480 c 1
223 534 m 1
 210 522 l 1
 188 530 153 547 121 566 c 0
 95 581 87 590 87 603 c 0
 87 623 114 650 134 650 c 0
 147 650 156 641 183 601 c 0
 201 573 215 550 223 534 c 1
EndSplineSet
EndChar
StartChar: plus
Encoding: 43 43 184
Width: 812
Flags: MW
HStem: -10 20 214 64<161 372 436 648>
VStem: 372 64<4 214 278 487>
Fore
436 278 m 1
 648 278 l 2
 657 278 660 275 660 266 c 2
 660 226 l 2
 660 217 657 214 648 214 c 2
 436 214 l 1
 436 4 l 2
 436 -6 433 -10 425 -10 c 2
 383 -10 l 2
 375 -10 372 -6 372 4 c 2
 372 214 l 1
 161 214 l 2
 152 214 149 217 149 226 c 2
 149 266 l 2
 149 275 152 278 161 278 c 2
 372 278 l 1
 372 487 l 2
 372 497 375 501 383 501 c 2
 425 501 l 2
 433 501 436 497 436 487 c 2
 436 278 l 1
EndSplineSet
EndChar
StartChar: comma
Encoding: 44 44 151
Width: 258
Flags: MW
VStem: 149 55
Fore
66 -163 m 1
 59 -151 l 2
 58 -149 57 -145 57 -143 c 0
 57 -139 57 -139 81 -126 c 0
 121 -105 149 -70 149 -40 c 0
 149 -25 143 -13 133 -5 c 1
 130 -4 117 2 94 12 c 0
 71 21 59 38 59 62 c 0
 59 93 84 118 115 118 c 0
 163 118 204 67 204 5 c 0
 204 -54 179 -103 131 -137 c 0
 108 -153 80 -169 74 -169 c 0
 71 -169 67 -166 66 -163 c 1
EndSplineSet
KernsSLIF: 39 -36 1 0 186 -28 1 0
EndChar
StartChar: hyphen
Encoding: 45 45 166
Width: 258
Flags: MW
HStem: 194 71<34 217>
Fore
17 207 m 2
 17 252 l 2
 17 264 19 265 34 265 c 2
 217 265 l 2
 232 265 234 264 234 252 c 2
 234 207 l 2
 234 195 232 194 217 194 c 2
 34 194 l 2
 19 194 17 195 17 207 c 2
EndSplineSet
KernsSLIF: 89 -84 1 0 87 -48 1 0 86 -56 1 0 84 -75 1 0 261 -8 1 0 256 -8 1 0 257 -8 1 0 225 -43 1 0 65 -8 1 0
EndChar
StartChar: period
Encoding: 46 46 146
Width: 258
Flags: MW
HStem: -10 20
Fore
131 111 m 0
 167 111 191 88 191 52 c 0
 191 13 167 -10 128 -10 c 0
 92 -10 70 12 70 50 c 0
 70 86 95 111 131 111 c 0
EndSplineSet
KernsSLIF: 39 -36 1 0 186 -29 1 0
EndChar
StartChar: slash
Encoding: 47 47 165
Width: 479
Flags: MW
HStem: -18 20
Fore
66 -18 m 2
 35 -18 l 2
 23 -18 21 -17 21 -12 c 0
 21 -9 22 -6 26 3 c 2
 387 754 l 1
 393 768 394 769 411 769 c 2
 443 769 l 2
 450 769 452 767 452 763 c 0
 452 759 450 752 447 746 c 2
 89 2 l 2
 80 -17 78 -18 66 -18 c 2
EndSplineSet
EndChar
StartChar: zero
Encoding: 48 48 136
Width: 479
Flags: MW
HStem: -5 88<191 262.5> 585 88<204.5 257>
VStem: 37 44<269 393.5> 397 45<302.5 367>
Fore
238 673 m 0
 368 673 442 550 442 334 c 0
 442 112 375 -5 247 -5 c 0
 111 -5 37 118 37 345 c 0
 37 442 55 526 89 585 c 0
 123 644 171 673 238 673 c 0
231 585 m 0
 135 585 81 501 81 349 c 0
 81 189 144 83 238 83 c 0
 287 83 334 113 359 161 c 0
 383 208 397 271 397 334 c 0
 397 400 381 466 353 513 c 0
 325 560 283 585 231 585 c 0
EndSplineSet
EndChar
StartChar: one
Encoding: 49 49 127
Width: 480
Flags: W
HStem: -5 20 0 20
VStem: 222 82<127 486>
Fore
276 666 m 1xa0
 311 661 l 1
 307 555 l 1
 305 523 304 499 304 486 c 2
 304 125 l 2
 304 64 305 58 315 45 c 0
 325 32 344 25 383 23 c 0
 400 21 400 21 400 14 c 2
 400 4 l 2
 400 -3 398 -5 391 -5 c 0xa0
 376 -4 376 -4 343 -3 c 0
 326 -3 326 -3 262 0 c 1x60
 208 -3 147 -5 138 -5 c 0
 131 -5 129 -3 129 4 c 2
 129 15 l 2
 129 20 130 22 137 23 c 0
 217 30 222 36 222 127 c 2
 222 538 l 1
 221 567 221 567 217 567 c 0
 215 567 215 567 200 557 c 2
 133 515 l 1
 126 510 l 2
 121 507 119 506 117 506 c 0
 115 506 113 509 110 514 c 2
 106 520 l 2
 102 526 102 526 102 528 c 0
 102 530 104 533 109 536 c 0
 160 564 222 612 276 666 c 1xa0
EndSplineSet
EndChar
StartChar: two
Encoding: 50 50 128
Width: 479
Flags: W
HStem: -5 20 0 81 598 75<233 253>
VStem: 324 99<473.5 509>
Fore
24 -4 m 1x50
 23 22 l 1
 35 43 39 47 63 71 c 0
 256 256 324 360 324 471 c 0
 324 547 283 598 223 598 c 0
 185 598 149 582 119 551 c 1
 111 544 111 544 84 509 c 0
 78 500 76 499 73 499 c 0
 71 499 68 500 66 501 c 2
 59 507 l 2
 55 510 53 512 53 515 c 0
 53 520 59 531 69 546 c 0
 124 628 196 673 270 673 c 0
 316 673 359 654 384 623 c 0
 407 595 423 547 423 509 c 0
 423 438 383 358 300 263 c 0
 258 215 257 214 141 103 c 1
 134 95 128 88 121 83 c 1
 133 81 138 81 146 81 c 0x70
 150 81 150 81 185 83 c 2
 414 89 l 2
 446 89 446 89 446 85 c 0
 446 83 446 83 440 73 c 1
 416 20 l 2
 408 2 400 -5 387 -5 c 0x90
 379 -5 364 -4 347 -3 c 2
 209 0 l 2
 197 0 171 -1 137 -2 c 0
 94 -3 69 -4 58 -4 c 2
 24 -4 l 1x50
EndSplineSet
EndChar
StartChar: three
Encoding: 51 51 129
Width: 479
Flags: W
HStem: -5 49<170.5 176> 603 70<189.5 210>
VStem: 283 76 321 89<224.5 255>
Fore
79 548 m 1xe0
 59 563 l 1
 94 635 152 673 227 673 c 0
 302 673 359 628 359 568 c 0xe0
 359 525 338 486 280 427 c 1
 358 408 410 340 410 257 c 0
 410 192 376 122 318 68 c 0
 266 19 208 -5 144 -5 c 0
 78 -5 38 17 38 53 c 0
 38 74 55 90 78 90 c 0
 96 90 106 85 139 58 c 0
 150 50 165 44 176 44 c 0
 211 44 257 66 282 95 c 0
 306 122 321 168 321 214 c 0xd0
 321 296 279 350 213 350 c 0
 197 350 186 348 176 343 c 1
 162 361 l 1
 244 430 283 482 283 522 c 0
 283 566 237 603 183 603 c 0
 145 603 115 587 79 548 c 1xe0
EndSplineSet
EndChar
StartChar: four
Encoding: 52 52 130
Width: 480
Flags: MW
HStem: -5 20 216 63<207.5 232 232 269>
VStem: 269 77<137 213>
Fore
346 213 m 1
 346 12 l 2
 346 -5 346 -5 332 -5 c 2
 283 -5 l 2
 267 -5 264 -3 264 5 c 2
 264 12 l 1
 265 22 l 1
 266 59 l 1
 269 137 l 1
 269 216 l 1
 232 216 l 2
 183 216 80 210 43 205 c 0
 39 204 34 204 32 204 c 0
 25 204 21 211 21 225 c 0
 21 235 28 248 51 281 c 2
 321 665 l 1
 342 665 l 2
 357 665 358 665 358 649 c 0
 358 640 355 593 352 539 c 0
 348 475 346 427 346 397 c 2
 346 279 l 1
 422 279 l 2
 447 279 450 275 450 249 c 0
 450 217 447 213 422 213 c 2
 346 213 l 1
269 279 m 1
 271 541 l 1
 258 527 242 503 200 439 c 2
 153 367 l 2
 126 325 109 295 109 290 c 0
 109 281 115 279 145 279 c 2
 269 279 l 1
EndSplineSet
EndChar
StartChar: five
Encoding: 53 53 131
Width: 479
Flags: MW
HStem: -5 49 367 88<192 217.5> 584 79<168.5 190 190 305>
VStem: 339 89<208.5 234>
Fore
95 337 m 1
 79 344 l 1
 112 619 l 1
 115 638 116 644 117 649 c 0
 117 653 118 655 121 663 c 1
 386 663 l 1
 373 628 l 2
 357 585 355 584 305 584 c 2
 190 584 l 2
 147 584 147 584 142 540 c 2
 135 479 l 1
 134 455 l 1
 134 450 136 448 142 448 c 0
 143 448 145 448 148 449 c 0
 171 454 182 455 202 455 c 0
 338 455 428 372 428 246 c 0
 428 171 396 111 328 58 c 0
 276 18 212 -5 155 -5 c 0
 89 -5 44 19 44 55 c 0
 44 76 64 93 87 93 c 0
 102 93 106 91 136 68 c 0
 155 52 176 44 196 44 c 0
 274 44 339 121 339 214 c 0
 339 254 326 293 304 321 c 0
 279 352 243 367 192 367 c 0
 153 367 128 359 95 337 c 1
EndSplineSet
EndChar
StartChar: six
Encoding: 54 54 132
Width: 480
Flags: MW
HStem: -5 32<213 281.5> 326 44<256 277>
VStem: 41 88<172 219.5> 360 89<134.5 216.5>
Fore
338 676 m 1
 355 650 l 1
 224 555 149 436 135 303 c 1
 189 353 228 370 284 370 c 0
 384 370 449 299 449 191 c 0
 449 78 364 -5 249 -5 c 0
 123 -5 41 95 41 249 c 0
 41 436 146 587 338 676 c 1
133 267 m 1
 130 240 129 227 129 212 c 0
 129 100 176 27 250 27 c 0
 313 27 360 89 360 172 c 0
 360 261 311 326 243 326 c 0
 201 326 163 305 133 267 c 1
EndSplineSet
EndChar
StartChar: seven
Encoding: 55 55 133
Width: 479
Flags: MW
HStem: -5 20 589 74<110 264>
Fore
28 589 m 1
 56 638 l 2
 68 659 68 659 72 661 c 0
 77 663 84 663 110 663 c 2
 419 663 l 2
 456 663 461 662 461 650 c 0
 461 643 457 634 447 615 c 0
 439 601 431 586 423 570 c 0
 411 547 398 523 385 500 c 2
 126 47 l 1
 111 20 l 1
 108 16 105 11 102 6 c 0
 100 2 97 -2 95 -5 c 1
 46 29 l 1
 229 334 l 2
 254 376 254 376 340 533 c 0
 351 553 355 563 355 571 c 0
 355 587 345 589 264 589 c 2
 28 589 l 1
EndSplineSet
EndChar
StartChar: eight
Encoding: 56 56 134
Width: 479
Flags: W
HStem: -5 33<210.5 268.5> 640 33<216 271>
VStem: 58 76<126 165> 69 76<501.5 551> 335 82<120 152> 338 76<505 546>
Fore
184 322 m 1xe8
 170 334 l 2
 116 382 105 393 91 417 c 0
 76 444 69 472 69 502 c 0
 69 600 146 673 249 673 c 0
 346 673 414 613 414 528 c 0xd4
 414 482 393 439 353 405 c 0
 336 391 324 381 289 354 c 1
 323 329 338 316 357 298 c 0
 394 263 417 214 417 169 c 0
 417 71 337 -5 233 -5 c 0
 135 -5 58 60 58 144 c 0
 58 186 80 232 115 267 c 0
 134 286 149 298 184 322 c 1xe8
264 368 m 1
 268 372 269 372 274 376 c 0
 317 412 338 455 338 506 c 0
 338 586 299 640 243 640 c 0
 189 640 145 589 145 527 c 0
 145 476 172 440 264 368 c 1
209 308 m 1xe8
 206 306 206 306 202 303 c 0
 160 270 134 218 134 166 c 0
 134 86 179 28 242 28 c 0
 295 28 335 74 335 134 c 0
 335 170 322 205 297 234 c 0
 285 248 264 266 222 298 c 0
 219 300 214 304 209 308 c 1xe8
EndSplineSet
EndChar
StartChar: nine
Encoding: 57 57 135
Width: 479
Flags: MW
HStem: -9 20 297 45<201 222> 641 32<196.5 264>
VStem: 31 89<451.5 533.5> 345 88<448 496>
Fore
139 -9 m 1
 122 17 l 1
 253 112 329 233 342 364 c 1
 288 314 250 297 194 297 c 0
 95 297 31 368 31 477 c 0
 31 590 114 673 228 673 c 0
 352 673 433 573 433 419 c 0
 433 232 329 81 139 -9 c 1
344 400 m 1
 345 448 l 1
 345 568 301 641 227 641 c 0
 166 641 120 579 120 496 c 0
 120 407 168 342 234 342 c 0
 276 342 314 363 344 400 c 1
EndSplineSet
EndChar
StartChar: colon
Encoding: 58 58 147
Width: 258
Flags: MW
HStem: -10 121<113 147.5> 311 121<113 147.5>
Fore
131 432 m 0
 168 432 191 409 191 372 c 0
 191 334 167 311 128 311 c 0
 92 311 70 334 70 371 c 0
 70 407 95 432 131 432 c 0
131 111 m 0
 167 111 191 88 191 52 c 0
 191 13 167 -10 128 -10 c 0
 92 -10 70 12 70 50 c 0
 70 86 95 111 131 111 c 0
EndSplineSet
EndChar
StartChar: semicolon
Encoding: 59 59 152
Width: 258
Flags: W
HStem: 311 121<119 153.5>
VStem: 76 121<353.5 389> 149 55
Fore
137 432 m 0xc0
 174 432 197 409 197 372 c 0
 197 335 173 311 134 311 c 0
 98 311 76 333 76 371 c 0
 76 407 101 432 137 432 c 0xc0
66 -163 m 1xa0
 59 -151 l 2
 58 -149 57 -145 57 -143 c 0
 57 -139 57 -139 81 -126 c 0
 121 -105 149 -70 149 -40 c 0
 149 -25 143 -13 133 -5 c 1
 130 -4 117 2 94 12 c 0
 71 21 59 38 59 62 c 0
 59 93 84 118 115 118 c 0
 163 118 204 67 204 5 c 0
 204 -54 179 -103 131 -137 c 0
 108 -153 80 -169 74 -169 c 0
 71 -169 67 -166 66 -163 c 1xa0
EndSplineSet
EndChar
StartChar: less
Encoding: 60 60 237
Width: 996
Flags: MW
HStem: -1 20
Fore
199 264 m 1
 199 335 l 1
 797 600 l 1
 797 524 l 1
 285 299 l 1
 797 74 l 1
 797 -1 l 1
 199 264 l 1
EndSplineSet
EndChar
StartChar: equal
Encoding: 61 61 188
Width: 812
Flags: MW
HStem: 133 64<162 646> 260 64<162 646>
Fore
150 145 m 2
 150 185 l 2
 150 194 153 197 162 197 c 2
 646 197 l 2
 655 197 658 194 658 185 c 2
 658 145 l 2
 658 136 655 133 646 133 c 2
 162 133 l 2
 153 133 150 136 150 145 c 2
150 271 m 2
 150 312 l 2
 150 321 153 324 162 324 c 2
 646 324 l 2
 655 324 658 321 658 312 c 2
 658 271 l 2
 658 263 655 260 646 260 c 2
 162 260 l 2
 153 260 150 263 150 271 c 2
EndSplineSet
EndChar
StartChar: greater
Encoding: 62 62 238
Width: 996
Flags: MW
HStem: -1 20
Fore
797 335 m 1
 797 264 l 1
 199 -1 l 1
 199 74 l 1
 711 299 l 1
 199 524 l 1
 199 600 l 1
 797 335 l 1
EndSplineSet
EndChar
StartChar: question
Encoding: 63 63 159
Width: 369
Flags: MW
HStem: -15 123<102.5 136>
VStem: 58 123<30 63.5> 264 52<434.5 489>
Fore
119 108 m 0
 153 108 181 81 181 47 c 0
 181 12 153 -15 119 -15 c 0
 85 -15 58 13 58 47 c 0
 58 80 86 108 119 108 c 0
98 188 m 1
 93 350 l 1
 199 353 264 399 264 470 c 0
 264 514 239 562 202 589 c 0
 180 604 166 608 119 611 c 0
 77 614 57 629 57 660 c 0
 57 691 83 715 116 715 c 0
 211 715 316 559 316 419 c 0
 316 321 259 269 149 268 c 2
 138 268 l 1
 132 189 l 1
 130 175 129 173 121 173 c 2
 108 173 l 2
 100 173 98 176 98 188 c 1
EndSplineSet
EndChar
StartChar: at
Encoding: 64 64 181
Width: 816
Flags: W
HStem: -139 52<307 431.5> 1 55<546.5 568> 10 39<310.5 333.5> 437 39<447.5 471.5> 592 52<379.5 498.5>
VStem: -7 67<112.5 248> 755 47<283 359>
Fore
700 14 m 1xde
 734 -7 l 1
 678 -51 649 -70 611 -89 c 0
 543 -122 471 -139 392 -139 c 0
 165 -139 -7 3 -7 190 c 0
 -7 306 42 423 128 512 c 0
 213 599 319 644 440 644 c 0
 646 644 802 506 802 324 c 0
 802 157 668 1 524 1 c 0xde
 477 1 456 19 448 67 c 1
 395 25 357 10 310 10 c 0x26
 235 10 186 63 186 144 c 0
 186 225 220 312 281 385 c 0
 332 447 385 476 446 476 c 0
 497 476 528 457 562 404 c 1
 582 458 l 1
 673 458 l 1
 539 134 l 1
 531 116 526 96 526 83 c 0
 526 67 538 56 555 56 c 0
 581 56 623 78 659 111 c 0
 721 168 755 243 755 323 c 0
 755 395 728 457 673 508 c 0
 616 561 538 592 459 592 c 0
 252 592 60 401 60 195 c 0
 60 30 205 -87 409 -87 c 0
 479 -87 550 -71 610 -43 c 0
 635 -30 658 -16 700 14 c 1xde
467 437 m 0
 428 437 388 405 345 338 c 0
 304 273 269 180 265 123 c 0
 262 80 290 49 331 49 c 0x36
 377 49 413 80 455 159 c 0
 497 237 528 328 528 372 c 0
 528 409 502 437 467 437 c 0
EndSplineSet
EndChar
StartChar: A
Encoding: 65 65 1
Width: 756
Flags: W
HStem: -5 20 0 20 273 39<245 452>
Fore
467 273 m 1xa0
 233 273 l 1
 196 158 l 1
 184 119 177 88 177 70 c 0
 177 41 201 28 255 26 c 0
 260 26 261 24 261 16 c 2
 261 5 l 2
 261 -3 259 -5 250 -5 c 2xa0
 121 0 l 2x40
 108 0 96 -1 82 -2 c 0
 55 -4 36 -5 27 -5 c 0
 20 -5 18 -2 18 7 c 2
 18 18 l 2
 18 26 20 26 40 28 c 0
 100 34 103 37 134 131 c 1
 318 667 l 1
 334 686 364 711 384 721 c 1
 621 123 l 1
 651 43 666 30 727 28 c 0
 733 28 734 25 734 18 c 2
 734 5 l 2
 734 -3 732 -5 725 -5 c 2
 711 -5 l 2x80
 683 -3 603 0 596 0 c 0x40
 581 0 507 -3 489 -4 c 0
 484 -5 479 -5 477 -5 c 0
 470 -5 468 -2 468 7 c 2
 468 17 l 2
 468 27 468 27 494 28 c 0
 532 30 549 38 549 55 c 0
 549 62 547 69 541 84 c 0
 537 93 534 102 530 110 c 1
 467 273 l 1xa0
452 312 m 1
 341 597 l 1
 245 312 l 1
 452 312 l 1
EndSplineSet
KernsSLIF: 121 -79 0 0 119 -81 0 0 118 -79 0 0 117 -29 0 0 116 -16 0 0 39 -97 0 0 186 -89 0 0 113 -27 0 0 46 -4 0 0 111 -30 0 0 45 -11 0 0 172 -47 0 0 171 -46 0 0 101 -20 0 0 100 -22 0 0 293 -21 0 0 99 -20 0 0 98 -13 0 0 89 -76 0 0 87 -119 0 0 86 -128 0 0 281 -75 0 0 279 -75 0 0 282 -75 0 0 280 -75 0 0 85 -75 0 0 84 -60 0 0 81 -63 0 0 273 -63 0 0 79 -63 0 0 71 -69 0 0 262 -71 0 0 67 -71 0 0
EndChar
StartChar: B
Encoding: 66 66 2
Width: 608
Flags: W
HStem: -5 38<308.5 362.5> 0 20 355 33<270.5 310.5> 662 32<27.5 33 278 334.5> 669 20<152 152>
VStem: 128 90<132 138 138 349 389 556 556 587.5> 423 93<500 567.5> 470 98<142 243.5>
Fore
178 690 m 1x4d
 225 693 l 2
 237 694 252 694 271 694 c 0
 436 694 516 640 516 527 c 0xb6
 516 473 496 437 453 412 c 0
 436 402 417 395 372 382 c 1
 504 360 568 298 568 189 c 0
 568 67 474 -5 315 -5 c 0xb5
 302 -5 293 -5 217 -1 c 0
 201 0 191 0 183 0 c 0
 182 0 166 -1 142 -2 c 2
 103 -3 l 1
 67 -4 l 2
 52 -5 40 -5 32 -5 c 0
 22 -5 18 -2 18 7 c 2
 18 14 l 2
 18 27 18 27 57 28 c 0
 90 28 109 35 119 50 c 0
 126 62 128 80 128 132 c 2
 128 556 l 2
 128 619 125 634 113 646 c 0
 99 659 91 661 33 662 c 0
 22 662 18 665 18 675 c 2
 18 682 l 2
 18 691 22 694 32 694 c 0
 41 694 63 693 152 689 c 1
 178 690 l 1x4d
218 588 m 2
 218 389 l 1
 230 388 232 388 242 388 c 2
 259 388 l 2
 362 388 423 439 423 524 c 0
 423 611 375 662 294 662 c 0
 262 662 240 656 229 645 c 0
 220 636 218 625 218 588 c 2
218 349 m 1
 218 138 l 2
 218 77 221 65 243 49 c 0
 257 39 282 33 313 33 c 0
 412 33 470 92 470 192 c 0xb5
 470 295 401 355 283 355 c 0
 258 355 240 353 218 349 c 1
EndSplineSet
KernsSLIF: 89 -37 0 0 87 -32 0 0 86 -40 0 0 233 5 0 0 275 -1 0 0 273 -1 0 0 276 -1 0 0 274 -1 0 0 234 -6 0 0 79 -1 0 0 260 -25 0 0 261 -25 0 0 256 -25 0 0 259 -25 0 0 257 -25 0 0 225 -25 0 0 65 -25 0 0
EndChar
StartChar: C
Encoding: 67 67 3
Width: 738
Flags: MW
HStem: -20 39<365 485.5> 669 39<360 480.5>
VStem: 47 112<255 436.5>
Fore
678 649 m 1
 693 524 l 1
 694 519 694 515 694 514 c 0
 694 509 692 507 685 506 c 2
 678 505 l 2
 675 504 674 504 672 504 c 0
 668 504 668 504 652 544 c 0
 619 621 539 669 440 669 c 0
 280 669 159 529 159 344 c 0
 159 166 287 19 443 19 c 0
 528 19 611 53 641 100 c 0
 652 118 662 139 668 162 c 0
 673 177 675 180 681 179 c 2
 687 178 l 1
 694 177 l 2
 701 177 704 174 704 169 c 0
 704 166 704 166 701 152 c 1
 680 33 l 1
 610 -2 532 -20 452 -20 c 0
 227 -20 47 142 47 345 c 0
 47 545 223 708 439 708 c 0
 522 708 613 685 678 649 c 1
EndSplineSet
KernsSLIF: 273 -1 0 0 274 -1 0 0 79 -1 0 0 72 -2 0 0
EndChar
StartChar: D
Encoding: 68 68 4
Width: 793
Flags: W
HStem: -5 32<332 387> 0 20 676 32<301 384>
VStem: 120 90<138 173 173 499 499 559.5> 646 106<287 397>
Fore
120 133 m 2x58
 120 499 l 2
 120 620 120 624 107 638 c 0
 99 648 82 653 61 653 c 0
 52 653 41 652 28 649 c 0
 24 648 21 648 19 648 c 0
 12 648 10 653 10 670 c 0
 10 680 17 682 61 688 c 0
 141 700 261 708 341 708 c 0
 443 708 516 691 583 651 c 0
 691 588 752 479 752 349 c 0
 752 225 697 124 597 61 c 0
 521 14 445 -5 329 -5 c 0xb8
 295 -5 295 -5 218 -2 c 0
 196 -1 178 0 165 0 c 0
 146 0 76 -2 56 -4 c 0
 44 -5 34 -5 26 -5 c 0
 16 -5 12 -2 12 8 c 2
 12 14 l 2
 12 27 15 28 40 28 c 0
 83 28 100 34 111 51 c 0
 118 62 120 82 120 133 c 2x58
210 568 m 2
 210 173 l 2
 210 103 216 79 242 59 c 0
 266 39 308 27 356 27 c 0
 523 27 646 163 646 349 c 0
 646 445 614 530 556 592 c 0
 501 652 436 676 332 676 c 0
 270 676 236 668 221 650 c 0
 212 638 210 626 210 568 c 2
EndSplineSet
KernsSLIF: 89 -60 0 0 88 -55 0 0 87 -51 0 0 86 -59 0 0 84 -19 0 0 74 -29 0 0 260 -61 0 0 261 -61 0 0 258 -61 0 0 256 -61 0 0 259 -61 0 0 257 -61 0 0 65 -61 0 0
EndChar
StartChar: E
Encoding: 69 69 5
Width: 627
Flags: W
HStem: -5 20 0 20 354 34<273 339> 662 33<36.5 45 369 399.5> 669 20<205.5 214>
VStem: 138 90<133 136 136 353 389 556>
Fore
228 353 m 1x34
 228 136 l 2
 228 77 230 67 248 52 c 0
 266 37 290 32 352 32 c 2
 386 32 l 2
 503 32 511 36 561 132 c 0
 567 144 570 147 574 147 c 0
 587 147 597 143 597 137 c 0
 597 135 595 127 592 117 c 2
 568 32 l 1
 561 10 556 -1 552 -3 c 0
 548 -5 544 -5 516 -5 c 2x84
 296 -2 l 2
 259 -1 259 -1 235 -1 c 2
 205 -1 l 2
 181 0 170 0 170 0 c 2x44
 152 0 137 -1 113 -2 c 0
 77 -4 58 -5 43 -5 c 0
 27 -5 24 -3 24 8 c 2
 24 14 l 2
 24 28 24 28 67 28 c 0
 100 28 119 35 129 51 c 0
 136 62 138 82 138 133 c 2
 138 557 l 2
 138 618 135 635 123 647 c 0
 108 660 101 662 42 662 c 0
 31 662 27 666 27 676 c 2
 27 682 l 2
 27 691 31 695 41 695 c 0x94
 49 695 60 695 73 694 c 2
 113 692 l 1
 161 691 l 2
 185 690 202 689 209 689 c 0x0c
 219 689 237 690 261 691 c 0
 305 693 349 695 369 695 c 2
 515 695 l 2
 543 695 543 695 543 668 c 2
 543 567 l 2
 543 547 542 545 533 545 c 2
 523 545 l 2
 512 545 512 545 510 575 c 0
 507 617 493 641 466 653 c 0
 449 660 427 662 372 662 c 0
 228 662 228 662 228 556 c 2
 228 389 l 1
 237 388 265 388 271 388 c 0
 407 388 423 395 445 465 c 0
 447 471 449 472 456 472 c 2
 462 472 l 2
 469 472 472 469 472 463 c 1
 471 442 l 1
 468 418 466 386 466 364 c 0
 466 338 468 298 470 289 c 0
 472 278 473 270 473 266 c 0
 473 261 470 257 464 257 c 2
 452 256 l 2
 441 256 441 257 434 304 c 0
 427 354 427 354 280 354 c 0
 266 354 266 354 242 353 c 2
 228 353 l 1x34
EndSplineSet
EndChar
StartChar: F
Encoding: 70 70 6
Width: 590
Flags: W
HStem: -5 20 0 20 353 32<279.5 333.5> 669 20<178 178> 674 20<27.5 32 526 533.5>
VStem: 127 90<132 351 387 550>
Fore
217 351 m 1x2c
 217 132 l 2
 217 72 220 55 232 43 c 0
 247 29 255 28 315 28 c 0
 326 27 330 24 330 14 c 2
 330 7 l 2
 330 -2 326 -5 317 -5 c 0x84
 308 -5 298 -5 285 -4 c 2
 174 0 l 1x44
 30 -5 l 2
 21 -5 17 -2 17 7 c 2
 17 14 l 2
 17 25 21 28 38 28 c 0
 74 27 94 31 108 40 c 0
 124 51 127 67 127 132 c 2
 127 556 l 2
 127 619 124 634 112 646 c 0
 98 659 90 661 34 662 c 0
 23 662 19 665 19 675 c 2
 19 682 l 2
 19 691 23 694 32 694 c 2x8c
 178 689 l 1x14
 276 691 l 1
 335 692 l 1
 526 694 l 2
 541 694 542 694 542 672 c 1
 547 566 l 1
 547 561 l 1
 548 549 546 545 537 545 c 2
 525 544 l 1
 514 545 513 545 511 561 c 0
 506 594 496 623 485 636 c 0
 471 653 449 657 360 657 c 0
 221 657 217 654 217 550 c 2
 217 387 l 1
 242 386 269 385 290 385 c 0
 377 385 413 388 430 397 c 0
 447 406 457 422 460 445 c 0
 462 464 463 465 472 467 c 2
 482 469 l 1
 487 469 l 2
 493 469 495 466 495 461 c 0
 495 458 494 452 493 445 c 0
 491 434 489 399 489 367 c 0
 489 337 491 298 493 276 c 0
 494 271 494 266 494 262 c 0
 494 257 492 254 487 253 c 2
 477 251 l 1
 473 251 l 2
 468 252 467 253 465 263 c 0
 450 341 428 353 300 353 c 0
 254 353 234 353 217 351 c 1x2c
EndSplineSet
KernsSLIF: 117 -16 0 0 114 -39 0 0 46 -60 0 0 249 -29 0 0 250 -28 0 0 303 -28 0 0 304 -28 0 0 111 -28 0 0 106 -18 0 0 105 -25 0 0 45 13 0 0 295 -27 0 0 101 -27 0 0 44 -54 0 0 292 -35 0 0 241 -30 0 0 287 -12 0 0 288 -35 0 0 97 -35 0 0 273 -15 0 0 79 -15 0 0 260 -77 0 0 261 -77 0 0 258 -77 0 0 256 -77 0 0 259 -77 0 0 257 -77 0 0 65 -77 0 0
EndChar
StartChar: G
Encoding: 71 71 7
Width: 793
Flags: MW
HStem: -20 39<366 478> 669 39<406.5 509.5>
VStem: 44 111<259.5 385.5>
Fore
687 652 m 1
 692 535 l 1
 693 525 693 525 693 524 c 0
 693 520 691 518 686 517 c 2
 675 515 l 2
 672 514 667 515 663 516 c 1
 660 523 l 1
 657 536 l 2
 637 617 560 669 461 669 c 0
 287 669 155 533 155 352 c 0
 155 167 285 19 447 19 c 0
 509 19 569 41 597 74 c 0
 614 94 618 111 618 154 c 2
 618 175 l 2
 618 236 613 248 583 258 c 0
 567 264 558 264 493 265 c 0
 473 265 470 267 470 278 c 2
 470 287 l 2
 470 298 476 303 490 303 c 2
 641 299 l 1
 760 302 l 2
 770 302 773 300 773 291 c 2
 773 279 l 2
 773 269 770 267 752 267 c 0
 699 267 693 260 693 194 c 2
 693 41 l 1
 618 0 539 -20 446 -20 c 0
 216 -20 44 133 44 339 c 0
 44 432 81 524 143 584 c 1
 221 662 344 708 469 708 c 0
 550 708 614 691 687 652 c 1
EndSplineSet
KernsSLIF: 89 -21 0 0 87 -16 0 0 86 -24 0 0 84 -24 0 0 260 -25 0 0 261 -25 0 0 258 -25 0 0 256 -25 0 0 259 -25 0 0 257 -25 0 0 225 -25 0 0 65 -25 0 0
EndChar
StartChar: H
Encoding: 72 72 8
Width: 848
Flags: W
HStem: -5 20 0 20 349 39<211 636> 669 20<149.5 177 683.5 699> 674 20<30.5 39.5 297.5 307 553 561.5 810.5 820>
VStem: 121 90<133 349 388 557> 636 90<133 349 349 349 388 557>
Fore
211 388 m 1x2e
 636 388 l 1
 636 557 l 2
 636 619 633 635 621 646 c 0
 608 658 596 661 559 662 c 0
 548 662 545 665 545 675 c 2
 545 682 l 2
 545 691 548 694 558 694 c 0x2e
 565 694 574 694 585 693 c 0
 598 692 678 689 689 689 c 0x16
 709 689 753 691 785 693 c 0
 797 694 806 694 815 694 c 0
 825 694 829 691 829 682 c 2
 829 675 l 2
 829 663 826 662 801 661 c 0
 762 661 746 655 735 639 c 0
 728 627 726 609 726 557 c 2
 726 133 l 2
 726 70 729 55 741 43 c 0
 754 31 766 28 811 28 c 0
 822 27 826 24 826 14 c 2
 826 7 l 2
 826 -2 822 -5 811 -5 c 2x8e
 782 -4 l 2
 742 -1 710 0 686 0 c 0x46
 669 0 595 -3 576 -4 c 0
 563 -5 553 -5 546 -5 c 0
 536 -5 532 -2 532 7 c 2
 532 14 l 2
 532 26 534 27 559 28 c 0
 599 28 616 34 627 50 c 0
 634 62 636 80 636 133 c 2
 636 349 l 1
 211 349 l 1
 211 133 l 2
 211 81 213 62 220 50 c 0
 231 34 248 28 288 28 c 0
 313 28 315 26 315 14 c 2
 315 7 l 2
 315 -2 312 -5 302 -5 c 0xa6
 293 -5 284 -5 272 -4 c 0
 259 -3 178 0 167 0 c 0x46
 159 0 78 -3 67 -4 c 0
 54 -5 44 -5 36 -5 c 0
 27 -5 23 -2 23 7 c 2
 23 14 l 2
 23 27 25 27 50 28 c 0
 84 28 102 35 112 50 c 0
 119 62 121 81 121 133 c 2
 121 557 l 2
 121 618 118 634 106 646 c 0
 93 659 83 661 36 662 c 0
 25 662 21 665 21 675 c 2
 21 682 l 2
 21 691 25 694 36 694 c 0x8e
 43 694 54 694 65 693 c 0
 108 690 135 689 164 689 c 0x16
 190 689 241 691 272 693 c 0
 284 694 293 694 302 694 c 0
 312 694 315 691 315 682 c 2
 315 675 l 2
 315 663 313 662 288 661 c 0
 247 661 231 656 220 639 c 0
 213 628 211 608 211 557 c 2
 211 388 l 1x2e
EndSplineSet
EndChar
StartChar: I
Encoding: 73 73 9
Width: 332
Flags: W
HStem: -5 20 0 20 669 20<155.5 172> 674 20<28 37.5 297.5 306>
VStem: 123 90<132 556>
Fore
123 132 m 2x88
 123 556 l 2
 123 618 120 634 108 646 c 0
 94 659 85 661 34 662 c 0
 23 662 19 665 19 675 c 2
 19 682 l 2
 19 691 23 694 33 694 c 0x18
 42 694 52 694 65 693 c 0
 96 691 146 689 165 689 c 0x28
 179 689 259 692 274 693 c 0
 285 694 294 694 301 694 c 0
 311 694 314 691 314 682 c 2
 314 675 l 2
 314 663 312 662 290 661 c 0
 246 660 233 656 222 639 c 0
 215 627 213 608 213 556 c 2
 213 132 l 2
 213 81 215 62 222 50 c 0
 233 34 250 28 290 28 c 0
 315 28 317 26 317 14 c 2
 317 7 l 2
 317 -2 314 -5 303 -5 c 0x98
 296 -5 286 -5 274 -4 c 0
 256 -3 181 0 166 0 c 0x48
 150 0 96 -2 66 -4 c 0
 54 -5 41 -5 35 -5 c 0
 24 -5 20 -2 20 7 c 2
 20 14 l 2
 20 27 21 27 52 28 c 0
 85 28 104 35 114 50 c 0
 121 62 123 81 123 132 c 2x88
EndSplineSet
EndChar
StartChar: J
Encoding: 74 74 10
Width: 369
Flags: W
HStem: -232 38<76 106.5> 669 20<166 210.5> 674 20<47.5 55.5 319 326.5>
VStem: 144 90<16 35 35 556>
Fore
144 16 m 2xb0
 144 556 l 2
 144 617 141 635 129 646 c 0
 115 659 106 661 54 662 c 0
 43 662 39 665 39 675 c 2
 39 682 l 2
 39 691 43 694 52 694 c 0x30
 59 694 73 693 90 692 c 0
 110 690 144 689 188 689 c 0x50
 233 689 270 690 288 692 c 0
 303 693 316 694 322 694 c 0
 331 694 335 691 335 682 c 2
 335 675 l 2
 335 662 334 662 305 661 c 0
 270 661 253 654 243 639 c 0
 236 628 234 607 234 556 c 2
 234 35 l 2
 234 -134 168 -232 55 -232 c 0
 -7 -232 -55 -197 -55 -151 c 0
 -55 -127 -32 -107 -3 -107 c 0
 20 -107 32 -117 43 -146 c 0
 59 -186 66 -194 86 -194 c 0
 127 -194 144 -133 144 16 c 2xb0
EndSplineSet
KernsSLIF: 261 -33 0 0 256 -33 0 0 225 -33 0 0 65 -33 0 0
EndChar
StartChar: K
Encoding: 75 75 11
Width: 719
Flags: W
HStem: -5 20 0 20 669 20<153.5 166 495.5 507.5> 674 20<27 36.5 288.5 295 382.5 391.5 607.5 612.5>
VStem: 122 90<132 323 367 556>
Fore
256 363 m 1x88
 212 323 l 1
 212 132 l 2
 212 80 214 62 221 50 c 0
 231 34 249 28 288 28 c 0
 312 28 314 26 314 14 c 2
 314 7 l 2
 314 -3 311 -5 297 -5 c 0x88
 286 -5 261 -4 237 -3 c 0
 204 -1 180 0 165 0 c 0x48
 153 0 138 -1 65 -4 c 0
 51 -5 38 -5 31 -5 c 0
 20 -5 17 -2 17 7 c 2
 17 14 l 2
 17 27 17 27 51 28 c 0
 84 28 103 35 113 50 c 0
 120 62 122 80 122 132 c 2
 122 556 l 2
 122 609 120 627 113 639 c 0
 103 655 86 661 50 661 c 0
 20 662 19 662 19 675 c 2
 19 682 l 2
 19 691 22 694 32 694 c 0x98
 41 694 51 694 63 693 c 0
 85 692 148 689 159 689 c 0x28
 173 689 265 692 273 693 c 0
 280 694 287 694 290 694 c 0
 300 694 303 691 303 682 c 2
 303 675 l 2
 303 665 300 662 289 661 c 0
 241 659 232 656 221 639 c 0
 214 627 212 609 212 556 c 2
 212 367 l 1
 271 434 l 1
 402 574 449 629 449 645 c 0
 449 657 429 662 384 662 c 0
 377 662 375 664 375 671 c 2
 375 682 l 2
 375 692 377 694 388 694 c 0x18
 395 694 410 693 440 691 c 0
 468 690 488 689 503 689 c 0x28
 512 689 577 692 589 693 c 0
 597 694 606 694 609 694 c 0
 616 694 619 691 619 684 c 1
 620 673 l 1
 620 662 619 661 591 661 c 0
 531 660 519 653 452 578 c 1
 311 425 l 1
 567 103 l 1
 608 49 641 30 691 27 c 0
 708 27 709 26 709 17 c 2
 709 6 l 2
 709 -3 707 -5 698 -5 c 0x98
 693 -5 681 -5 669 -4 c 0
 652 -3 584 0 574 0 c 0x48
 564 0 545 -1 520 -2 c 0
 480 -4 455 -5 444 -5 c 2
 411 -5 l 2
 392 -5 391 -5 391 7 c 2
 391 17 l 2
 391 27 392 28 406 28 c 2
 434 28 l 2
 473 29 488 34 488 46 c 0
 488 57 484 64 435 128 c 2
 256 363 l 1x88
EndSplineSet
KernsSLIF: 121 -79 0 0 309 -23 0 0 117 -23 0 0 303 -24 0 0 304 -24 0 0 111 -24 0 0 45 -45 0 0 101 -14 0 0 292 5 0 0 241 9 0 0 287 5 0 0 97 5 0 0 84 -28 0 0 83 13 0 0 273 -57 0 0 274 -57 0 0 234 -66 0 0 79 -57 0 0 71 -65 0 0 67 -70 0 0
EndChar
StartChar: L
Encoding: 76 76 12
Width: 608
Flags: W
HStem: -5 20 0 20 669 20<156 174.5> 674 20<32 40.5 303.5 313>
VStem: 124 90<132 175 175 556>
Fore
124 132 m 2x88
 124 556 l 2
 124 619 121 634 109 646 c 0
 95 659 86 661 38 662 c 0
 27 662 23 665 23 675 c 2
 23 682 l 2
 23 691 27 694 37 694 c 0x18
 44 694 53 694 64 693 c 0
 88 691 145 689 167 689 c 0x28
 182 689 246 691 274 693 c 0
 288 694 299 694 308 694 c 0
 318 694 322 691 322 682 c 2
 322 675 l 2
 322 662 322 662 285 661 c 0
 251 661 233 654 223 639 c 0
 216 627 214 609 214 556 c 2
 214 175 l 2
 214 51 235 32 377 32 c 0
 446 32 488 40 504 56 c 0
 511 63 512 66 554 142 c 0
 557 147 561 149 566 149 c 0
 577 149 584 146 584 141 c 0
 584 139 583 136 582 132 c 2
 559 37 l 1
 554 18 549 5 544 0 c 0x58
 540 -4 531 -5 493 -5 c 2x88
 209 0 l 2x48
 201 0 76 -3 70 -4 c 0
 56 -5 46 -5 38 -5 c 0
 28 -5 24 -2 24 7 c 2
 24 14 l 2
 24 27 26 27 53 28 c 0
 87 28 105 35 115 50 c 0
 122 62 124 80 124 132 c 2x88
EndSplineSet
KernsSLIF: 121 -50 0 0 309 -18 0 0 117 -18 0 0 39 -120 0 0 186 -112 0 0 45 34 0 0 89 -91 0 0 87 -104 0 0 86 -107 0 0 279 -37 0 0 85 -37 0 0 84 -75 0 0 83 13 0 0 277 -12 0 0 275 -12 0 0 273 -12 0 0 276 -12 0 0 274 -12 0 0 79 -12 0 0 71 -17 0 0 262 -21 0 0 67 -22 0 0 261 7 0 0 256 7 0 0 257 7 0 0 225 7 0 0 65 7 0 0
EndChar
StartChar: M
Encoding: 77 77 13
Width: 903
Flags: W
HStem: -6 20 -5 20 0 20 661 30 669 20<128 145> 674 20<30.5 37 206 216.5 677 677 852 856.5>
Fore
450 147 m 1x04
 677 694 l 1x04
 711 693 754 691 761 691 c 2x10
 852 694 l 2x04
 861 694 865 690 865 681 c 2
 865 673 l 2
 865 663 863 659 855 659 c 2
 843 660 l 2
 839 661 834 661 829 661 c 0
 778 661 770 648 770 567 c 0
 770 560 770 547 771 528 c 1
 779 108 l 1
 779 41 797 23 866 25 c 0
 879 25 881 23 881 13 c 2
 881 3 l 2
 881 -3 879 -5 872 -5 c 0x50
 870 -5 862 -5 854 -4 c 0
 839 -3 753 0 740 0 c 0x20
 714 0 652 -3 625 -5 c 0x40
 620 -6 614 -6 611 -6 c 0x80
 604 -6 602 -3 602 4 c 2
 602 15 l 2x40
 602 24 602 24 633 26 c 0
 663 26 675 32 688 51 c 1
 692 60 694 70 694 92 c 2
 694 138 l 1
 688 601 l 1
 642 504 l 1
 627 471 606 424 580 365 c 0
 566 334 541 273 528 239 c 1
 440 0 l 1x20
 435 -12 l 1
 432 -23 430 -26 425 -26 c 0
 419 -26 419 -26 402 27 c 0
 398 42 393 56 387 68 c 1
 186 568 l 1
 172 152 l 1
 172 100 l 2
 172 40 185 28 251 27 c 0
 261 27 264 25 264 16 c 2
 264 4 l 2
 264 -3 262 -5 255 -5 c 0x40
 252 -5 247 -5 241 -4 c 0
 228 -3 165 0 147 0 c 0x20
 118 0 55 -3 41 -5 c 0x40
 34 -6 28 -6 24 -6 c 0
 16 -6 12 -2 12 5 c 2
 12 16 l 2
 12 27 12 27 40 27 c 0
 113 30 122 43 126 158 c 1
 142 552 l 1
 142 584 l 2
 142 642 115 662 36 662 c 0
 26 661 23 664 23 673 c 2
 23 683 l 2
 23 691 26 694 35 694 c 0x84
 39 694 44 694 50 693 c 0
 87 691 119 689 137 689 c 0x08
 153 689 165 690 183 692 c 0
 202 694 203 694 209 694 c 0
 224 694 229 688 241 660 c 1
 450 147 l 1x04
EndSplineSet
EndChar
StartChar: N
Encoding: 78 78 14
Width: 848
Flags: W
HStem: -5 20 0 20 669 20<700.5 708.5> 674 20<34.5 75.5 582.5 588.5 815.5 822.5>
VStem: 145 45<132 556 556 578.5> 678 50<144 556>
Fore
728 -31 m 1x1c
 704 -31 l 1
 190 579 l 1
 190 132 l 2
 190 72 193 54 205 43 c 0
 219 30 230 28 279 28 c 0
 290 27 294 24 294 14 c 2
 294 7 l 2
 294 -1 290 -5 281 -5 c 0x8c
 278 -5 277 -5 215 -2 c 0
 190 -1 171 0 168 0 c 0x4c
 161 0 154 0 84 -4 c 0
 69 -5 58 -5 56 -5 c 0
 46 -5 43 -2 43 7 c 2
 43 14 l 2
 43 27 44 27 74 28 c 0
 107 28 126 35 136 50 c 0
 143 62 145 81 145 132 c 2
 145 556 l 2
 145 601 144 604 126 622 c 0
 92 656 81 660 24 661 c 0
 16 661 13 663 13 671 c 2
 13 681 l 2
 13 693 16 694 53 694 c 0
 98 694 160 692 235 688 c 1
 555 274 l 2
 571 254 637 183 678 144 c 1
 678 556 l 2
 678 618 675 634 663 646 c 0
 649 659 641 660 589 662 c 0
 578 662 574 665 574 675 c 2
 574 682 l 2
 574 691 578 694 587 694 c 0x9c
 590 694 592 694 653 691 c 0
 679 690 698 689 703 689 c 0x2c
 714 689 720 689 789 693 c 0
 803 694 813 694 818 694 c 0
 827 694 831 691 831 682 c 2
 831 675 l 2
 831 662 830 662 799 661 c 0
 764 661 747 654 737 639 c 0
 730 627 728 609 728 556 c 2
 728 -31 l 1x1c
EndSplineSet
KernsSLIF: 309 -27 0 0 117 -27 0 0 46 -12 0 0 249 -16 0 0 303 -19 0 0 304 -19 0 0 111 -19 0 0 295 -13 0 0 101 -13 0 0 44 -6 0 0 292 -20 0 0 241 -16 0 0 287 -20 0 0 288 -20 0 0 97 -20 0 0 273 -17 0 0 274 -17 0 0 79 -17 0 0 71 -18 0 0 262 -19 0 0 67 -19 0 0 261 -26 0 0 256 -26 0 0 257 -26 0 0 225 -26 0 0 65 -26 0 0
EndChar
StartChar: O
Encoding: 79 79 15
Width: 848
Flags: MW
HStem: -20 34<349.5 509.5> 675 33<374 491>
VStem: 43 106<265 414> 698 106<255 428.5>
Fore
424 708 m 0
 633 708 804 551 804 359 c 0
 804 151 625 -20 409 -20 c 0
 195 -20 43 126 43 332 c 0
 43 537 216 708 424 708 c 0
409 675 m 0
 339 675 277 650 233 603 c 0
 181 549 149 460 149 368 c 0
 149 162 267 14 432 14 c 0
 587 14 698 146 698 331 c 0
 698 526 573 675 409 675 c 0
EndSplineSet
KernsSLIF: 89 -63 0 0 88 -62 0 0 87 -58 0 0 86 -66 0 0 84 -21 0 0 261 -62 0 0 256 -62 0 0 257 -62 0 0 225 -74 0 0 65 -62 0 0
EndChar
StartChar: P
Encoding: 80 80 16
Width: 590
Flags: W
HStem: -5 20 0 20 304 32<303.5 348.5> 670 38<255 300.5>
VStem: 128 90<132 547 547 583> 444 106<469 524.5>
Fore
218 586 m 2xbc
 218 132 l 2
 218 72 221 54 233 43 c 0
 247 30 258 28 305 28 c 0
 315 27 319 24 319 14 c 2
 319 7 l 2
 319 -2 315 -5 306 -5 c 0x8c
 299 -5 290 -5 279 -4 c 0
 259 -2 194 0 172 0 c 0x4c
 150 0 101 -2 67 -4 c 0
 54 -5 43 -5 35 -5 c 0
 24 -5 21 -2 21 7 c 2
 21 14 l 2
 21 27 21 27 57 28 c 0
 90 28 109 35 119 50 c 0
 126 61 128 81 128 132 c 2
 128 547 l 2
 128 619 126 631 115 643 c 0
 107 653 91 658 68 658 c 0
 57 658 48 657 36 654 c 0
 32 653 29 653 27 653 c 0
 20 653 19 655 18 675 c 0
 18 683 22 685 38 688 c 0
 95 700 194 708 272 708 c 0
 335 708 383 697 429 672 c 0
 504 632 550 564 550 496 c 0
 550 442 520 384 474 349 c 0
 435 320 383 304 325 304 c 0
 278 304 271 306 271 323 c 0
 271 333 274 338 280 338 c 0
 282 338 286 338 290 337 c 0
 295 336 300 336 307 336 c 0
 390 336 444 399 444 497 c 0
 444 552 424 601 388 631 c 0
 362 653 317 670 284 670 c 0
 226 670 218 660 218 586 c 2xbc
EndSplineSet
KernsSLIF: 46 -101 0 0 249 -52 0 0 250 -51 0 0 303 -49 0 0 304 -51 0 0 111 -51 0 0 45 -28 0 0 295 -47 0 0 101 -47 0 0 44 -95 0 0 292 -42 0 0 241 -35 0 0 287 -22 0 0 288 -42 0 0 97 -42 0 0 74 -38 0 0 261 -91 0 0 256 -91 0 0 257 -91 0 0 225 -101 0 0 65 -91 0 0
EndChar
StartChar: Q
Encoding: 81 81 17
Width: 848
Flags: HMWO
HStem: -245 38<750 751> 675 33<372 489>
VStem: 42 106<265 413.5> 695 106<275 428.5>
Fore
1696 -276 m 0
 1696 -282 1684 -290.667 1660 -302 c 0
 1609.33 -326 1548.67 -339 1478 -341 c 2
 1404 -343 l 2
 1327.33 -345 1236.67 -334.667 1132 -312 c 0
 1044.67 -292.667 975 -274 923 -256 c 0
 765 -200 593.667 -129.333 405 -20 c 1
 226 -14 42 104.724 42 327 c 0
 42 492 171.923 708 421 708 c 0
 658.985 708 804 518 801 358 c 0
 797.506 171.66 658 20 532 -8 c 1
 532 -16.667 548.667 -26.333 598 -53 c 0
 787.333 -155.667 1003.33 -236 1170 -276 c 0
 1272.67 -300.667 1382.33 -303 1459 -303 c 0
 1507.67 -303 1544 -302 1594 -290 c 2
 1682 -267 l 1
 1691.33 -267 1696 -270 1696 -276 c 0
407 675 m 0
 337 675 275 650 231 603 c 0
 180 549 148 459 148 368 c 0
 148 162 266 14 430 14 c 0
 585 14 695 146 695 331 c 0
 695 526 571 675 407 675 c 0
EndSplineSet
EndChar
StartChar: R
Encoding: 82 82 18
Width: 701
Flags: W
HStem: -5 20 0 20 341 33<253 279.5> 662 32<26.5 30 308 331.5> 669 20<198 206>
VStem: 128 90<132 339 377 556 556 587> 435 98<483.5 545.5>
Fore
218 339 m 1xa6
 218 132 l 2
 218 71 221 55 233 43 c 0
 247 30 257 28 308 28 c 0
 319 27 323 24 323 14 c 2
 323 7 l 2
 323 -3 319 -5 305 -5 c 0xb6
 296 -5 295 -5 241 -2 c 0
 217 -1 196 0 177 0 c 0x46
 163 0 76 -3 63 -4 c 0
 50 -5 41 -5 33 -5 c 0
 23 -5 20 -2 20 7 c 2
 20 14 l 2
 20 27 20 27 58 28 c 0
 90 28 109 35 119 50 c 0
 126 62 128 79 128 132 c 2
 128 556 l 2
 128 618 125 634 113 646 c 0
 99 659 89 661 32 662 c 0
 21 662 17 665 17 675 c 2
 17 682 l 2
 17 691 21 694 30 694 c 2
 74 693 l 1
 103 692 l 1
 160 690 l 2
 180 689 194 689 202 689 c 0x8e
 210 689 231 690 259 692 c 0
 280 693 299 694 317 694 c 0
 385 694 437 677 477 642 c 0
 512 611 533 567 533 524 c 0
 533 443 478 386 375 359 c 1
 400 348 421 325 456 271 c 2
 561 109 l 2
 601 48 621 34 671 30 c 0
 693 28 694 28 694 17 c 2
 694 5 l 2
 694 -2 689 -5 681 -5 c 0x96
 679 -5 678 -5 641 -2 c 0
 625 -1 611 0 605 0 c 0x46
 596 0 589 -1 580 -2 c 0
 567 -4 557 -5 552 -5 c 0
 525 -5 494 34 423 161 c 0
 335 315 310 341 249 341 c 0
 242 341 242 341 218 339 c 1xa6
218 605 m 2
 218 377 l 1
 232 375 244 374 262 374 c 0
 370 374 435 428 435 518 c 0
 435 605 376 662 287 662 c 0
 261 662 238 657 228 650 c 0
 219 643 218 639 218 605 c 2
EndSplineSet
KernsSLIF: 121 -68 0 0 309 -22 0 0 310 -22 0 0 117 -22 0 0 250 -22 0 0 303 -23 0 0 304 -23 0 0 111 -23 0 0 45 -29 0 0 295 -13 0 0 101 -13 0 0 292 6 0 0 241 10 0 0 287 6 0 0 288 6 0 0 97 6 0 0 89 -68 0 0 87 -75 0 0 86 -82 0 0 279 -68 0 0 85 -68 0 0 84 -53 0 0 273 -55 0 0 274 -55 0 0 234 -58 0 0 79 -55 0 0 71 -57 0 0 262 -58 0 0 67 -58 0 0
EndChar
StartChar: S
Encoding: 83 83 19
Width: 479
Flags: MW
HStem: -20 39<191.5 247> 669 39<233.5 270.5>
VStem: 42 82<526.5 544> 344 93<125.5 184>
Fore
396 666 m 1
 402 564 l 1
 402 556 l 2
 402 547 400 545 391 545 c 2
 381 544 l 1
 378 544 l 2
 365 543 365 543 359 579 c 0
 351 631 300 669 241 669 c 0
 173 669 124 622 124 557 c 0
 124 496 153 465 267 403 c 0
 399 332 437 283 437 185 c 0
 437 66 339 -20 203 -20 c 0
 160 -20 88 -6 60 8 c 0
 50 13 47 21 44 53 c 1
 36 121 l 1
 35 131 34 138 34 138 c 1
 34 143 37 146 44 146 c 2
 55 147 l 1
 57 147 l 2
 62 148 64 145 68 135 c 0
 82 95 88 84 106 65 c 0
 132 36 172 19 211 19 c 0
 283 19 344 79 344 150 c 0
 344 218 313 253 196 320 c 0
 71 391 42 427 42 513 c 0
 42 575 66 627 108 659 c 0
 149 690 205 708 262 708 c 0
 297 708 352 698 382 687 c 0
 393 683 395 680 396 666 c 1
EndSplineSet
KernsSLIF: 116 1 0 0 89 -3 0 0 87 -2 0 0 86 -6 0 0 84 -12 0 0 261 -25 0 0 256 -25 0 0 257 -25 0 0 225 -25 0 0 65 -25 0 0
EndChar
StartChar: T
Encoding: 84 84 20
Width: 682
Flags: W
HStem: -5 20 0 20 656 39<168 193 193 302 396 502 502 515 396 396>
VStem: 304 90<133 597>
Fore
515 656 m 2xb0
 396 656 l 1
 395 642 394 622 394 597 c 2
 394 133 l 2
 394 70 397 54 409 43 c 0
 424 29 431 28 496 28 c 0
 507 27 510 24 510 14 c 2
 510 7 l 2
 510 -2 507 -5 496 -5 c 0xb0
 489 -5 477 -5 463 -4 c 0
 444 -3 364 0 350 0 c 0x50
 336 0 327 0 234 -4 c 2
 200 -5 l 2
 188 -5 185 -2 185 7 c 2
 185 14 l 2
 185 24 189 28 200 27 c 0
 257 26 279 31 292 46 c 0
 302 58 304 76 304 133 c 2
 304 597 l 2
 304 619 303 638 302 656 c 1
 193 656 l 2
 143 656 129 652 110 635 c 0
 95 621 87 607 76 571 c 0
 67 540 65 536 55 536 c 0
 41 536 33 540 33 549 c 0
 33 552 34 561 35 569 c 0
 39 602 41 620 46 719 c 0
 46 735 49 738 60 738 c 0
 74 738 74 738 80 728 c 0
 101 699 110 695 159 695 c 2
 502 695 l 2
 571 695 594 703 620 735 c 0
 627 744 630 746 638 746 c 0
 651 746 658 742 658 735 c 0
 658 731 657 725 655 718 c 0
 645 669 640 631 638 597 c 0
 634 545 634 545 626 545 c 0
 619 545 603 549 599 552 c 1
 597 555 597 555 595 578 c 0
 592 650 585 656 515 656 c 2xb0
EndSplineSet
KernsSLIF: 121 -108 0 0 119 -110 0 0 118 -108 0 0 117 -104 0 0 59 -53 0 0 115 -63 0 0 114 -65 0 0 46 -79 0 0 249 -76 0 0 111 -100 0 0 106 -12 0 0 105 -18 0 0 45 -62 0 0 172 -105 0 0 171 -104 0 0 103 -75 0 0 101 -92 0 0 44 -75 0 0 58 -59 0 0 99 -92 0 0 241 -71 0 0 97 -75 0 0 89 22 0 0 87 22 0 0 86 19 0 0 83 -3 0 0 277 -35 0 0 233 -35 0 0 275 -35 0 0 273 -35 0 0 276 -35 0 0 274 -35 0 0 234 -34 0 0 79 -35 0 0 74 6 0 0 71 -35 0 0 67 -36 0 0 260 -52 0 0 261 -52 0 0 258 -52 0 0 256 -52 0 0 259 -52 0 0 257 -52 0 0 225 -52 0 0 65 -52 0 0
EndChar
StartChar: U
Encoding: 85 85 21
Width: 812
Flags: W
HStem: -20 57<369.5 460> 669 20<170.5 186.5 669 669> 674 20
VStem: 132 90<248.5 295 295 556> 642 49<303 552 552 568>
Fore
222 556 m 2x38
 222 295 l 2
 222 202 223 190 232 157 c 0
 253 78 318 37 421 37 c 0
 499 37 565 65 600 113 c 0
 630 155 642 210 642 303 c 2
 642 552 l 2
 642 632 641 638 627 649 c 0
 617 658 600 661 564 662 c 0
 554 662 551 665 551 674 c 2
 551 682 l 2
 551 691 554 694 561 694 c 2xb8
 581 693 l 1
 669 689 l 1x58
 785 694 l 2
 792 694 795 691 795 684 c 2
 795 672 l 2
 795 663 793 662 775 662 c 0
 696 661 689 653 691 568 c 1
 691 258 l 2
 691 77 593 -20 410 -20 c 0
 314 -20 235 6 188 52 c 0
 148 91 132 140 132 221 c 2
 132 556 l 2
 132 617 129 634 117 646 c 0
 103 659 92 661 40 661 c 0
 29 661 25 665 25 675 c 2
 25 682 l 2
 25 691 29 694 39 694 c 2xb8
 68 693 l 2
 82 692 162 689 179 689 c 0x58
 194 689 269 692 286 693 c 2
 319 694 l 2
 329 694 332 691 332 682 c 2
 332 675 l 2
 332 661 332 661 293 661 c 0
 260 661 241 654 231 639 c 0
 224 628 222 607 222 556 c 2x38
EndSplineSet
KernsSLIF: 114 -43 0 0 46 -31 0 0 112 -30 0 0 110 -38 0 0 109 -36 0 0 44 -24 0 0 260 -74 0 0 261 -74 0 0 256 -74 0 0 259 -74 0 0 257 -74 0 0 225 -74 0 0 65 -74 0 0
EndChar
StartChar: V
Encoding: 86 86 22
Width: 719
Flags: W
HStem: -20 20 669 20<151.5 170 581.5 602.5> 674 20
Fore
350 6 m 1xa0
 113 595 l 1
 93 650 83 657 25 660 c 0
 17 661 15 663 15 671 c 2
 15 683 l 2
 15 691 17 694 25 694 c 0x20
 28 694 36 694 44 693 c 0
 55 692 143 689 160 689 c 0x40
 180 689 253 692 263 693 c 0
 269 694 275 694 277 694 c 0
 284 694 286 692 286 684 c 2
 286 674 l 2
 286 663 286 663 266 662 c 0
 224 660 205 652 205 637 c 0
 205 630 205 630 226 563 c 0
 241 516 241 516 308 353 c 0
 317 329 326 307 335 285 c 0
 344 262 340 273 349 250 c 0
 376 180 393 144 397 145 c 0
 399 145 402 151 407 167 c 1
 539 527 l 2
 566 600 570 611 570 628 c 0
 570 651 559 656 488 660 c 0
 479 661 477 663 477 672 c 1
 478 683 l 1
 478 692 479 694 487 694 c 0x20
 491 694 498 694 505 693 c 0
 524 691 571 689 592 689 c 0x40
 613 689 658 691 677 693 c 0
 684 694 691 694 695 694 c 0
 703 694 705 692 705 683 c 2
 705 672 l 2
 705 662 704 661 684 661 c 0
 648 659 640 654 626 619 c 2
 607 572 l 1
 597 548 l 2
 585 521 574 495 564 468 c 2
 389 4 l 1
 380 -18 379 -20 370 -20 c 0
 362 -20 360 -17 350 6 c 1xa0
EndSplineSet
KernsSLIF: 121 -51 0 0 117 -54 0 0 59 -42 0 0 114 -82 0 0 46 -94 0 0 249 -80 0 0 111 -84 0 0 105 -9 0 0 45 -42 0 0 172 -83 0 0 171 -87 0 0 103 -80 0 0 101 -76 0 0 44 -87 0 0 58 -44 0 0 241 -82 0 0 97 -86 0 0 84 14 0 0 83 -18 0 0 277 -55 0 0 233 -48 0 0 275 -55 0 0 273 -55 0 0 276 -55 0 0 274 -55 0 0 79 -55 0 0 71 -60 0 0 67 -62 0 0 260 -113 0 0 261 -113 0 0 258 -113 0 0 256 -113 0 0 259 -113 0 0 257 -113 0 0 225 -127 0 0 65 -113 0 0
EndChar
StartChar: W
Encoding: 87 87 23
Width: 977
Flags: W
HStem: -19 20 669 20<116 119 372.5 395.5 645 654 868 883.5> 673 20 674 20
Fore
393 109 m 1x20
 483 315 l 1
 366 587 l 1
 342 646 330 658 296 661 c 0
 278 663 277 663 277 672 c 2
 277 683 l 2
 277 691 280 694 288 694 c 2x10
 305 693 l 2x20
 320 691 361 689 384 689 c 0x40
 407 689 461 691 485 693 c 0x20
 489 694 493 694 495 694 c 0x10
 502 694 505 691 505 683 c 2
 505 673 l 2x20
 505 664 504 663 488 662 c 0
 461 661 446 653 446 640 c 0
 446 618 501 476 532 416 c 1
 589 548 l 2
 609 593 617 618 617 634 c 0
 617 650 604 659 579 661 c 0
 563 661 562 662 562 672 c 2
 562 683 l 2
 562 691 564 694 572 694 c 0x10
 575 694 582 694 588 693 c 0x20
 604 691 640 689 650 689 c 0x40
 658 689 687 691 711 693 c 0x20
 716 694 722 694 725 694 c 0
 733 694 735 691 735 682 c 2
 735 675 l 2
 735 664 734 663 715 663 c 1
 685 660 673 647 651 594 c 1
 551 366 l 1
 660 121 l 1
 829 576 l 2
 844 616 846 622 846 633 c 0
 846 648 834 657 809 660 c 0
 792 662 791 663 791 674 c 2x10
 791 683 l 2
 791 690 794 693 801 693 c 0x20
 804 693 809 693 815 692 c 0
 828 691 860 689 876 689 c 0x40
 891 689 939 692 951 693 c 0x20
 954 694 957 694 959 694 c 0x10
 965 694 968 690 968 682 c 2
 968 672 l 2
 968 663 964 660 951 658 c 1
 907 646 900 635 864 540 c 1
 698 109 l 2
 682 67 682 67 659 -19 c 1
 622 -19 l 1
 610 14 l 1
 604 29 598 45 593 60 c 0
 584 82 575 104 565 125 c 1
 502 267 l 1
 431 100 l 1
 408 48 l 2
 401 31 395 15 389 -1 c 1
 381 -19 l 1
 347 -19 l 1
 299 119 248 245 183 390 c 1
 90 595 l 1
 68 645 60 653 17 660 c 0
 10 661 9 664 9 673 c 2xa0
 9 683 l 2
 9 691 12 694 19 694 c 0x10
 24 694 32 694 41 693 c 0x20
 60 691 113 689 119 689 c 0x40
 169 691 169 691 193 693 c 2
 210 693 l 1x20
 221 694 l 2x10
 227 694 230 691 230 683 c 2
 230 673 l 2
 230 665 228 663 221 663 c 0
 190 662 178 656 178 641 c 0
 178 633 178 633 204 569 c 2
 393 109 l 1x20
EndSplineSet
KernsSLIF: 121 -42 0 0 117 -45 0 0 59 -35 0 0 114 -74 0 0 46 -86 0 0 249 -72 0 0 111 -76 0 0 105 -6 0 0 45 -35 0 0 172 -80 0 0 171 -79 0 0 103 -73 0 0 101 -74 0 0 44 -79 0 0 58 -36 0 0 241 -76 0 0 97 -82 0 0 84 17 0 0 83 -11 0 0 277 -48 0 0 233 -41 0 0 275 -48 0 0 273 -48 0 0 276 -48 0 0 274 -48 0 0 79 -48 0 0 71 -48 0 0 67 -54 0 0 260 -105 0 0 261 -105 0 0 258 -105 0 0 256 -105 0 0 259 -105 0 0 257 -105 0 0 225 -118 0 0 65 -105 0 0
EndChar
StartChar: X
Encoding: 88 88 24
Width: 756
Flags: W
HStem: -5 20 0 20 669 20<176 194.5 590.5 603.5> 674 20<25 33 302.5 308.5 479 489 709 714>
Fore
388 405 m 1x10
 469 512 l 2
 516 574 543 619 543 635 c 0
 543 645 536 653 523 657 c 0
 514 660 511 660 480 662 c 0
 474 662 471 664 471 670 c 2
 471 681 l 2
 471 691 474 694 484 694 c 0x10
 494 694 496 694 545 691 c 0
 567 690 585 689 596 689 c 0x20
 611 689 686 692 695 693 c 0
 702 694 708 694 710 694 c 0
 718 694 721 691 721 684 c 2
 721 675 l 2
 721 662 721 662 695 660 c 0
 640 658 615 641 565 574 c 2
 411 371 l 1
 549 176 l 2
 651 33 653 32 716 30 c 0
 736 30 739 29 739 19 c 2
 739 6 l 2
 739 -2 736 -5 728 -5 c 0x90
 725 -5 717 -5 709 -4 c 0
 698 -3 608 0 592 0 c 2x40
 468 -4 l 2
 459 -5 451 -5 446 -5 c 0x80
 436 -5 432 -1 432 9 c 2
 432 20 l 2x40
 432 30 434 31 458 31 c 0
 498 30 515 35 515 48 c 0
 515 58 497 88 454 150 c 2
 354 294 l 1
 289 209 l 2
 232 133 193 71 193 55 c 0
 193 38 208 32 247 31 c 0
 272 31 273 30 273 21 c 2
 273 9 l 2
 273 -2 271 -5 262 -5 c 0x80
 257 -5 250 -5 241 -4 c 0
 236 -3 147 0 140 0 c 0x40
 122 0 56 -3 46 -4 c 0
 39 -5 33 -5 30 -5 c 0
 22 -5 19 -2 19 9 c 2
 19 19 l 2
 19 27 21 28 31 29 c 0
 96 34 112 42 148 92 c 1
 329 327 l 1
 229 468 l 2
 213 491 196 514 179 538 c 0
 162 560 147 581 131 602 c 1
 98 651 92 654 30 659 c 0
 19 659 17 662 17 671 c 2
 17 683 l 2
 17 691 20 694 30 694 c 0x90
 36 694 49 694 62 693 c 0
 86 692 168 689 184 689 c 0x20
 205 689 276 692 287 693 c 0
 294 694 301 694 304 694 c 0
 313 694 316 691 316 681 c 2
 316 672 l 2
 316 659 316 659 285 659 c 0
 242 658 225 653 225 642 c 0
 225 635 229 629 251 600 c 1
 388 405 l 1x10
EndSplineSet
KernsSLIF: 121 -83 0 0 117 -27 0 0 111 -28 0 0 45 -39 0 0 101 -18 0 0 97 1 0 0 81 -61 0 0 273 -60 0 0 79 -60 0 0 67 -73 0 0
EndChar
StartChar: Y
Encoding: 89 89 25
Width: 719
Flags: W
HStem: -5 20 0 20 669 20<145.5 172 594 608> 674 20<16.5 24.5 283 290.5 489.5 494 699 702.5>
VStem: 324 90<132 289 289 307.5>
Fore
414 341 m 1x18
 414 132 l 2
 414 71 417 55 429 43 c 0
 443 30 453 28 508 28 c 0
 519 27 523 24 523 14 c 2
 523 7 l 2
 523 -2 519 -5 509 -5 c 0x88
 501 -5 491 -5 478 -4 c 0
 457 -2 388 0 369 0 c 0x48
 350 0 280 -2 260 -4 c 0
 247 -5 238 -5 230 -5 c 0
 220 -5 216 -2 216 7 c 2
 216 14 l 2
 216 27 216 27 253 28 c 0
 286 28 305 35 315 50 c 0
 322 62 324 81 324 132 c 2
 324 289 l 2
 324 326 322 332 302 360 c 2
 117 613 l 2
 85 656 74 662 19 662 c 0
 11 662 9 664 9 673 c 2
 9 683 l 2
 9 691 12 694 21 694 c 0x98
 28 694 36 694 45 693 c 0
 78 691 134 689 157 689 c 0x28
 187 689 190 689 263 693 c 0
 271 694 280 694 286 694 c 0
 295 694 298 691 298 682 c 2
 298 673 l 2
 298 661 296 660 275 660 c 0
 233 661 211 655 211 643 c 0
 211 638 213 634 224 619 c 2
 234 605 l 1
 355 436 l 2
 369 417 383 400 395 387 c 1
 413 406 426 424 463 474 c 2
 515 546 l 2
 554 599 569 626 569 641 c 0
 569 656 553 662 513 662 c 0
 482 662 482 662 482 673 c 2
 482 681 l 2
 482 691 485 694 494 694 c 2x18
 519 693 l 2
 537 691 587 689 601 689 c 0x28
 615 689 657 691 675 693 c 2
 699 694 l 2
 706 694 709 691 709 684 c 2
 709 672 l 2
 709 662 708 661 686 661 c 0
 650 661 638 651 593 589 c 2
 414 341 l 1x18
EndSplineSet
KernsSLIF: 118 -88 0 0 117 -91 0 0 59 -63 0 0 46 -91 0 0 112 -100 0 0 249 -88 0 0 111 -104 0 0 105 -7 0 0 45 -70 0 0 172 -109 0 0 171 -108 0 0 103 -87 0 0 101 -101 0 0 44 -87 0 0 58 -64 0 0 241 -83 0 0 97 -87 0 0 84 16 0 0 83 -16 0 0 277 -68 0 0 233 -66 0 0 275 -68 0 0 273 -68 0 0 276 -68 0 0 274 -68 0 0 79 -68 0 0 71 -68 0 0 67 -69 0 0 260 -64 0 0 261 -64 0 0 258 -64 0 0 256 -64 0 0 259 -64 0 0 257 -64 0 0 225 -64 0 0 65 -64 0 0
EndChar
StartChar: Z
Encoding: 90 90 26
Width: 664
Flags: W
HStem: -5 20 0 33<321.5 351.5> 658 33<264.5 342.5> 676 20<560 589.5>
Fore
43 19 m 1x80
 290 371 l 1
 476 638 476 638 476 647 c 0
 476 656 468 658 427 658 c 2
 250 658 l 2
 160 658 147 650 101 564 c 0
 90 543 88 541 83 541 c 0
 72 541 59 549 59 555 c 0
 59 559 59 559 69 606 c 1
 96 720 l 2
 100 738 101 739 111 739 c 2
 121 739 l 2
 129 739 130 739 133 731 c 0
 145 702 198 691 331 691 c 0x20
 354 691 360 691 510 695 c 0
 536 696 555 696 565 696 c 0
 614 696 624 694 624 687 c 0
 624 684 624 684 611 665 c 2
 367 319 l 2
 252 155 241 139 206 86 c 2
 194 67 l 2
 181 48 179 45 179 41 c 0
 179 35 185 33 205 33 c 2
 380 33 l 2x50
 480 33 506 43 545 100 c 1
 581 150 l 2
 586 158 589 161 591 161 c 0
 592 161 593 161 598 159 c 2
 608 155 l 2
 616 152 618 150 618 146 c 0
 618 143 618 143 616 137 c 2
 614 130 l 1
 584 19 l 2
 578 -3 576 -5 565 -5 c 2x80
 529 -4 l 2
 495 -3 368 0 335 0 c 0x40
 308 0 278 0 235 -1 c 2
 126 -3 l 1
 65 -4 l 2
 57 -5 50 -5 47 -5 c 0
 37 -5 33 -3 33 3 c 0
 33 7 35 11 39 15 c 2
 43 19 l 1x80
EndSplineSet
KernsSLIF: 121 -63 0 0 118 -58 0 0
EndChar
StartChar: bracketleft
Encoding: 91 91 172
Width: 295
Flags: MW
HStem: -199 33<190 246> 661 33<174 207 207 246>
VStem: 32 64<-66 561>
Fore
96 561 m 1
 96 -66 l 1
 97 -129 97 -131 109 -144 c 0
 123 -161 143 -166 190 -166 c 2
 246 -166 l 2
 264 -166 264 -166 264 -176 c 2
 264 -188 l 2
 264 -199 264 -199 246 -199 c 2
 57 -199 l 2
 37 -199 35 -199 34 -197 c 1
 32 -196 32 -196 32 -172 c 2
 32 667 l 2
 32 691 32 691 34 693 c 0
 36 694 38 694 57 694 c 2
 246 694 l 2
 264 694 264 694 264 683 c 2
 264 671 l 2
 264 661 264 661 246 661 c 2
 207 661 l 2
 141 661 125 657 109 639 c 0
 97 625 97 624 96 561 c 1
EndSplineSet
EndChar
StartChar: backslash
Encoding: 92 92 205
Width: 480
Flags: MW
HStem: -18 20
Fore
389 -6 m 2
 28 749 l 2
 26 754 24 759 24 762 c 0
 24 766 29 769 37 769 c 2
 76 769 l 2
 85 769 87 767 94 752 c 2
 450 4 l 2
 453 -2 455 -8 455 -11 c 0
 455 -15 451 -18 445 -18 c 2
 409 -18 l 2
 399 -18 393 -15 389 -6 c 2
EndSplineSet
EndChar
StartChar: bracketright
Encoding: 93 93 173
Width: 295
Flags: MW
HStem: -199 33<50 89 89 122> 661 33<50 106>
VStem: 200 64<-66 561 561 561>
Fore
200 -66 m 1
 200 561 l 1
 199 624 199 626 187 639 c 0
 173 656 153 661 106 661 c 2
 50 661 l 2
 32 661 32 661 32 671 c 2
 32 683 l 2
 32 694 32 694 50 694 c 2
 239 694 l 2
 259 694 261 694 262 692 c 1
 264 691 264 691 264 667 c 2
 264 -172 l 2
 264 -196 264 -196 262 -198 c 0
 260 -199 258 -199 239 -199 c 2
 50 -199 l 2
 32 -199 32 -199 32 -188 c 2
 32 -176 l 2
 32 -166 32 -166 50 -166 c 2
 89 -166 l 2
 155 -166 171 -162 187 -144 c 0
 199 -131 199 -129 200 -66 c 1
EndSplineSet
EndChar
StartChar: asciicircum
Encoding: 94 94 240
Width: 498
Flags: W
Fore
451 530 m 1
 451 485 l 1
 369 493 310 521 263 573 c 1
 258 577 254 582 250 586 c 1
 245 582 241 578 236 573 c 0
 189 521 130 493 48 485 c 1
 48 530 l 1
 138 575 215 673 220 750 c 1
 279 750 l 1
 284 674 360 576 451 530 c 1
EndSplineSet
EndChar
StartChar: underscore
Encoding: 95 95 243
Width: 498
Flags: MW
HStem: -250 51<-1 499>
Fore
-1 -199 m 1
 499 -199 l 1
 499 -250 l 1
 -1 -250 l 1
 -1 -199 l 1
EndSplineSet
EndChar
StartChar: quoteleft
Encoding: 96 8216 153
Width: 276
Flags: MW
HStem: 684 20
VStem: 53 55
Fore
193 697 m 2
 198 684 l 2
 199 681 199 679 199 677 c 0
 199 673 197 671 191 669 c 0
 135 646 108 620 108 589 c 0
 108 580 114 569 123 562 c 0
 127 558 127 558 155 548 c 0
 182 538 198 520 198 498 c 0
 198 469 173 448 140 448 c 0
 91 448 53 494 53 555 c 0
 53 600 77 642 119 670 c 0
 146 688 177 704 185 704 c 0
 189 704 191 702 193 697 c 2
EndSplineSet
KernsSLIF: 86 -3 1 0 84 -17 1 0 261 -89 1 0 256 -89 1 0 257 -89 1 0 225 -170 1 0 65 -89 1 0
EndChar
StartChar: a
Encoding: 97 97 62
Width: 424
Flags: W
HStem: -20 50 -20 64<358.5 362> 418 20<209 209>
VStem: 39 81<83 112> 51 64 269 69<98 117 117 202 202 202 231 263 263 271>
Fore
405 73 m 1x6c
 423 66 l 1
 408 5 383 -20 341 -20 c 0x54
 297 -20 271 12 271 67 c 1
 191 -8 170 -20 126 -20 c 0
 81 -20 39 35 39 92 c 0x94
 39 132 61 148 166 190 c 2
 269 231 l 1
 269 282 l 2
 269 323 265 338 252 353 c 0
 240 366 217 374 189 374 c 0
 144 374 115 359 115 336 c 0
 115 330 116 326 119 315 c 1
 57 280 l 1
 52 293 51 299 51 307 c 0
 51 337 70 359 126 391 c 2
 209 438 l 1
 313 435 342 398 338 271 c 1
 338 263 l 1
 338 117 l 1
 338 98 l 2
 338 61 348 44 369 44 c 0
 384 44 392 50 405 73 c 1x6c
269 202 m 1
 193 168 l 2
 133 141 120 129 120 102 c 0
 120 64 141 30 166 30 c 0x94
 193 30 210 41 261 90 c 1
 263 93 266 96 269 98 c 1
 269 202 l 1
EndSplineSet
KernsSLIF: 121 -20 0 0 119 -22 0 0 118 -19 0 0 39 -26 0 0 106 -10 0 0
EndChar
StartChar: b
Encoding: 98 98 63
Width: 535
Flags: MW
HStem: -20 36<261.5 322> 388 50<283.5 306>
VStem: 84 76<139.5 175 175 349 377 597 597 631.5> 417 81<159 256.5>
Fore
160 669 m 1
 160 377 l 1
 223 423 259 438 308 438 c 0
 414 438 498 344 498 225 c 0
 498 93 393 -20 270 -20 c 0
 239 -20 216 -15 187 -1 c 0
 158 13 153 15 141 15 c 0
 125 15 123 14 107 -8 c 2
 102 -15 l 1
 82 -15 l 1
 84 19 84 38 84 63 c 2
 84 597 l 2
 84 666 83 668 32 695 c 1
 30 708 l 1
 96 740 l 2
 127 754 136 759 155 769 c 1
 162 767 l 1
 161 749 l 1
 160 669 l 1
160 349 m 1
 160 175 l 2
 160 104 163 91 185 62 c 0
 208 33 242 16 281 16 c 0
 363 16 417 90 417 202 c 0
 417 311 352 388 260 388 c 0
 221 388 189 375 160 349 c 1
EndSplineSet
KernsSLIF: 121 -22 0 0 119 -24 0 0 118 -21 0 0
EndChar
StartChar: c
Encoding: 99 99 64
Width: 424
Flags: MW
HStem: -20 64<213.5 254.5> 405 33<196.5 241.5>
VStem: 31 74<185.5 259>
Fore
390 123 m 1
 405 102 l 1
 337 10 292 -20 217 -20 c 0
 112 -20 31 71 31 191 c 0
 31 327 134 438 259 438 c 0
 330 438 389 401 389 356 c 0
 389 334 371 317 349 317 c 0
 329 317 326 320 294 363 c 0
 270 395 255 405 228 405 c 0
 162 405 105 328 105 241 c 0
 105 130 171 44 256 44 c 0
 306 44 332 59 390 123 c 1
EndSplineSet
KernsSLIF: 107 -21 0 0 104 -19 0 0
EndChar
StartChar: d
Encoding: 100 100 65
Width: 516
Flags: MW
HStem: -20 57<216.5 237> 405 33<230 269.5>
VStem: 33 81<171 246.5> 368 76<94 133 133 270 270 292.5 417 597 597 608>
Fore
368 417 m 1
 368 597 l 2
 368 666 367 668 316 695 c 1
 314 708 l 1
 380 740 l 2
 413 755 415 756 439 769 c 1
 446 767 l 1
 445 751 445 698 444 608 c 1
 444 133 l 2
 444 55 445 50 465 50 c 0
 474 50 478 51 507 58 c 1
 509 54 509 51 509 46 c 0
 509 39 509 37 507 32 c 1
 369 -20 l 1
 365 -4 l 1
 368 56 l 1
 296 -4 262 -20 212 -20 c 0
 113 -20 33 72 33 187 c 0
 33 326 138 438 269 438 c 0
 300 438 324 433 368 417 c 1
368 92 m 1
 368 270 l 2
 368 315 363 334 345 358 c 0
 323 388 289 405 250 405 c 0
 210 405 177 388 155 357 c 0
 129 321 114 270 114 223 c 0
 114 119 177 37 256 37 c 0
 297 37 331 54 368 92 c 1
EndSplineSet
EndChar
StartChar: e
Encoding: 101 101 66
Width: 424
Flags: MW
HStem: -20 64<219.5 251.5> 406 32<207.5 249>
VStem: 31 74<174 219>
Fore
391 259 m 1
 108 259 l 1
 106 240 105 232 105 221 c 0
 105 127 178 44 261 44 c 0
 299 44 329 60 375 102 c 1
 392 89 l 1
 342 15 286 -20 217 -20 c 0
 113 -20 31 72 31 190 c 0
 31 248 51 309 87 357 c 0
 126 410 178 438 237 438 c 0
 293 438 342 412 369 369 c 0
 385 343 391 317 391 274 c 2
 391 259 l 1
113 282 m 1
 243 285 l 2
 281 286 287 287 297 294 c 1
 304 301 309 312 309 324 c 0
 309 369 272 406 226 406 c 0
 172 406 131 361 113 282 c 1
EndSplineSet
KernsSLIF: 121 -3 0 0 120 -7 0 0 119 -5 0 0 118 -3 0 0 116 2 0 0 39 -3 0 0
EndChar
StartChar: f
Encoding: 102 102 67
Width: 314
Flags: W
HStem: -7 20 0 20 380 45<44 106 182 276> 720 49<232.5 237.5>
VStem: 106 76<133 380 425 492 492 573>
Fore
182 380 m 1xb8
 182 133 l 1
 183 65 l 1
 184 32 197 24 251 22 c 0
 263 21 267 19 267 12 c 2
 267 5 l 2
 267 -5 264 -7 250 -7 c 0xa8
 237 -7 216 -6 196 -4 c 0
 174 -1 157 0 145 0 c 0x48
 133 0 115 -1 92 -3 c 0
 65 -6 52 -7 40 -7 c 0
 26 -7 24 -5 24 5 c 2
 24 12 l 2
 24 19 27 21 40 22 c 0
 80 24 94 29 102 44 c 0
 104 50 105 57 106 72 c 1
 106 133 l 1
 106 380 l 1
 44 380 l 2
 25 380 24 381 24 392 c 2
 24 413 l 2
 24 424 25 425 44 425 c 2
 106 425 l 1
 106 492 l 2
 106 654 180 769 285 769 c 0
 321 769 345 753 345 728 c 0
 345 706 330 687 312 687 c 0
 303 687 299 689 277 702 c 0
 256 714 243 720 232 720 c 0
 212 720 197 707 190 680 c 0
 183 658 182 649 182 589 c 2
 182 425 l 1
 276 425 l 2
 301 425 301 425 301 413 c 2
 301 392 l 2
 301 380 301 380 276 380 c 2
 182 380 l 1xb8
EndSplineSet
KernsSLIF: 116 23 0 0 115 -3 0 0 39 11 0 0 249 -17 0 0 250 -27 0 0 303 -27 0 0 304 -27 0 0 111 -27 0 0 108 26 0 0 106 10 0 0 105 5 0 0 102 17 0 0 295 -24 0 0 101 -24 0 0 292 -17 0 0 241 -13 0 0 287 -17 0 0 288 -17 0 0 97 -17 0 0
EndChar
StartChar: g
Encoding: 103 103 68
Width: 461
Flags: W
HStem: -268 33<200.5 279> -35 74<298 314> 353 45<373 427> 412 26<175.5 224>
VStem: 41 74<268 325.5> 52 70 298 74<274.5 314> 377 66<-139 -93>
Fore
54 80 m 1xf7
 149 151 l 1
 80 174 41 223 41 286 c 0xfb
 41 365 122 438 209 438 c 0
 239 438 284 426 313 411 c 0
 338 398 338 398 373 398 c 2
 427 398 l 2
 453 398 453 398 453 385 c 2
 453 370 l 2
 453 354 452 353 427 353 c 2
 363 353 l 1
 370 333 372 323 372 305 c 0
 372 244 338 192 279 163 c 0
 249 148 226 144 181 144 c 1
 140 125 122 104 122 76 c 0
 122 50 153 33 201 33 c 0
 207 33 215 33 223 34 c 0
 264 37 296 39 300 39 c 0
 338 39 378 25 405 1 c 1
 431 -20 443 -49 443 -88 c 0
 443 -190 349 -268 225 -268 c 0
 154 -268 89 -243 60 -206 c 1
 44 -183 39 -164 39 -110 c 1
 140 -38 l 1
 82 -26 52 7 52 59 c 0
 52 67 52 71 54 80 c 1xf7
202 412 m 0
 149 412 115 370 115 306 c 0
 115 230 157 171 211 171 c 0
 260 171 298 220 298 284 c 0
 298 355 255 412 202 412 c 0
178 -40 m 1
 151 -59 l 2
 116 -83 107 -96 107 -124 c 0
 107 -187 163 -235 238 -235 c 0
 320 -235 377 -188 377 -120 c 0
 377 -66 343 -35 285 -35 c 0
 274 -35 256 -36 236 -37 c 0
 216 -39 193 -40 178 -40 c 1
EndSplineSet
KernsSLIF: 114 3 0 0 303 -10 0 0 304 -10 0 0 295 -6 0 0 101 -6 0 0 241 6 0 0
EndChar
StartChar: h
Encoding: 104 104 69
Width: 553
Flags: W
HStem: -7 20 0 20 380 58<321.5 324.5>
VStem: 105 76<133 327 358 597 597 613> 391 76<91 133 133 269 269 290>
Fore
181 327 m 1xb8
 181 133 l 1
 182 58 l 1
 183 35 197 26 236 22 c 0
 248 21 252 19 252 12 c 2
 252 5 l 2
 252 -4 249 -7 239 -7 c 0x98
 234 -7 226 -6 199 -4 c 0
 176 -1 157 0 143 0 c 0x58
 128 0 110 -1 88 -3 c 0
 61 -6 51 -7 42 -7 c 0x98
 31 -7 28 -4 28 5 c 2
 28 12 l 2
 28 20 32 21 50 22 c 0
 72 22 93 31 99 41 c 0
 105 50 105 56 105 133 c 2
 105 597 l 2
 105 666 104 668 53 695 c 1
 51 708 l 1
 117 740 l 2
 148 755 156 758 176 769 c 1
 183 767 l 1
 182 750 182 699 181 613 c 1
 181 358 l 1
 268 425 294 438 349 438 c 0
 387 438 420 424 440 400 c 0
 460 376 467 347 467 293 c 2
 467 133 l 2
 467 49 467 45 477 36 c 0
 483 30 502 23 522 20 c 0x78
 525 20 528 16 528 12 c 2
 528 5 l 2
 528 -3 525 -7 518 -7 c 0x98
 517 -7 515 -7 512 -6 c 0
 503 -5 440 0 427 0 c 0x58
 414 0 397 -1 373 -4 c 0
 345 -6 338 -7 332 -7 c 0
 323 -7 320 -4 320 5 c 2
 320 12 l 2
 320 19 323 20 336 22 c 0
 368 25 381 32 387 45 c 0
 389 50 390 58 391 73 c 1
 391 133 l 1
 391 269 l 2
 391 311 388 329 379 345 c 0
 367 367 341 380 308 380 c 0
 263 380 224 364 181 327 c 1xb8
EndSplineSet
KernsSLIF: 121 -22 0 0 39 -28 0 0
EndChar
StartChar: i
Encoding: 105 105 70
Width: 276
Flags: W
HStem: -7 20 0 20 420 20<175 175> 621 112<123.5 154.5>
VStem: 83 112<662 692.5> 104 76<133 267 267 285>
Fore
52 365 m 1x84
 50 378 l 1
 116 410 l 2
 154 428 158 430 175 440 c 1
 182 437 l 1
 181 409 l 1
 181 361 l 1
 180 285 l 1
 180 133 l 1
 181 65 l 1
 181 36 192 27 235 22 c 0
 247 21 251 19 251 12 c 2
 251 5 l 2
 251 -4 248 -7 240 -7 c 0xb4
 235 -7 235 -7 204 -4 c 0
 183 -1 161 0 139 0 c 0x44
 110 0 101 -1 54 -6 c 0
 50 -7 44 -7 40 -7 c 0
 31 -7 28 -4 28 5 c 2
 28 12 l 2
 28 19 31 21 44 22 c 0
 77 24 95 31 100 45 c 0
 102 50 103 58 104 73 c 1
 104 133 l 1
 104 267 l 2
 104 336 102 339 52 365 c 1x84
139 733 m 0
 170 733 195 708 195 677 c 0
 195 646 170 621 139 621 c 0
 108 621 83 646 83 678 c 0xb8
 83 708 108 733 139 733 c 0
EndSplineSet
KernsSLIF: 106 -22 0 0 84 -22 0 0
EndChar
StartChar: j
Encoding: 106 106 71
Width: 258
Flags: W
HStem: 420 20<162 162> 621 112<109.5 140.5>
VStem: 69 112<662 692.5> 91 76<-12 48 48 267 267 301.5>
Fore
39 365 m 1xd0
 37 378 l 1
 103 410 l 2
 141 428 144 429 162 440 c 1
 169 437 l 1
 168 425 168 384 167 315 c 1
 167 48 l 2
 167 -79 155 -123 108 -175 c 0
 85 -201 77 -208 28 -246 c 0
 20 -253 13 -258 8 -262 c 1
 -6 -236 l 1
 84 -149 91 -134 91 -12 c 2
 91 267 l 2
 91 336 89 339 39 365 c 1xd0
125 733 m 0xe0
 156 733 181 708 181 677 c 0
 181 646 156 621 125 621 c 0
 94 621 69 646 69 678 c 0
 69 708 94 733 125 733 c 0xe0
EndSplineSet
EndChar
StartChar: k
Encoding: 107 107 72
Width: 553
Flags: W
HStem: -7 20 0 20 401 20<365.5 390> 407 20<277 281.5 481.5 487>
VStem: 100 76<133 197 231 597 597 631.5>
Fore
231 236 m 1x88
 176 197 l 1
 176 133 l 2
 176 56 176 50 182 41 c 0
 188 31 208 23 231 22 c 0
 243 21 247 19 247 12 c 2
 247 5 l 2
 247 -4 244 -7 234 -7 c 0x88
 229 -7 221 -6 193 -4 c 0
 171 -1 152 0 138 0 c 0x48
 124 0 106 -1 82 -4 c 0
 52 -7 47 -7 41 -7 c 0
 32 -7 29 -4 29 5 c 2
 29 12 l 2
 29 19 32 21 45 22 c 0
 69 24 90 32 94 41 c 0
 98 47 99 52 99 65 c 1
 100 133 l 1
 100 597 l 2
 100 666 99 668 48 695 c 1
 46 708 l 1
 112 740 l 2
 142 754 145 755 157 762 c 0
 162 764 167 767 171 769 c 1
 178 767 l 1
 177 740 l 1
 176 633 l 1
 176 231 l 1
 217 261 252 290 293 327 c 0
 328 359 334 367 334 379 c 0
 334 392 321 396 279 397 c 0
 273 397 271 400 271 406 c 2
 271 416 l 2
 271 425 273 427 281 427 c 0x98
 282 427 287 427 290 426 c 0
 325 423 354 421 377 421 c 0x28
 403 421 404 421 470 426 c 0
 474 427 480 427 483 427 c 0
 491 427 493 425 493 418 c 2
 493 406 l 2
 493 398 490 396 470 397 c 1
 423 396 412 390 362 341 c 1
 337 320 313 300 291 281 c 1
 444 85 l 2
 485 33 496 25 523 23 c 0
 538 23 540 21 540 13 c 2
 540 4 l 2
 540 -5 538 -7 527 -7 c 0x98
 521 -7 521 -7 477 -2 c 0
 460 0 447 0 440 0 c 0x48
 370 -4 321 -7 312 -7 c 0
 306 -7 303 -4 303 4 c 2
 303 13 l 2
 303 22 305 23 321 22 c 0
 348 22 368 32 368 48 c 0
 368 61 364 68 330 111 c 2
 231 236 l 1x88
EndSplineSet
KernsSLIF: 115 11 0 0 46 -4 0 0 303 -30 0 0 304 -30 0 0 111 -30 0 0 45 -49 0 0 295 -20 0 0 101 -20 0 0 241 3 0 0
EndChar
StartChar: l
Encoding: 108 108 73
Width: 276
Flags: W
HStem: -7 20 0 20
VStem: 103 76<133 597 597 613>
Fore
174 769 m 1xa0
 181 766 l 1
 180 750 180 698 179 613 c 1
 179 133 l 1
 180 58 l 1
 181 35 195 26 234 22 c 0
 246 21 250 19 250 12 c 2
 250 5 l 2
 250 -4 247 -7 238 -7 c 0xa0
 232 -7 224 -6 197 -4 c 0
 174 -1 155 0 141 0 c 0x60
 126 0 108 -1 86 -3 c 0
 59 -6 49 -7 40 -7 c 0
 29 -7 26 -4 26 5 c 2
 26 12 l 2
 26 20 30 21 48 22 c 0
 70 22 91 31 97 41 c 0
 103 50 103 56 103 133 c 2
 103 597 l 2
 103 665 102 668 51 694 c 1
 49 708 l 1
 115 739 l 2
 146 754 154 758 174 769 c 1xa0
EndSplineSet
KernsSLIF: 121 -16 0 0 118 -16 0 0
EndChar
StartChar: m
Encoding: 109 109 74
Width: 830
Flags: W
HStem: -7 20 0 20 380 58<596.5 597> 381 57
VStem: 100 75<73 133 133 270 270 304.5> 384 75<133 258 258 285.5> 667 75<133 283 283 288>
Fore
459 319 m 1xae
 459 133 l 1
 460 58 l 1
 461 36 474 27 512 22 c 0
 525 21 528 19 528 12 c 2
 528 5 l 2
 528 -4 525 -7 517 -7 c 0x8e
 512 -7 512 -7 476 -4 c 0
 453 -1 434 0 422 0 c 0x4e
 408 0 364 -3 339 -6 c 0
 335 -7 331 -7 328 -7 c 0
 321 -7 318 -4 318 5 c 2
 318 12 l 2
 318 19 321 20 334 22 c 0
 355 25 375 33 378 41 c 1
 382 47 383 52 383 65 c 1
 384 133 l 1
 384 258 l 2
 384 313 383 319 373 336 c 0
 358 364 325 381 289 381 c 0
 250 381 215 364 175 327 c 1
 175 133 l 1
 175 65 l 1
 176 37 183 31 223 22 c 0
 237 20 239 19 239 12 c 2
 239 5 l 2
 239 -4 236 -7 229 -7 c 0x9e
 228 -7 224 -7 221 -6 c 0
 207 -4 150 0 137 0 c 0x4e
 120 0 113 -1 55 -6 c 0
 50 -7 45 -7 42 -7 c 0
 33 -7 31 -4 31 5 c 2
 31 12 l 2
 31 19 33 20 45 22 c 0
 77 25 91 32 96 45 c 0
 98 50 99 58 100 73 c 1
 100 133 l 1
 100 270 l 2
 100 339 99 341 48 368 c 1
 46 381 l 1
 112 413 l 2
 145 428 147 429 158 435 c 2
 171 442 l 1
 176 440 l 1
 176 359 l 1
 242 414 292 438 342 438 c 0x9e
 394 438 434 407 453 350 c 1
 538 421 571 438 622 438 c 0
 663 438 699 420 719 391 c 0
 735 368 742 337 742 288 c 2
 742 133 l 1
 743 58 l 1
 744 35 758 26 796 22 c 0
 808 21 812 19 812 12 c 2
 812 5 l 2
 812 -4 809 -7 800 -7 c 0xae
 795 -7 789 -7 759 -4 c 0
 736 -1 718 0 705 0 c 0x4e
 691 0 646 -3 622 -6 c 0
 618 -7 614 -7 611 -7 c 0
 604 -7 601 -4 601 5 c 2
 601 12 l 2
 601 19 604 20 617 22 c 0
 639 25 658 33 661 41 c 1
 665 47 666 52 666 65 c 1
 667 133 l 1
 667 283 l 2
 667 321 665 330 656 344 c 0
 640 366 612 380 582 380 c 0
 541 380 503 361 459 319 c 1xae
EndSplineSet
KernsSLIF: 121 -25 0 0 119 -27 0 0 118 -24 0 0 112 -14 0 0
EndChar
StartChar: n
Encoding: 110 110 75
Width: 553
Flags: W
HStem: -7 20 0 20 381 57<315 317.5>
VStem: 98 76<133 270 270 304.5> 383 76<133 268 268 283>
Fore
174 326 m 1xb8
 174 133 l 2
 174 56 174 51 180 41 c 0
 186 31 206 23 229 22 c 0
 241 21 244 19 244 12 c 2
 244 5 l 2
 244 -4 242 -7 232 -7 c 0x98
 227 -7 220 -6 191 -4 c 0
 168 -1 150 0 136 0 c 0x58
 122 0 104 -1 80 -4 c 0
 50 -7 45 -7 39 -7 c 0
 30 -7 27 -4 27 5 c 2
 27 12 l 2
 27 19 30 21 43 22 c 0
 67 24 88 32 92 41 c 0
 96 47 97 52 97 65 c 1
 98 133 l 1
 98 270 l 2
 98 339 97 341 46 368 c 1
 44 381 l 1
 110 413 l 2
 141 427 143 428 155 435 c 2
 169 442 l 1
 174 440 l 1
 174 358 l 1
 259 423 290 438 340 438 c 0
 385 438 425 417 443 383 c 0
 455 360 459 336 459 283 c 2
 459 133 l 1
 460 65 l 1
 460 36 471 27 514 22 c 0
 527 21 530 19 530 12 c 2
 530 5 l 2
 530 -4 527 -7 517 -7 c 0xb8
 512 -7 504 -6 477 -4 c 0
 454 -1 435 0 422 0 c 0x58
 408 0 389 -1 366 -4 c 0
 335 -7 330 -7 324 -7 c 0
 316 -7 313 -4 313 5 c 2
 313 12 l 2
 313 19 316 21 328 22 c 0
 352 23 373 32 377 41 c 0
 381 47 382 52 382 65 c 1
 383 133 l 1
 383 268 l 2
 383 315 381 328 373 344 c 0
 361 367 334 381 301 381 c 0
 255 381 209 361 174 326 c 1xb8
EndSplineSet
KernsSLIF: 121 -26 0 0 119 -28 0 0 118 -25 0 0 39 -30 0 0 112 -17 0 0 84 -64 0 0
EndChar
StartChar: o
Encoding: 111 111 76
Width: 535
Flags: MW
HStem: -20 33<231.5 317> 405 33<234.5 303>
VStem: 36 88<162 246.5> 410 88<148 255.5>
Fore
274 438 m 0
 398 438 498 337 498 213 c 0
 498 83 391 -20 256 -20 c 0
 130 -20 36 76 36 205 c 0
 36 332 145 438 274 438 c 0
257 405 m 0
 212 405 177 387 157 354 c 0
 137 322 124 270 124 223 c 0
 124 101 187 13 276 13 c 0
 358 13 410 82 410 191 c 0
 410 320 349 405 257 405 c 0
EndSplineSet
KernsSLIF: 121 -28 0 0 120 -32 0 0 119 -30 0 0 118 -27 0 0 116 -6 0 0 39 -19 0 0 84 -105 0 0
EndChar
StartChar: p
Encoding: 112 112 77
Width: 535
Flags: W
HStem: -270 20 -263 20 -20 44<239 301.5> 373 65<302.5 304>
VStem: 83 76<-130 -11 94 117 117 270 270 304.5> 411 81<160.5 246>
Fore
159 -11 m 1xbc
 159 -130 l 1
 160 -198 l 1
 161 -233 173 -239 238 -241 c 0
 250 -242 254 -244 254 -251 c 2
 254 -258 l 2
 254 -268 251 -270 236 -270 c 0xbc
 222 -270 200 -269 177 -266 c 0
 153 -264 134 -263 119 -263 c 0x4c
 103 -263 85 -264 65 -266 c 0
 38 -270 35 -270 23 -270 c 0
 12 -270 10 -268 10 -258 c 2
 10 -251 l 2
 10 -244 13 -242 25 -241 c 0
 52 -240 73 -232 77 -222 c 1
 81 -216 82 -211 82 -198 c 1
 83 -130 l 1
 83 270 l 2
 83 339 82 340 31 368 c 1
 29 381 l 1
 95 413 l 1
 108 418 119 423 130 429 c 0
 138 434 146 438 154 442 c 1
 159 440 l 1
 159 372 l 1
 225 407 l 2
 266 428 293 438 312 438 c 0
 407 438 492 339 492 227 c 0
 492 94 372 -20 231 -20 c 0
 209 -20 189 -17 159 -11 c 1xbc
159 341 m 1
 159 117 l 2
 159 71 159 69 172 55 c 0
 188 36 221 24 257 24 c 0
 351 24 411 90 411 193 c 0
 411 299 349 373 259 373 c 0
 222 373 193 364 159 341 c 1
EndSplineSet
KernsSLIF: 121 -24 0 0 116 -9 0 0
EndChar
StartChar: q
Encoding: 113 113 78
Width: 516
Flags: W
HStem: -270 20 -263 20 -20 49<231 259.5> 400 38<222 279>
VStem: 39 88<162.5 255> 370 76<-130 30 30 30 61 264 264 292.5>
Fore
424 441 m 1xbc
 435 440 l 2
 448 439 450 438 450 431 c 0
 450 429 450 426 449 423 c 0
 447 401 446 365 446 303 c 2
 446 -130 l 1
 447 -205 l 1
 449 -229 462 -237 503 -241 c 0
 516 -242 519 -244 519 -251 c 2
 519 -258 l 2
 519 -268 516 -270 504 -270 c 0xbc
 496 -270 479 -269 464 -267 c 0
 439 -264 419 -263 408 -263 c 0x4c
 398 -263 378 -264 352 -267 c 0
 331 -269 317 -270 304 -270 c 0
 286 -270 284 -269 284 -258 c 2
 284 -251 l 2
 284 -244 288 -242 300 -241 c 0
 343 -240 359 -234 366 -219 c 0
 368 -213 369 -206 370 -191 c 1
 370 -130 l 1
 370 30 l 1
 313 -9 283 -20 236 -20 c 0
 127 -20 39 72 39 188 c 0
 39 322 155 438 289 438 c 0
 316 438 327 436 378 422 c 0
 386 420 393 419 399 419 c 0
 409 419 414 423 424 441 c 1xbc
370 61 m 1
 370 264 l 2
 370 321 367 335 349 359 c 0
 329 385 297 400 261 400 c 0
 183 400 127 324 127 219 c 0
 127 106 187 29 275 29 c 0
 308 29 323 34 370 61 c 1
EndSplineSet
KernsSLIF: 117 -4 0 0 99 -2 0 0
EndChar
StartChar: r
Encoding: 114 114 79
Width: 387
Flags: W
HStem: -7 20 0 20 364 74 420 20<181 181>
VStem: 110 76<133 267 267 287>
Fore
186 287 m 1x28
 186 133 l 1
 187 58 l 1
 190 32 203 24 253 22 c 0
 264 21 268 19 268 12 c 2
 268 5 l 2
 268 -5 266 -7 249 -7 c 0x88
 239 -7 225 -6 204 -4 c 0
 179 -1 160 0 148 0 c 0x48
 136 0 117 -1 93 -4 c 0
 72 -6 60 -7 50 -7 c 0
 40 -7 37 -4 37 5 c 2
 37 12 l 2
 37 19 40 21 53 22 c 0
 85 24 101 31 106 45 c 0
 108 50 109 58 110 73 c 1
 110 133 l 1
 110 267 l 2
 110 336 108 339 58 365 c 1
 56 378 l 1
 122 410 l 2
 160 428 160 428 181 440 c 1x98
 188 437 l 1
 188 423 187 388 186 334 c 1
 186 322 l 1
 202 343 l 2
 254 414 287 438 330 438 c 0
 360 438 382 417 382 388 c 0
 382 364 365 346 341 346 c 0
 331 346 325 348 308 356 c 0
 295 362 287 364 279 364 c 0
 254 364 240 353 195 298 c 2
 186 287 l 1x28
EndSplineSet
KernsSLIF: 122 5 0 0 121 29 0 0 120 25 0 0 119 27 0 0 118 29 0 0 117 26 0 0 116 27 0 0 59 -1 0 0 115 4 0 0 114 4 0 0 39 -3 0 0 113 -23 0 0 46 -57 0 0 112 18 0 0 249 -17 0 0 305 -16 0 0 250 -16 0 0 303 -16 0 0 306 -16 0 0 304 -16 0 0 111 -16 0 0 110 10 0 0 109 9 0 0 108 -18 0 0 107 -16 0 0 106 13 0 0 105 7 0 0 45 -41 0 0 104 -19 0 0 103 -1 0 0 102 21 0 0 296 -12 0 0 297 -12 0 0 295 -12 0 0 101 -12 0 0 100 -16 0 0 44 -53 0 0 58 1 0 0 293 -15 0 0 99 -15 0 0 292 -7 0 0 289 -7 0 0 287 -7 0 0 290 -7 0 0 288 -7 0 0 97 -7 0 0
EndChar
StartChar: s
Encoding: 115 115 80
Width: 351
Flags: MW
HStem: -20 32<141.5 190> 406 32<168 213.5>
VStem: 45 66<325 351.5> 248 73<78 107>
Fore
312 406 m 1
 306 315 l 1
 282 315 l 1
 263 380 237 406 190 406 c 0
 146 406 111 377 111 341 c 0
 111 309 124 297 203 253 c 0
 293 203 321 171 321 117 c 0
 321 39 251 -20 159 -20 c 0
 112 -20 78 -10 35 16 c 1
 29 115 l 1
 57 117 l 1
 76 50 116 12 167 12 c 0
 213 12 248 46 248 89 c 0
 248 125 224 149 154 187 c 0
 72 230 45 262 45 316 c 0
 45 387 108 438 195 438 c 0
 235 438 267 429 312 406 c 1
EndSplineSet
KernsSLIF: 116 10 0 0 39 -11 0 0
EndChar
StartChar: t
Encoding: 116 116 81
Width: 332
Flags: MW
HStem: -20 56<199.5 208> 379 45<151 272>
VStem: 75 76<124.5 147 147 320 320 349>
Fore
11 379 m 1
 11 399 l 1
 26 411 l 1
 83 456 l 2
 88 460 108 478 145 513 c 1
 156 511 158 510 158 505 c 0
 158 503 158 499 157 495 c 0
 156 491 154 466 153 449 c 1
 151 424 l 1
 272 424 l 2
 289 424 290 423 290 408 c 2
 290 395 l 2
 290 380 288 379 272 379 c 2
 151 379 l 1
 151 147 l 2
 151 102 153 84 158 69 c 0
 166 50 188 36 211 36 c 0
 237 36 264 51 276 73 c 0
 283 85 283 85 285 85 c 0
 286 85 287 84 289 83 c 2
 300 73 l 1
 273 7 237 -20 179 -20 c 0
 147 -20 117 -9 99 11 c 1
 79 31 75 46 75 103 c 2
 75 320 l 2
 75 378 74 379 29 379 c 2
 11 379 l 1
EndSplineSet
KernsSLIF: 59 6 0 0 39 -20 0 0 303 -14 0 0 304 -14 0 0 111 -14 0 0 104 -7 0 0 295 -7 0 0 101 -7 0 0 241 3 0 0 83 2 0 0
EndChar
StartChar: u
Encoding: 117 117 82
Width: 535
Flags: MW
HStem: -20 64<242 248.5> 420 20<157 157 441 441>
VStem: 92 76<142 168 168 315 315 328 328 345> 377 76<103.5 133 133 308 308 344>
Fore
377 100 m 1
 377 308 l 2
 377 380 369 390 307 389 c 0
 300 389 298 391 298 399 c 2
 298 409 l 2
 298 415 300 417 314 418 c 0
 364 424 375 426 441 440 c 1
 454 435 l 1
 454 428 454 402 453 356 c 1
 453 133 l 2
 453 74 453 66 457 60 c 0
 460 53 466 50 475 50 c 0
 484 50 488 51 516 58 c 1
 518 53 518 51 518 45 c 0
 518 39 518 36 516 32 c 1
 379 -20 l 1
 374 -4 l 1
 377 69 l 1
 304 -3 275 -20 222 -20 c 0
 181 -20 140 -2 118 26 c 0
 98 52 92 79 92 142 c 2
 92 315 l 2
 92 375 80 391 33 390 c 0
 14 389 13 390 13 399 c 2
 13 409 l 2
 13 417 13 417 36 419 c 0
 59 422 95 428 157 440 c 1
 169 435 l 1
 169 418 l 1
 168 380 l 1
 168 328 l 1
 168 168 l 2
 168 113 170 100 181 82 c 0
 196 58 225 44 259 44 c 0
 303 44 341 62 377 100 c 1
EndSplineSet
KernsSLIF: 39 -21 0 0
EndChar
StartChar: v
Encoding: 118 118 83
Width: 498
Flags: W
HStem: -18 20 401 20<116.5 132.5 397.5 403> 407 20
Fore
275 106 m 1x20
 339 263 l 1
 364 321 374 353 374 368 c 0
 374 387 358 398 328 398 c 0
 309 398 309 398 309 409 c 2
 309 416 l 2
 309 425 310 427 317 427 c 0x20
 321 427 321 427 357 424 c 0
 380 422 396 421 399 421 c 0x40
 407 421 422 422 443 424 c 0
 462 426 476 427 482 427 c 0
 489 427 491 425 491 416 c 2
 491 408 l 2
 491 399 489 398 476 398 c 0
 438 396 427 384 399 317 c 2
 259 -14 l 1
 257 -17 255 -18 252 -18 c 0
 241 -18 237 -11 224 31 c 1
 217 50 l 1
 209 67 l 1
 89 342 l 1
 68 393 63 397 21 396 c 0
 8 396 7 397 7 407 c 2
 7 417 l 2
 7 425 9 427 19 427 c 0xa0
 26 427 40 426 58 425 c 0
 88 422 110 421 123 421 c 0x40
 142 421 182 423 206 426 c 0
 211 427 216 427 219 427 c 0
 225 427 227 424 227 417 c 2
 227 407 l 2
 227 398 227 397 211 397 c 0
 179 397 163 391 163 379 c 0
 163 368 179 324 200 276 c 2
 275 106 l 1x20
EndSplineSet
KernsSLIF: 59 -3 0 0 115 -5 0 0 46 -68 0 0 249 -31 0 0 305 -31 0 0 303 -31 0 0 304 -31 0 0 111 -31 0 0 108 -19 0 0 45 -10 0 0 103 -14 0 0 296 -26 0 0 297 -26 0 0 295 -26 0 0 101 -26 0 0 44 -62 0 0 58 -1 0 0 99 -29 0 0 291 -22 0 0 292 -22 0 0 289 -22 0 0 241 -15 0 0 287 -22 0 0 290 -22 0 0 288 -22 0 0 97 -22 0 0
EndChar
StartChar: w
Encoding: 119 119 84
Width: 756
Flags: W
HStem: -18 20 395 26<250.5 273.5> 407 20
Fore
515 103 m 1x20
 602 305 l 2
 616 337 624 362 624 371 c 0
 624 389 611 395 566 398 c 0
 562 398 560 400 560 406 c 2
 560 417 l 2
 560 425 563 427 574 427 c 0
 584 427 599 426 617 424 c 0
 637 422 652 421 661 421 c 0
 671 421 685 422 703 424 c 0
 722 426 730 427 736 427 c 0
 743 427 745 425 745 417 c 2
 745 406 l 2
 745 396 745 396 717 394 c 0
 706 394 685 380 678 369 c 2
 664 345 l 1
 626 264 l 1
 505 -15 l 1
 503 -17 502 -18 500 -18 c 0
 490 -18 486 -11 475 25 c 0
 474 29 466 49 461 62 c 1
 379 252 l 1
 265 -15 l 1
 263 -17 262 -18 259 -18 c 0
 249 -18 245 -12 235 22 c 1
 226 45 l 2
 224 51 221 57 218 62 c 1
 128 271 l 1
 91 355 79 378 67 388 c 1
 63 394 47 398 21 399 c 0
 13 399 11 401 11 407 c 2
 11 417 l 2
 11 424 14 427 21 427 c 0xa0
 29 427 39 427 53 426 c 2
 96 425 l 1
 172 422 l 2
 205 421 235 421 266 421 c 0x40
 321 421 353 422 452 426 c 0
 459 427 468 427 470 427 c 0
 479 427 481 425 481 416 c 2
 481 407 l 2
 481 399 481 399 457 398 c 0
 418 397 408 394 408 380 c 0
 408 372 410 367 423 334 c 2
 515 103 l 1x20
362 286 m 1x40
 333 349 l 2
 312 395 312 395 235 395 c 0
 188 395 170 390 170 376 c 0
 170 370 173 361 188 325 c 1
 278 99 l 1
 362 286 l 1x40
EndSplineSet
KernsSLIF: 59 -6 0 0 115 -7 0 0 46 -75 0 0 249 -33 0 0 305 -32 0 0 303 -32 0 0 304 -32 0 0 111 -32 0 0 108 -21 0 0 45 -16 0 0 103 -16 0 0 296 -28 0 0 297 -28 0 0 295 -28 0 0 101 -28 0 0 44 -68 0 0 58 -3 0 0 99 -31 0 0 291 -23 0 0 292 -23 0 0 289 -23 0 0 241 -16 0 0 287 -23 0 0 290 -23 0 0 288 -23 0 0 97 -23 0 0
EndChar
StartChar: x
Encoding: 120 120 85
Width: 498
Flags: W
HStem: -7 20 0 20 401 20<110.5 115.5 375 382.5> 407 20
Fore
212 204 m 1x80
 109 340 l 1
 82 377 82 377 72 385 c 0
 62 392 47 397 36 396 c 2
 24 395 l 2
 18 395 15 399 15 407 c 2
 15 416 l 2
 15 424 17 427 24 427 c 0x10
 27 427 27 427 64 424 c 0
 89 422 107 421 114 421 c 0x20
 117 421 153 423 222 427 c 0
 230 427 233 424 233 416 c 2
 233 406 l 2
 233 397 233 397 201 397 c 0
 185 396 175 391 175 382 c 0
 175 372 189 349 219 311 c 2
 259 259 l 1
 299 306 l 2
 327 340 345 368 345 379 c 0
 345 392 334 395 293 396 c 0
 287 396 287 397 287 406 c 2
 287 416 l 2
 287 425 289 427 298 427 c 0x10
 303 427 316 426 336 424 c 0
 356 422 371 421 379 421 c 0x20
 386 421 444 425 452 426 c 0
 456 427 461 427 463 427 c 0
 470 427 472 425 472 416 c 2
 472 406 l 2
 472 397 470 396 452 396 c 0
 417 394 407 387 360 331 c 2
 277 234 l 1
 401 65 l 2
 427 29 434 26 477 20 c 0x50
 481 20 481 19 481 12 c 1
 480 5 l 1
 479 -5 478 -7 470 -7 c 0x80
 464 -7 464 -7 418 -4 c 0
 389 -1 368 0 362 0 c 0x40
 354 0 339 -1 319 -4 c 0
 298 -6 285 -7 274 -7 c 0
 265 -7 262 -4 261 5 c 1
 261 13 l 1x80
 263 20 l 1x40
 265 21 267 22 269 22 c 2
 284 23 l 2
 309 25 321 31 321 42 c 0
 321 50 308 72 287 102 c 1
 229 181 l 1
 216 163 202 146 188 128 c 0
 159 92 138 56 138 44 c 0
 138 30 153 23 183 22 c 0
 197 21 200 20 200 12 c 2
 200 5 l 2
 200 -4 196 -7 185 -7 c 0x80
 179 -7 166 -6 147 -4 c 0
 127 -1 112 0 103 0 c 0x40
 93 0 80 -1 63 -4 c 0
 44 -6 35 -7 26 -7 c 0
 16 -7 15 -5 15 5 c 2
 15 13 l 2
 15 18 16 19 21 19 c 0
 60 25 69 31 115 86 c 2
 212 204 l 1x80
EndSplineSet
KernsSLIF: 113 -28 0 0 111 -31 0 0 295 -21 0 0 101 -21 0 0 99 -21 0 0 97 -1 0 0
EndChar
StartChar: y
Encoding: 121 121 86
Width: 535
Flags: W
HStem: -268 80 401 20<121.5 134.5 422.5 428.5> 407 20<14.5 22.5 230 239 339.5 350 516 520>
Fore
282 89 m 1x20
 371 292 l 2
 390 335 399 359 399 367 c 0
 399 386 382 396 352 396 c 0
 335 395 332 397 332 405 c 2
 332 414 l 2
 332 425 333 427 346 427 c 0x20
 354 427 370 426 386 424 c 0
 404 422 418 421 427 421 c 0x40
 430 421 439 422 505 426 c 0
 510 427 515 427 517 427 c 0
 523 427 527 423 527 414 c 2
 527 405 l 2
 527 396 526 395 503 394 c 0
 460 390 447 376 403 280 c 2
 251 -52 l 1
 221 -119 183 -192 160 -225 c 0
 142 -253 118 -268 91 -268 c 0
 66 -268 48 -250 48 -224 c 0
 48 -200 64 -179 82 -179 c 0
 87 -179 88 -179 98 -184 c 0
 106 -187 108 -188 112 -188 c 0
 145 -188 179 -144 220 -45 c 2
 238 -1 l 1
 105 332 l 1
 84 387 75 395 25 395 c 0
 11 395 8 397 8 405 c 2
 8 416 l 2
 8 425 10 427 19 427 c 0xa0
 26 427 48 426 70 424 c 0
 95 422 116 421 127 421 c 0x40
 142 421 160 422 186 424 c 0
 214 426 226 427 234 427 c 0
 244 427 246 425 246 416 c 2
 246 405 l 2
 246 396 243 395 221 395 c 0
 189 396 175 390 175 376 c 0
 175 370 176 369 191 327 c 1
 282 89 l 1x20
EndSplineSet
KernsSLIF: 59 -4 0 0 115 -5 0 0 46 -83 0 0 249 -31 0 0 305 -31 0 0 303 -31 0 0 304 -31 0 0 111 -31 0 0 108 -19 0 0 45 -22 0 0 103 -14 0 0 296 -26 0 0 297 -26 0 0 295 -26 0 0 101 -26 0 0 44 -76 0 0 58 -1 0 0 99 -29 0 0 291 -22 0 0 292 -22 0 0 289 -22 0 0 241 -15 0 0 287 -22 0 0 290 -22 0 0 288 -22 0 0 97 -22 0 0
EndChar
StartChar: z
Encoding: 122 122 87
Width: 461
Flags: W
HStem: -7 20 -3 29 393 28 405 20<424 424>
Fore
27 -5 m 1x40
 27 8 l 1
 291 357 l 2
 295 362 306 375 307 376 c 0
 311 380 312 382 312 384 c 0
 312 392 299 393 228 393 c 0
 133 393 96 380 75 339 c 0
 68 327 67 325 63 325 c 0
 62 325 61 325 59 326 c 2
 47 328 l 2
 43 329 42 330 42 333 c 0
 42 335 43 337 44 341 c 0
 48 354 46 347 50 361 c 0
 55 375 59 388 62 401 c 0
 76 461 76 461 87 461 c 2
 97 461 l 1
 109 429 117 424 152 423 c 2
 205 422 l 2
 230 421 252 421 275 421 c 0x20
 322 421 358 422 424 425 c 1
 427 417 l 1
 180 84 l 2
 174 75 167 66 160 57 c 0
 149 45 147 41 147 36 c 0
 147 28 166 26 265 26 c 0x50
 372 26 380 29 409 84 c 2
 423 110 l 2
 429 120 431 123 435 123 c 0
 444 122 454 116 454 110 c 0
 454 107 454 107 448 90 c 1
 424 15 l 1
 417 -5 416 -7 406 -7 c 0x80
 402 -7 391 -7 382 -6 c 0
 366 -5 223 -3 195 -3 c 0
 150 -3 146 -3 27 -5 c 1x40
EndSplineSet
EndChar
StartChar: braceleft
Encoding: 123 123 194
Width: 442
Flags: W
VStem: 167 103<-86 -49 568 604.5> 192 90<108 113.5 403 408>
Fore
81 245 m 1x40
 81 270 l 1
 156 304 192 345 192 396 c 0x40
 192 420 188 452 180 487 c 0
 171 522 167 555 167 581 c 0
 167 637 199 688 254 719 c 0
 284 735 315 745 375 757 c 1
 375 732 l 1
 344 721 331 714 316 701 c 0
 286 674 270 631 270 578 c 0x80
 270 553 272 523 276 492 c 0
 280 465 282 441 282 424 c 0
 282 382 261 343 223 314 c 0
 203 299 190 291 133 257 c 1
 189 225 202 217 223 201 c 0
 261 172 282 134 282 93 c 0x40
 282 76 280 52 276 26 c 0
 272 -4 270 -34 270 -59 c 0
 270 -140 301 -186 375 -211 c 1
 375 -236 l 1
 305 -223 269 -210 235 -187 c 0
 193 -157 167 -110 167 -62 c 0x80
 167 -36 171 -5 180 31 c 0
 188 65 192 96 192 120 c 0
 192 170 156 211 81 245 c 1x40
EndSplineSet
EndChar
StartChar: bar
Encoding: 124 124 241
Width: 498
Flags: MW
VStem: 223 51<-250 750>
Fore
223 750 m 1
 274 750 l 1
 274 -250 l 1
 223 -250 l 1
 223 750 l 1
EndSplineSet
EndChar
StartChar: braceright
Encoding: 125 125 195
Width: 442
Flags: W
VStem: 161 90<108 113.5 403 408.5> 173 102<-89.5 -49 567.5 603.5>
Fore
362 270 m 1x80
 362 245 l 1
 287 211 251 170 251 120 c 0x80
 251 96 255 65 263 31 c 0
 271 -4 275 -36 275 -62 c 0
 275 -117 243 -168 189 -198 c 0
 158 -215 127 -225 68 -236 c 1
 68 -211 l 1
 142 -186 173 -140 173 -58 c 0x40
 173 -33 171 -4 167 26 c 0
 163 52 161 76 161 93 c 0
 161 134 182 173 220 201 c 0
 240 216 253 225 310 257 c 1
 252 291 240 299 220 314 c 0
 182 343 161 382 161 424 c 0x80
 161 441 163 465 167 492 c 0
 171 522 173 552 173 577 c 0
 173 630 157 674 127 701 c 0
 112 714 98 721 68 732 c 1
 68 757 l 1
 138 743 174 730 207 707 c 0
 249 677 275 630 275 581 c 0x40
 275 554 271 522 263 487 c 0
 255 451 251 421 251 396 c 0
 251 346 287 304 362 270 c 1x80
EndSplineSet
EndChar
StartChar: asciitilde
Encoding: 126 126 244
Width: 996
Flags: W
HStem: 627 53<585.5 595.5> 668 51<401.5 405>
Fore
692 733 m 1x80
 707 724 l 1
 674 666 620 627 571 627 c 0x80
 551 627 549 628 480 650 c 0
 432 665 417 668 393 668 c 0
 359 668 344 659 304 612 c 1
 289 621 l 1
 328 685 376 719 427 719 c 0x40
 447 719 471 713 516 698 c 0
 558 684 575 680 596 680 c 0
 631 680 664 698 692 733 c 1x80
EndSplineSet
EndChar
StartChar: exclamdown
Encoding: 161 161 158
Width: 258
Flags: MW
HStem: 318 121<113.5 148.5>
VStem: 71 121<362 396.5>
Fore
120 239 m 1
 141 239 l 1
 189 -139 l 1
 194 -175 194 -175 194 -186 c 0
 194 -230 170 -257 131 -257 c 0
 91 -257 67 -230 67 -186 c 0
 67 -176 68 -169 72 -139 c 1
 120 239 l 1
129 439 m 0
 168 439 192 416 192 377 c 0
 192 341 168 318 132 318 c 0
 95 318 71 343 71 381 c 0
 71 417 94 439 129 439 c 0
EndSplineSet
EndChar
StartChar: cent
Encoding: 162 162 139
Width: 480
Flags: MW
HStem: -5 20 421 20<371.5 390.5>
VStem: 61 79<314 345.5> 240 38<-5 106 180 509 509 509 554 665>
Fore
240 547 m 1
 240 665 l 1
 278 665 l 1
 278 554 l 1
 290 554 l 2
 361 554 415 522 415 479 c 0
 415 457 400 441 381 441 c 0
 362 441 356 446 326 481 c 0
 308 502 297 509 278 511 c 1
 278 170 l 1
 286 169 292 169 297 169 c 0
 336 169 367 187 414 235 c 2
 419 241 l 1
 437 221 l 1
 386 152 336 116 278 106 c 1
 278 -5 l 1
 240 -5 l 1
 240 106 l 1
 191 114 164 125 135 150 c 0
 87 191 61 247 61 312 c 0
 61 379 86 443 128 485 c 0
 158 515 187 531 240 547 c 1
240 180 m 1
 240 509 l 1
 218 503 206 498 192 487 c 0
 159 461 140 411 140 354 c 0
 140 274 172 218 240 180 c 1
EndSplineSet
EndChar
StartChar: sterling
Encoding: 163 163 137
Width: 480
Flags: MW
HStem: -109 64 -7 20 320 40<55 117 192 264> 736 36<329.5 358.5>
VStem: 422 41<-17 -0.5>
Fore
264 320 m 2
 189 320 l 1
 162 173 155 144 119 29 c 1
 175 18 188 15 237 -4 c 0
 320 -36 351 -45 375 -45 c 0
 399 -45 422 -27 422 -7 c 0
 422 6 416 13 386 29 c 0
 363 42 352 56 352 72 c 0
 352 91 370 108 389 108 c 0
 428 108 463 63 463 12 c 0
 463 -56 397 -109 312 -109 c 0
 267 -109 228 -93 175 -52 c 0
 135 -21 132 -19 108 -7 c 1
 89 -42 81 -53 69 -67 c 0
 50 -89 22 -104 0 -104 c 0
 -19 -104 -36 -88 -36 -70 c 0
 -36 -45 -15 -15 13 2 c 0
 31 13 46 19 83 28 c 1
 100 88 109 167 117 320 c 1
 52 320 l 2
 38 320 36 322 36 332 c 2
 36 347 l 2
 36 358 39 360 55 360 c 2
 120 360 l 1
 129 472 132 499 137 534 c 0
 153 629 176 679 222 719 c 0
 260 753 307 772 352 772 c 0
 418 772 473 731 473 681 c 0
 473 655 454 635 430 635 c 0
 416 635 404 641 396 653 c 0
 388 664 388 664 386 704 c 0
 385 723 369 736 348 736 c 0
 280 736 238 640 198 397 c 2
 192 360 l 1
 264 360 l 2
 274 360 277 357 277 347 c 2
 277 332 l 2
 277 321 275 320 264 320 c 2
EndSplineSet
EndChar
StartChar: fraction
Encoding: 164 8260 202
Width: 111
Flags: MW
HStem: -11 20
Fore
-172 8 m 2
 242 665 l 2
 248 675 250 675 262 675 c 2
 284 675 l 2
 291 675 295 673 295 668 c 0
 295 666 295 666 288 654 c 2
 -120 5 l 2
 -130 -11 -131 -11 -148 -11 c 2
 -166 -11 l 2
 -172 -11 -177 -8 -177 -5 c 0
 -177 -2 -175 3 -172 8 c 2
EndSplineSet
EndChar
StartChar: yen
Encoding: 165 165 142
Width: 479
Flags: W
HStem: -5 20 0 20 170 40<102 217 305 419> 266 40<102 217 305 419> 669 20<118.5 127 396.5 405> 675 20<25 35 196.5 205.5 341 348 456.5 464.5>
VStem: 217 88<115 170 210 266 306 338 338 338>
Fore
217 210 m 1xa2
 217 266 l 1
 102 266 l 1
 102 306 l 1
 217 306 l 1
 217 338 l 1
 107 578 l 1
 104 588 101 596 97 601 c 1
 79 642 65 658 43 661 c 2
 26 664 l 2
 19 664 14 670 14 676 c 2
 14 684 l 2
 14 691 20 695 30 695 c 0x36
 40 695 62 694 79 692 c 0
 99 690 114 689 123 689 c 0x0a
 131 689 145 690 162 692 c 0
 176 694 193 695 200 695 c 0
 211 695 217 690 217 681 c 2
 217 672 l 1
 215 663 212 661 195 659 c 0
 180 656 170 647 170 636 c 0
 170 630 173 622 180 608 c 0
 185 598 190 588 194 578 c 1
 280 389 l 1
 371 601 l 2
 379 620 384 636 384 641 c 0
 384 651 377 654 345 659 c 0
 335 660 330 664 330 670 c 2
 330 682 l 2
 330 690 336 695 346 695 c 0x06
 350 695 357 694 364 693 c 0
 379 690 392 689 401 689 c 0x0a
 409 689 419 690 431 692 c 0
 443 694 453 695 460 695 c 0
 469 695 476 689 476 682 c 2
 476 673 l 2
 476 666 474 662 465 659 c 0
 434 647 425 636 404 591 c 1
 305 359 l 1
 305 306 l 1
 419 306 l 1
 419 266 l 1
 305 266 l 1
 305 210 l 1
 419 210 l 1
 419 170 l 1
 305 170 l 1
 305 110 l 2
 305 44 318 29 382 26 c 0
 394 25 397 22 397 13 c 2
 397 7 l 2
 397 -1 393 -5 383 -5 c 0xb6
 371 -5 337 -4 312 -2 c 0
 291 -1 276 0 266 0 c 0x42
 260 0 236 -1 203 -3 c 0
 188 -4 169 -5 156 -5 c 0
 145 -5 140 -1 140 8 c 2
 140 14 l 2
 140 18 142 23 145 25 c 2
 146 26 l 1
 179 32 l 2
 209 38 217 55 217 115 c 2
 217 170 l 1
 102 170 l 1
 102 210 l 1
 217 210 l 1xa2
EndSplineSet
EndChar
StartChar: florin
Encoding: 166 402 140
Width: 479
Flags: MW
HStem: -255 52<-15 -13.5> 390 38<134 190 265 345> 734 34<399.5 421.5>
Fore
134 428 m 2
 198 428 l 1
 244 584 252 608 284 671 c 0
 315 731 370 768 429 768 c 0
 485 768 532 738 532 703 c 0
 532 682 516 666 496 666 c 0
 478 666 468 674 455 699 c 0
 442 724 430 734 413 734 c 0
 381 734 357 703 326 621 c 0
 312 587 310 580 265 428 c 1
 351 428 l 2
 360 428 368 422 366 417 c 2
 360 399 l 2
 358 393 353 390 345 390 c 2
 255 390 l 1
 221 240 185 117 136 -18 c 0
 75 -188 22 -255 -49 -255 c 0
 -79 -255 -103 -235 -103 -211 c 0
 -103 -189 -83 -170 -60 -170 c 0
 -47 -170 -41 -174 -27 -193 c 0
 -22 -200 -17 -203 -13 -203 c 0
 3 -203 19 -179 42 -117 c 0
 81 -16 104 59 152 248 c 0
 166 302 171 322 190 390 c 1
 125 390 l 2
 116 390 109 394 110 400 c 1
 110 400 110 401 111 403 c 1
 116 421 l 1
 118 425 124 428 134 428 c 2
EndSplineSet
EndChar
StartChar: section
Encoding: 167 167 175
Width: 479
Flags: MW
HStem: -189 47<207 217> 660 47<213.5 236.5>
VStem: 46 46<451.5 502.5> 128 43<597 598 598 598.5> 280 42<-84.5 -83.5> 368 47<24 64>
Fore
108 -74 m 0
 126 -74 143 -85 163 -109 c 0
 186 -136 196 -142 218 -142 c 0
 254 -142 280 -114 280 -74 c 0
 280 -14 258 35 174 161 c 0
 76 309 46 378 46 457 c 0
 46 591 152 707 275 707 c 0
 334 707 381 677 381 639 c 0
 381 617 360 597 336 597 c 0
 317 597 308 603 278 634 c 0
 262 651 245 660 228 660 c 0
 196 660 171 632 171 597 c 0
 171 548 204 480 289 356 c 0
 386 215 415 144 415 53 c 0
 415 -9 395 -63 352 -113 c 0
 304 -168 257 -189 177 -189 c 0
 107 -189 60 -161 60 -120 c 0
 60 -96 83 -74 108 -74 c 0
127 600 m 0
 115 600 92 523 92 482 c 0
 92 421 113 355 153 294 c 1
 217 192 217 192 267 113 c 0
 313 38 327 3 327 -44 c 0
 327 -54 325 -71 323 -80 c 0
 322 -83 322 -83 322 -84 c 0
 322 -85 323 -86 324 -86 c 0
 326 -86 330 -80 336 -71 c 0
 354 -42 368 7 368 41 c 0
 368 87 353 144 325 199 c 0
 313 222 294 252 258 304 c 0
 175 425 123 527 125 563 c 0
 127 591 127 591 128 597 c 1
 128 598 l 2
 128 599 128 600 127 600 c 0
EndSplineSet
EndChar
StartChar: currency
Encoding: 168 164 191
Width: 479
Flags: MW
HStem: 141 48<205 257> 526 48<205 257.5>
VStem: 15 48<332.5 385> 400 48<332.5 385>
Fore
-6 562 m 1
 26 594 l 1
 92 527 l 1
 137 560 179 574 231 574 c 0
 284 574 325 560 370 527 c 1
 437 594 l 1
 468 562 l 1
 401 495 l 1
 434 451 448 411 448 359 c 0
 448 306 433 262 401 220 c 1
 468 153 l 1
 437 122 l 1
 370 189 l 1
 318 153 283 141 231 141 c 0
 179 141 145 153 92 189 c 1
 25 122 l 1
 -6 153 l 1
 61 220 l 1
 30 262 15 306 15 359 c 0
 15 411 28 450 61 495 c 1
 -6 562 l 1
231 526 m 0
 140 526 63 451 63 360 c 0
 63 265 137 189 230 189 c 0
 325 189 400 264 400 357 c 0
 400 450 324 526 231 526 c 0
EndSplineSet
EndChar
StartChar: quotesingle
Encoding: 169 39 179
Width: 276
Flags: MW
HStem: 684 20<125 151.5>
Fore
146 445 m 2
 133 445 l 2
 124 445 122 447 119 461 c 1
 97 611 l 1
 93 633 91 651 91 657 c 0
 91 683 112 704 138 704 c 0
 165 704 183 685 183 657 c 0
 183 646 183 639 181 629 c 1
 159 475 l 1
 156 450 154 445 146 445 c 2
EndSplineSet
EndChar
StartChar: quotedblleft
Encoding: 170 8220 155
Width: 424
Flags: MW
HStem: 684 20
VStem: 53 55 223 55
Fore
362 697 m 2
 367 684 l 2
 368 681 369 678 369 677 c 0
 369 673 367 671 361 669 c 0
 307 647 278 620 278 590 c 0
 278 580 284 569 293 562 c 0
 297 558 297 558 324 548 c 0
 351 538 368 519 368 498 c 0
 368 469 343 448 310 448 c 0
 261 448 223 494 223 554 c 0
 223 600 247 642 289 670 c 0
 315 688 346 704 355 704 c 0
 358 704 360 702 362 697 c 2
193 697 m 2
 198 684 l 2
 199 681 199 679 199 677 c 0
 199 673 197 671 191 669 c 0
 135 646 108 620 108 589 c 0
 108 580 114 569 123 562 c 0
 127 558 127 558 155 548 c 0
 182 538 198 520 198 498 c 0
 198 469 173 448 140 448 c 0
 91 448 53 494 53 555 c 0
 53 600 77 642 119 670 c 0
 146 688 177 704 185 704 c 0
 189 704 191 702 193 697 c 2
EndSplineSet
KernsSLIF: 89 10 1 0 87 10 1 0 86 7 1 0 84 -6 1 0 261 -78 1 0 256 -78 1 0 257 -78 1 0 225 -159 1 0 65 -78 1 0
EndChar
StartChar: guillemotleft
Encoding: 171 171 162
Width: 424
Flags: W
Fore
119 217 m 1
 227 78 l 2
 229 75 231 71 231 69 c 0
 231 68 229 64 226 62 c 2
 220 56 l 2
 218 54 215 52 214 52 c 0
 211 52 206 54 202 58 c 2
 55 186 l 2
 40 200 36 204 36 212 c 0
 36 222 43 232 62 248 c 2
 198 369 l 1
 205 374 210 378 213 378 c 0
 214 378 218 376 221 373 c 2
 227 367 l 2
 229 365 229 365 231 362 c 1
 231 360 l 2
 231 357 229 354 226 350 c 2
 119 217 l 1
281 217 m 1
 389 78 l 2
 392 74 394 71 394 69 c 0
 394 68 392 65 389 62 c 2
 383 56 l 2
 381 54 378 52 376 52 c 0
 373 52 369 54 365 58 c 2
 217 186 l 2
 201 200 198 204 198 212 c 0
 198 222 204 230 224 248 c 2
 361 369 l 2
 367 374 373 378 375 378 c 0
 377 378 380 376 383 373 c 2
 389 367 l 2
 391 365 392 365 393 362 c 0
 394 361 394 360 394 360 c 1
 394 358 392 355 388 350 c 2
 281 217 l 1
EndSplineSet
EndChar
StartChar: guilsinglleft
Encoding: 172 8249 164
Width: 276
Flags: W
Fore
121 217 m 1
 229 78 l 2
 231 75 233 71 233 69 c 0
 233 68 231 64 228 62 c 2
 222 56 l 2
 220 54 217 52 216 52 c 0
 213 52 208 54 204 58 c 2
 57 186 l 2
 41 200 38 204 38 213 c 0
 38 223 43 230 64 248 c 2
 200 369 l 1
 207 374 212 378 215 378 c 0
 216 378 220 376 223 373 c 2
 229 367 l 2
 231 365 231 365 233 362 c 1
 233 360 l 2
 233 357 231 354 228 350 c 2
 121 217 l 1
EndSplineSet
EndChar
StartChar: guilsinglright
Encoding: 173 8250 163
Width: 276
Flags: W
Fore
153 212 m 1
 46 351 l 2
 43 355 41 358 41 360 c 0
 41 361 43 365 46 368 c 2
 52 374 l 2
 55 376 57 378 59 378 c 0
 61 378 65 376 70 372 c 2
 217 243 l 2
 231 231 236 224 236 217 c 0
 236 207 229 198 210 181 c 2
 74 61 l 2
 68 55 62 52 59 52 c 0
 58 52 54 54 52 56 c 2
 45 62 l 2
 43 64 41 68 41 69 c 0
 41 71 43 75 46 79 c 2
 153 212 l 1
EndSplineSet
KernsSLIF: 89 -122 1 0 87 -87 1 0 86 -95 1 0 84 -110 1 0 261 -41 1 0 256 -41 1 0 257 -41 1 0 225 -75 1 0 65 -41 1 0
EndChar
StartChar: fi
Encoding: 174 64257 93
Width: 556
Flags: W
HStem: -7 20 0 20 380 45<43 47 47 107 183 300> 420 20<449.5 455.5> 710 58
VStem: 107 76<72 73 73 102 102 132 132 380>
Fore
183 380 m 1xa4
 183 132 l 1
 183 102 l 1
 183 73 l 2
 183 33 194 24 252 22 c 0
 264 21 268 19 268 12 c 2
 268 5 l 2
 268 -5 265 -7 251 -7 c 0xa4
 238 -7 217 -6 197 -4 c 0
 175 -1 158 0 146 0 c 0x44
 134 0 116 -1 93 -3 c 0
 66 -6 53 -7 41 -7 c 0
 27 -7 25 -5 25 5 c 2
 25 12 l 2
 25 19 28 21 41 22 c 0
 81 24 95 29 103 44 c 0
 105 50 106 57 107 72 c 1
 107 132 l 1
 107 380 l 1
 47 380 l 2
 31 380 29 382 29 392 c 2
 29 413 l 2
 29 424 30 425 43 425 c 2
 108 425 l 1
 109 459 l 1
 111 542 115 566 137 608 c 0
 180 694 287 768 368 768 c 0
 417 768 464 735 464 701 c 0
 464 680 445 662 422 662 c 0
 405 662 390 669 369 686 c 0
 346 704 334 710 317 710 c 0
 276 710 224 674 204 631 c 0
 184 588 183 578 183 425 c 1
 318 425 l 2xac
 376 425 404 428 440 438 c 0
 444 439 448 440 451 440 c 0
 460 440 462 433 462 409 c 2
 462 132 l 1
 462 103 l 1
 462 73 l 2
 462 36 471 27 517 22 c 0
 530 21 533 19 533 12 c 2
 533 5 l 2
 533 -4 530 -7 522 -7 c 0x94
 517 -7 517 -7 486 -4 c 0
 465 -1 443 0 421 0 c 0x44
 392 0 383 -1 336 -6 c 0
 332 -7 327 -7 323 -7 c 0
 313 -7 310 -4 310 5 c 2
 310 12 l 2
 310 19 314 21 326 22 c 0
 378 26 387 35 386 78 c 1
 386 103 l 1
 386 132 l 1
 387 301 l 1
 387 345 386 349 376 360 c 1
 363 372 335 380 300 380 c 2
 183 380 l 1xa4
EndSplineSet
Ligature: 0 0 'liga' f i
EndChar
StartChar: fl
Encoding: 175 64258 94
Width: 556
Flags: W
HStem: -7 20 0 20 380 45<39 43 43 103 180 384> 710 58<299.5 328>
VStem: 103 76<74 102 102 132 132 380> 384 75<87 110 110 145 145 146 146 380 380 380 425 557 557 601>
Fore
103 380 m 1xac
 43 380 l 2
 28 380 25 382 25 392 c 2
 25 413 l 2
 25 424 27 425 39 425 c 2
 104 425 l 1
 104 498 105 509 108 529 c 0
 127 655 244 768 355 768 c 0
 383 768 400 763 431 746 c 1
 454 763 l 2
 459 766 463 768 465 768 c 0
 468 768 470 764 470 759 c 0
 470 755 468 741 465 722 c 0
 460 689 459 678 459 633 c 2
 459 145 l 1
 459 87 l 1
 458 36 464 28 514 22 c 0
 526 21 530 19 530 12 c 2
 530 5 l 2
 530 -4 527 -7 518 -7 c 0xbc
 512 -7 505 -6 477 -4 c 0
 454 -1 435 0 421 0 c 0x4c
 406 0 388 -1 366 -3 c 0
 339 -6 329 -7 320 -7 c 0
 309 -7 306 -4 306 5 c 2
 306 12 l 2
 306 19 310 21 328 22 c 0
 374 27 384 36 384 73 c 2
 384 110 l 1
 384 146 l 1
 384 380 l 1
 179 380 l 1
 179 132 l 1
 179 102 l 1
 179 73 l 2
 179 33 190 24 248 22 c 0
 260 21 264 19 264 12 c 2
 264 5 l 2
 264 -5 262 -7 247 -7 c 0xac
 235 -7 214 -6 193 -4 c 0
 171 -1 154 0 142 0 c 0x4c
 130 0 112 -1 89 -3 c 0
 62 -6 49 -7 37 -7 c 0
 23 -7 21 -5 21 5 c 2
 21 12 l 2
 21 19 24 21 37 22 c 0
 92 25 103 34 103 74 c 2
 103 102 l 1
 103 132 l 1
 103 380 l 1xac
384 425 m 1
 384 557 l 2
 384 645 383 647 379 664 c 0
 371 691 344 710 312 710 c 0
 269 710 224 682 202 642 c 0
 184 608 179 579 179 515 c 0
 179 505 179 505 180 425 c 1
 384 425 l 1
EndSplineSet
Ligature: 0 0 'liga' f l
EndChar
StartChar: endash
Encoding: 177 8211 168
Width: 479
Flags: MW
HStem: 194 71<45 437>
Fore
453 248 m 2
 453 211 l 2
 453 194 453 194 437 194 c 2
 45 194 l 2
 29 194 29 194 29 211 c 2
 29 248 l 2
 29 265 29 265 45 265 c 2
 437 265 l 1
 450 266 l 2
 452 266 453 261 453 248 c 2
EndSplineSet
EndChar
StartChar: dagger
Encoding: 178 8224 176
Width: 479
Flags: W
HStem: 437 19<218.5 222 257.5 261> 686 20<224 256>
VStem: 228 23<404.5 428.5> 228 24<461 466.5>
Fore
229 -223 m 1xe0
 224 -86 l 1
 218 56 199 212 178 292 c 1
 215 352 228 385 228 424 c 0xe0
 228 433 225 437 219 437 c 0
 216 437 212 436 207 435 c 0
 202 433 162 421 141 416 c 0
 134 414 128 412 124 411 c 0
 96 402 88 401 72 401 c 0
 42 401 23 419 23 447 c 0
 23 475 42 493 71 493 c 0
 87 493 90 493 126 482 c 0
 175 468 202 460 207 459 c 0
 212 457 217 456 220 456 c 0
 225 456 228 459 228 463 c 0
 228 470 220 498 206 543 c 0
 194 584 187 619 187 646 c 0
 187 682 208 706 240 706 c 0
 272 706 293 682 293 646 c 0
 293 619 286 584 274 543 c 0
 260 500 252 470 252 463 c 0xd0
 252 459 255 456 260 456 c 0
 263 456 268 457 273 459 c 0
 325 477 390 493 409 493 c 0
 437 493 456 475 456 447 c 0
 456 419 437 401 408 401 c 0
 388 401 316 419 272 434 c 0
 267 436 262 437 260 437 c 0
 254 437 251 433 251 424 c 0
 251 385 264 351 302 292 c 1
 280 212 261 56 256 -86 c 1
 251 -223 l 1
 229 -223 l 1xe0
EndSplineSet
EndChar
StartChar: daggerdbl
Encoding: 179 8225 177
Width: 480
Flags: MW
HStem: 417 20 684 20<227 253>
Fore
182 303 m 1
 219 365 228 388 228 419 c 0
 228 422 227 429 226 437 c 1
 188 433 185 433 146 421 c 0
 114 411 96 407 79 407 c 0
 47 407 24 425 24 451 c 0
 24 476 45 493 76 493 c 0
 95 493 116 489 151 479 c 0
 189 468 191 467 226 463 c 1
 223 503 222 509 210 558 c 0
 200 600 196 621 196 641 c 0
 196 678 214 704 240 704 c 0
 266 704 283 679 283 641 c 0
 283 620 279 598 269 558 c 0
 257 508 256 503 253 463 c 1
 289 467 291 468 329 479 c 0
 364 489 384 493 404 493 c 0
 436 493 456 477 456 452 c 0
 456 426 433 407 402 407 c 0
 384 407 365 411 334 421 c 0
 293 433 291 433 253 437 c 1
 256 365 258 357 296 303 c 1
 288 277 285 266 276 240 c 0
 256 179 251 151 251 97 c 0
 251 92 251 81 252 68 c 1
 290 72 293 72 333 85 c 0
 364 94 382 98 401 98 c 0
 432 98 455 80 455 54 c 0
 455 29 435 13 402 13 c 0
 384 13 362 17 328 27 c 0
 290 38 288 38 252 43 c 1
 256 -2 257 -7 268 -53 c 0
 278 -90 282 -114 282 -133 c 0
 282 -172 263 -199 237 -199 c 0
 213 -199 196 -174 196 -138 c 0
 196 -115 200 -93 210 -53 c 0
 222 -5 222 -2 226 43 c 1
 191 38 187 38 151 27 c 0
 114 16 97 13 78 13 c 0
 46 13 23 31 23 55 c 0
 23 80 46 98 77 98 c 0
 95 98 114 94 145 85 c 0
 186 72 188 72 226 68 c 1
 224 171 218 198 182 303 c 1
EndSplineSet
EndChar
StartChar: periodcentered
Encoding: 180 183 148
Width: 258
Flags: W
Fore
130 394 m 0
 164 394 192 366 192 331 c 0
 192 297 164 269 129 269 c 0
 94 269 67 297 67 332 c 0
 67 366 96 394 130 394 c 0
EndSplineSet
EndChar
StartChar: paragraph
Encoding: 182 182 190
Width: 479
Flags: MW
HStem: 704 41<394 462 394 394>
VStem: 269 39<-159 279 279 279> 355 39<-159 704>
Fore
462 745 m 1
 462 704 l 1
 394 704 l 1
 394 -159 l 1
 355 -159 l 1
 355 704 l 1
 308 704 l 1
 308 -159 l 1
 269 -159 l 1
 269 279 l 1
 191 295 154 311 118 345 c 0
 74 387 49 444 49 507 c 0
 49 584 87 655 149 693 c 0
 205 728 276 745 370 745 c 2
 462 745 l 1
EndSplineSet
EndChar
StartChar: bullet
Encoding: 183 8226 222
Width: 498
Flags: W
Fore
252 540 m 0
 350 540 431 458 431 359 c 0
 431 258 350 177 250 177 c 0
 148 177 68 258 68 360 c 0
 68 460 150 540 252 540 c 0
EndSplineSet
EndChar
StartChar: quotesinglbase
Encoding: 184 8218 192
Width: 276
Flags: MW
VStem: 159 55
Fore
75 -132 m 1
 69 -119 l 1
 68 -111 l 1
 68 -108 70 -106 76 -104 c 0
 133 -80 159 -55 159 -24 c 0
 159 -14 153 -3 144 4 c 0
 140 7 140 7 113 17 c 0
 86 27 69 46 69 68 c 0
 69 97 94 118 127 118 c 0
 176 118 214 72 214 11 c 0
 214 -34 190 -76 148 -105 c 0
 122 -123 91 -139 82 -139 c 0
 79 -139 76 -137 75 -132 c 1
EndSplineSet
EndChar
StartChar: quotedblbase
Encoding: 185 8222 156
Width: 424
Flags: MW
VStem: 149 55 319 55
Fore
65 -147 m 1
 59 -133 l 1
 58 -126 l 1
 58 -123 60 -121 66 -118 c 0
 120 -97 149 -69 149 -39 c 0
 149 -29 143 -18 134 -11 c 0
 130 -8 130 -7 103 2 c 0
 76 12 59 32 59 54 c 0
 59 82 84 103 117 103 c 0
 166 103 204 57 204 -3 c 0
 204 -49 180 -91 138 -119 c 0
 112 -137 81 -153 72 -153 c 0
 69 -153 66 -151 65 -147 c 1
234 -147 m 1
 229 -133 l 2
 228 -131 228 -129 228 -126 c 0
 228 -123 230 -121 236 -118 c 0
 291 -97 319 -69 319 -39 c 0
 319 -29 313 -18 304 -11 c 0
 300 -8 300 -8 273 2 c 0
 246 12 229 32 229 53 c 0
 229 82 254 103 287 103 c 0
 336 103 374 57 374 -3 c 0
 374 -49 350 -91 308 -119 c 0
 281 -137 250 -153 242 -153 c 0
 238 -153 236 -151 234 -147 c 1
EndSplineSet
KernsSLIF: 89 -90 1 0 87 -92 1 0 86 -100 1 0 84 -74 1 0 225 8 1 0 65 8 1 0
EndChar
StartChar: quotedblright
Encoding: 186 8221 154
Width: 424
Flags: MW
HStem: 684 20<95.5 136.5 265.5 306.5>
VStem: 144 55 314 55
Fore
60 454 m 1
 54 468 l 1
 53 475 l 1
 53 478 55 480 61 483 c 0
 114 503 144 532 144 562 c 0
 144 572 138 583 129 590 c 0
 125 594 125 594 98 603 c 0
 71 613 54 633 54 655 c 0
 54 683 79 704 112 704 c 0
 161 704 199 658 199 598 c 0
 199 552 175 511 133 482 c 0
 108 464 76 448 67 448 c 0
 64 448 61 450 60 454 c 1
229 454 m 1
 224 468 l 2
 223 470 223 472 223 475 c 0
 223 478 225 480 231 483 c 0
 285 504 314 532 314 562 c 0
 314 572 308 583 299 590 c 0
 295 594 294 594 268 603 c 0
 241 613 224 633 224 655 c 0
 224 683 249 704 282 704 c 0
 331 704 369 658 369 598 c 0
 369 552 345 510 303 482 c 0
 277 464 245 448 237 448 c 0
 233 448 231 450 229 454 c 1
EndSplineSet
KernsSLIF: 89 5 1 0 87 6 1 0 86 2 1 0 84 -2 1 0 261 -83 1 0 256 -83 1 0 257 -83 1 0 225 -165 1 0 65 -83 1 0
EndChar
StartChar: guillemotright
Encoding: 187 187 161
Width: 424
Flags: W
Fore
144 212 m 1
 37 351 l 2
 34 355 32 358 32 360 c 0
 32 361 34 365 37 368 c 2
 43 374 l 2
 46 376 48 378 50 378 c 0
 52 378 56 376 61 372 c 2
 208 243 l 2
 221 232 227 223 227 216 c 0
 227 207 220 197 201 181 c 2
 65 61 l 2
 59 55 53 52 50 52 c 0
 49 52 45 54 43 56 c 2
 36 62 l 2
 34 64 32 68 32 69 c 0
 32 71 34 75 37 79 c 2
 144 212 l 1
302 212 m 1
 194 351 l 1
 192 355 190 358 190 360 c 0
 190 361 192 365 195 368 c 2
 201 374 l 2
 204 376 206 378 208 378 c 0
 210 378 214 376 219 372 c 2
 366 243 l 2
 381 230 385 225 385 219 c 0
 385 207 379 198 359 181 c 2
 223 61 l 2
 217 55 211 52 208 52 c 0
 207 52 203 54 201 56 c 2
 194 62 l 2
 192 64 190 68 190 69 c 0
 190 71 192 75 195 79 c 2
 302 212 l 1
EndSplineSet
KernsSLIF: 89 -121 1 0 87 -86 1 0 86 -95 1 0 84 -110 1 0 261 -41 1 0 256 -41 1 0 257 -41 1 0 225 -75 1 0 65 -41 1 0
EndChar
StartChar: ellipsis
Encoding: 188 8230 150
Width: 812
Flags: MW
HStem: -15 20
VStem: 80 117<27.5 59.5> 347 117<27.5 59.5> 615 117<27.5 60>
Fore
138 102 m 0
 171 102 197 76 197 43 c 0
 197 11 171 -15 138 -15 c 0
 106 -15 80 11 80 44 c 0
 80 76 106 102 138 102 c 0
405 102 m 0
 438 102 464 76 464 43 c 0
 464 11 438 -15 405 -15 c 0
 373 -15 347 11 347 44 c 0
 347 76 374 102 405 102 c 0
673 102 m 0
 706 102 732 76 732 44 c 0
 732 11 706 -15 673 -15 c 0
 641 -15 615 11 615 44 c 0
 615 76 641 102 673 102 c 0
EndSplineSet
Ligature: 0 1 'liga' period period period
EndChar
StartChar: perthousand
Encoding: 189 8240 204
Width: 1162
Flags: W
HStem: -7 31<588.5 636.5 944.5 992.5> 317 31<590.5 638.5 946.5 994.5> 321 31<167 215> 644 31<169.5 217.5>
VStem: 34 80<458.5 545.5> 271 80<452.5 542.5> 455 80<131 218.5> 692 80<124.5 215> 811 80<131 218> 1048 80<124.5 215>
Fore
260 -7 m 2xdfc0
 237 -7 l 2
 228 -7 224 -4 224 2 c 0
 224 4 224 5 227 11 c 2
 524 663 l 2
 529 674 531 675 544 675 c 2
 566 675 l 2
 575 675 579 673 579 670 c 0
 579 668 578 665 576 661 c 2
 281 11 l 2
 273 -7 273 -7 260 -7 c 2xdfc0
616 348 m 0
 702 348 772 267 772 169 c 0
 772 70 702 -7 611 -7 c 0
 522 -7 455 68 455 168 c 0
 455 269 525 348 616 348 c 0
614 317 m 0
 567 317 535 261 535 179 c 0
 535 83 565 24 612 24 c 0
 661 24 692 81 692 168 c 0
 692 262 663 317 614 317 c 0
972 348 m 0
 1058 348 1128 268 1128 169 c 0
 1128 70 1058 -7 967 -7 c 0
 878 -7 811 68 811 167 c 0
 811 269 881 348 972 348 c 0
970 317 m 0
 923 317 891 261 891 179 c 0
 891 83 921 24 968 24 c 0
 1017 24 1048 81 1048 168 c 0
 1048 262 1019 317 970 317 c 0
196 675 m 0
 281 675 351 595 351 497 c 0
 351 398 281 321 190 321 c 0x3fc0
 101 321 34 396 34 495 c 0
 34 596 105 675 196 675 c 0
193 644 m 0
 146 644 114 589 114 506 c 0
 114 411 143 352 191 352 c 0
 239 352 271 409 271 496 c 0
 271 589 242 644 193 644 c 0
EndSplineSet
EndChar
StartChar: questiondown
Encoding: 191 191 160
Width: 369
Flags: MW
HStem: 320 123<236 269.5>
VStem: 45 52<-7 5> 191 123<364.5 398.5>
Fore
265 237 m 1
 269 91 l 1
 162 87 97 41 97 -31 c 0
 97 -73 121 -113 160 -133 c 0
 178 -143 205 -149 241 -151 c 0
 279 -154 295 -169 295 -201 c 0
 295 -232 271 -255 238 -255 c 0
 194 -255 141 -218 101 -160 c 0
 66 -108 45 -39 45 25 c 0
 45 121 104 173 213 173 c 2
 225 173 l 1
 232 238 l 1
 234 250 237 255 244 255 c 2
 255 255 l 2
 263 255 265 252 265 237 c 1
253 443 m 0
 287 443 314 416 314 381 c 0
 314 348 286 320 253 320 c 0
 219 320 191 347 191 382 c 0
 191 416 218 443 253 443 c 0
EndSplineSet
EndChar
StartChar: grave
Encoding: 193 96 210
Width: 479
Flags: W
Fore
274 521 m 2
 167 664 l 2
 136 706 128 720 128 739 c 0
 128 760 146 777 167 777 c 0
 190 777 200 764 228 696 c 1
 296 536 l 2
 298 531 299 527 299 525 c 0
 299 523 297 521 295 519 c 2
 288 515 l 2
 285 514 284 513 282 513 c 0
 280 513 279 514 274 521 c 2
EndSplineSet
EndChar
StartChar: acute
Encoding: 194 180 209
Width: 479
Flags: W
Fore
184 536 m 2
 251 696 l 2
 279 763 290 777 313 777 c 0
 334 777 352 759 352 739 c 0
 352 720 345 707 313 664 c 2
 206 521 l 2
 200 513 200 513 198 513 c 0
 196 513 195 514 192 515 c 2
 185 519 l 2
 183 521 181 523 181 525 c 0
 181 527 182 531 184 536 c 2
EndSplineSet
EndChar
StartChar: circumflex
Encoding: 195 710 211
Width: 479
Flags: MW
HStem: 672 20<241 241>
Fore
241 692 m 1
 147 521 l 2
 144 515 142 513 139 513 c 2
 134 514 l 1
 122 520 l 2
 119 522 117 524 117 526 c 0
 117 528 118 532 120 537 c 2
 186 705 l 1
 209 762 222 777 247 777 c 0
 259 777 272 771 280 761 c 0
 290 749 290 749 307 707 c 2
 377 535 l 2
 379 531 380 527 380 525 c 0
 380 523 378 521 374 519 c 2
 364 515 l 2
 361 514 359 513 358 513 c 0
 355 513 352 516 349 521 c 2
 241 692 l 1
EndSplineSet
EndChar
StartChar: tilde
Encoding: 196 732 214
Width: 480
Flags: MW
HStem: 513 81<313.5 319.5> 609 81<189 190>
Fore
385 679 m 2
 392 676 l 2
 395 674 397 671 397 666 c 0
 397 655 387 620 375 591 c 0
 355 541 331 513 308 513 c 0
 285 513 270 525 230 573 c 0
 207 600 196 609 184 609 c 0
 169 609 147 581 133 545 c 0
 123 520 119 513 115 513 c 0
 113 513 110 514 108 516 c 2
 102 519 l 1
 99 522 97 525 97 529 c 0
 97 538 110 584 119 607 c 0
 138 659 172 690 206 690 c 0
 223 690 235 681 259 652 c 0
 293 610 309 594 318 594 c 0
 334 594 346 613 368 672 c 0
 371 679 373 682 376 682 c 0
 378 682 381 681 385 679 c 2
EndSplineSet
EndChar
StartChar: macron
Encoding: 197 175 218
Width: 479
Flags: MW
HStem: 609 50<118 362>
Fore
118 659 m 1
 362 659 l 1
 362 609 l 1
 118 609 l 1
 118 659 l 1
EndSplineSet
EndChar
StartChar: breve
Encoding: 198 728 213
Width: 479
Flags: MW
HStem: 544 49<220.5 262.5>
Fore
116 675 m 1
 157 675 l 1
 168 624 199 593 242 593 c 0
 283 593 315 625 324 675 c 1
 366 675 l 1
 357 590 313 544 241 544 c 0
 169 544 125 590 116 675 c 1
EndSplineSet
EndChar
StartChar: dotaccent
Encoding: 199 729 207
Width: 480
Flags: W
Fore
255 655 m 0
 285 655 310 630 310 600 c 0
 310 569 286 545 255 545 c 0
 224 545 200 569 200 601 c 0
 200 630 225 655 255 655 c 0
EndSplineSet
EndChar
StartChar: dieresis
Encoding: 200 168 206
Width: 479
Flags: MW
VStem: 86 110<585.5 615> 290 110<585.5 615.5>
Fore
141 655 m 0
 171 655 196 630 196 600 c 0
 196 569 172 545 140 545 c 0
 110 545 86 570 86 601 c 0
 86 630 111 655 141 655 c 0
345 655 m 0
 376 655 400 631 400 600 c 0
 400 569 376 545 344 545 c 0
 314 545 290 570 290 601 c 0
 290 630 315 655 345 655 c 0
EndSplineSet
EndChar
StartChar: ring
Encoding: 202 730 208
Width: 479
Flags: MW
HStem: 513 42<222.5 259.5> 688 42<223.5 260>
VStem: 134 41<604 640.5> 308 42<603.5 640>
Fore
242 730 m 0
 302 730 350 682 350 622 c 0
 350 561 302 513 241 513 c 0
 182 513 134 562 134 623 c 0
 134 681 183 730 242 730 c 0
242 688 m 0
 205 688 175 658 175 623 c 0
 175 585 204 555 241 555 c 0
 278 555 308 585 308 622 c 0
 308 658 278 688 242 688 c 0
EndSplineSet
EndChar
StartChar: cedilla
Encoding: 203 184 216
Width: 479
Flags: MW
HStem: -211 34<204.5 226.5>
VStem: 263 63<-141.5 -124.5>
Fore
298 3 m 1
 254 -49 l 1
 301 -57 326 -80 326 -115 c 0
 326 -168 269 -211 198 -211 c 0
 154 -211 122 -196 122 -175 c 0
 122 -164 131 -154 141 -154 c 0
 145 -154 152 -156 159 -160 c 0
 186 -173 197 -177 212 -177 c 0
 241 -177 263 -159 263 -136 c 0
 263 -113 245 -98 217 -98 c 2
 193 -99 l 1
 176 -81 l 1
 273 10 l 1
 298 3 l 1
EndSplineSet
EndChar
StartChar: hungarumlaut
Encoding: 205 733 215
Width: 480
Flags: W
Fore
152 536 m 2
 219 696 l 2
 247 763 258 777 281 777 c 0
 302 777 320 759 320 739 c 0
 320 720 313 707 281 664 c 2
 174 521 l 2
 168 513 168 513 166 513 c 0
 164 513 163 514 160 515 c 2
 153 519 l 2
 151 521 149 523 149 525 c 0
 149 527 150 531 152 536 c 2
291 536 m 1
 358 696 l 2
 386 764 396 777 419 777 c 0
 440 777 458 759 458 739 c 0
 458 720 451 706 419 664 c 2
 312 521 l 2
 306 513 306 513 304 513 c 0
 303 513 301 514 299 515 c 2
 291 519 l 2
 289 521 287 523 287 525 c 0
 287 526 288 530 291 536 c 1
EndSplineSet
EndChar
StartChar: ogonek
Encoding: 206 731 217
Width: 480
Flags: MW
HStem: -177 36
VStem: 183 63<-116 -93>
Fore
338 23 m 1
 347 12 l 1
 266 -53 246 -76 246 -105 c 0
 246 -127 266 -141 295 -141 c 0
 315 -141 331 -137 356 -127 c 1
 371 -143 l 1
 322 -168 293 -177 260 -177 c 0
 216 -177 183 -149 183 -111 c 0
 183 -75 208 -45 263 -15 c 0
 264 -14 289 -2 338 23 c 1
EndSplineSet
EndChar
StartChar: caron
Encoding: 207 711 212
Width: 479
Flags: W
Fore
256 598 m 1
 350 769 l 1
 354 775 356 777 358 777 c 0
 359 777 361 776 364 775 c 2
 375 769 l 2
 378 768 380 766 380 764 c 0
 380 761 379 757 377 753 c 1
 311 584 l 2
 289 528 276 513 250 513 c 0
 238 513 225 519 217 529 c 0
 208 541 208 541 191 582 c 2
 120 754 l 2
 118 759 117 763 117 765 c 0
 117 766 119 769 123 770 c 2
 133 774 l 2
 136 775 138 776 139 776 c 0
 142 776 145 773 149 768 c 1
 256 598 l 1
EndSplineSet
EndChar
StartChar: emdash
Encoding: 208 8212 169
Width: 812
Flags: MW
HStem: 194 71<37 773>
Fore
18 210 m 2
 18 249 l 2
 18 263 20 265 37 265 c 2
 773 265 l 2
 789 265 791 264 791 249 c 2
 791 210 l 2
 791 195 789 194 773 194 c 2
 37 194 l 2
 20 194 18 196 18 210 c 2
EndSplineSet
EndChar
StartChar: AE
Encoding: 225 198 27
Width: 1069
Flags: W
HStem: -5 20 0 20 353 34<713 761> 356 34<407 578> 669 20<641.5 674> 675 20<430 437>
VStem: 578 90<132 135 135 352 390 555>
Fore
578 356 m 1x92
 382 356 l 1
 234 148 l 2
 203 105 184 70 184 56 c 0
 184 37 199 31 250 28 c 0
 268 26 269 26 269 17 c 2
 269 4 l 2
 269 -3 268 -5 262 -5 c 0x92
 257 -5 247 -5 237 -4 c 0
 214 -2 157 0 141 0 c 0x42
 130 0 53 -3 45 -4 c 0
 37 -5 30 -5 26 -5 c 0
 20 -5 18 -3 18 4 c 2
 18 17 l 2
 18 27 18 27 50 30 c 0
 83 33 95 39 114 61 c 0
 122 70 130 79 137 90 c 0
 148 105 159 119 171 134 c 1
 483 565 l 2
 496 583 509 615 509 630 c 0
 509 650 499 655 445 658 c 0
 420 659 420 659 420 671 c 2
 420 682 l 2
 420 693 423 695 437 695 c 2x86
 469 694 l 2
 496 692 623 689 660 689 c 0
 688 689 724 690 771 691 c 2
 831 693 l 1
 961 694 l 2
 989 695 989 695 989 667 c 2
 989 566 l 1
 988 545 988 545 979 545 c 2
 969 545 l 2
 958 545 958 545 956 575 c 0
 953 617 939 641 912 652 c 0
 895 660 871 662 814 662 c 0
 745 662 709 659 694 653 c 0
 671 643 668 631 668 555 c 2
 668 388 l 1
 711 387 l 2
 811 387 842 393 862 414 c 1
 870 424 879 442 885 464 c 0
 887 470 889 472 896 472 c 2
 902 472 l 2
 909 471 912 469 912 462 c 1
 911 441 l 1
 908 415 906 388 906 365 c 0
 906 338 908 298 910 288 c 0
 912 278 913 269 913 265 c 0
 913 260 910 257 904 256 c 2
 892 255 l 1
 891 255 l 2
 882 255 880 259 874 303 c 0
 867 353 866 353 720 353 c 0
 706 353 706 353 681 352 c 2
 668 352 l 1
 668 135 l 2
 668 77 670 67 688 52 c 0
 706 37 730 32 792 32 c 2
 839 32 l 2
 957 32 964 36 1014 132 c 0
 1020 144 1023 147 1027 147 c 0
 1040 147 1050 143 1050 137 c 0
 1050 134 1048 126 1046 116 c 1
 1021 32 l 1
 1015 10 1010 -1 1006 -3 c 0
 1001 -5 998 -5 970 -5 c 2xaa
 736 -2 l 2
 699 -1 699 -1 675 -1 c 2
 647 -1 l 2
 628 0 615 0 615 0 c 2x42
 604 0 533 -3 517 -4 c 0
 504 -5 495 -5 486 -5 c 0
 476 -5 473 -2 473 8 c 2
 473 14 l 2
 473 27 474 28 507 28 c 0
 546 28 565 38 573 59 c 0
 576 68 578 96 578 132 c 2
 578 356 l 1x92
578 390 m 1
 578 573 l 2
 578 622 576 632 565 643 c 1
 545 594 522 549 500 518 c 2
 407 390 l 1
 578 390 l 1
EndSplineSet
EndChar
StartChar: ordfeminine
Encoding: 227 170 196
Width: 479
Flags: MW
HStem: 335 49 400 20
VStem: 110 70<414.5 425> 287 65<425 445 445 487 487 487 513 560>
Fore
287 513 m 1
 287 574 l 2
 287 596 285 605 279 612 c 0
 271 620 248 627 227 627 c 0
 196 627 170 614 170 600 c 2
 170 585 l 2
 170 581 168 577 165 576 c 2
 136 556 l 2
 132 554 128 553 125 553 c 0
 117 553 113 560 113 572 c 0
 113 593 131 612 170 634 c 2
 247 675 l 1
 302 667 323 658 337 639 c 0
 350 623 352 610 352 560 c 2
 352 445 l 2
 352 399 357 384 371 384 c 0
 375 384 375 384 391 395 c 0
 395 398 400 400 403 400 c 0
 408 400 411 396 411 391 c 0
 411 386 407 379 398 366 c 0
 383 344 369 335 350 335 c 0
 320 335 301 354 293 392 c 1
 246 350 214 335 172 335 c 0
 154 335 142 342 131 357 c 0
 118 376 110 398 110 417 c 0
 110 433 119 445 142 456 c 0
 167 469 198 482 218 489 c 2
 287 513 l 1
287 487 m 1
 226 462 l 2
 189 447 180 440 180 426 c 0
 180 403 195 384 213 384 c 0
 233 384 262 400 287 425 c 1
 287 487 l 1
EndSplineSet
EndChar
StartChar: Lslash
Encoding: 232 321 46
Width: 608
Flags: W
HStem: -5 20 0 20 669 20<156 174.5> 674 20<31 40 303.5 313>
VStem: 124 90<132 175 175 291 291 291 339 358 407 556>
Fore
124 339 m 1x88
 124 556 l 2
 124 619 121 634 108 646 c 0
 95 659 86 661 37 662 c 0
 26 662 23 665 23 675 c 2
 23 682 l 2
 23 691 26 694 36 694 c 0x18
 44 694 52 694 63 693 c 0
 88 691 145 689 167 689 c 0x28
 182 689 247 691 274 693 c 0
 288 694 299 694 308 694 c 0
 318 694 322 691 322 682 c 2
 322 675 l 2
 322 662 322 662 284 661 c 0
 250 661 233 654 223 639 c 0
 216 627 214 609 214 556 c 2
 214 407 l 1
 353 512 l 1
 353 463 l 1
 214 358 l 1
 214 175 l 2
 214 51 235 32 377 32 c 0
 445 32 487 40 503 56 c 0
 510 63 512 66 553 142 c 0
 556 147 560 149 565 149 c 0
 576 149 583 146 583 141 c 1
 582 132 l 1
 558 37 l 1
 554 18 549 5 544 0 c 0x58
 540 -4 531 -5 493 -5 c 2x88
 209 0 l 2x48
 201 0 76 -3 69 -4 c 0
 56 -5 45 -5 37 -5 c 0
 27 -5 23 -2 23 7 c 2
 23 14 l 2
 23 27 25 27 53 28 c 0
 86 28 105 35 115 50 c 0
 122 62 124 80 124 132 c 2
 124 291 l 1
 36 225 l 1
 36 273 l 1
 124 339 l 1x88
EndSplineSet
EndChar
StartChar: Oslash
Encoding: 233 216 29
Width: 848
Flags: W
HStem: -22 20 -20 34<384.5 508.5> 675 33<326 450> 687 20<779.5 786>
VStem: 33 106<328.5 432> 702 106<254.5 368>
Fore
45 22 m 2x8c
 122 94 l 1
 63 158 33 236 33 327 c 0
 33 537 207 708 420 708 c 0x6c
 514 708 607 676 680 617 c 1
 761 694 l 2
 772 704 777 707 782 707 c 0
 790 707 805 691 805 683 c 0
 805 680 803 678 793 668 c 2
 710 590 l 1
 775 524 808 445 808 358 c 0
 808 151 626 -20 404 -20 c 0x5c
 309 -20 221 10 153 66 c 1
 77 -6 l 2
 64 -18 58 -22 52 -22 c 0
 44 -22 29 -8 29 0 c 0
 29 5 33 11 45 22 c 2x8c
190 158 m 1
 625 565 l 1
 565 640 494 675 406 675 c 0
 246 675 139 550 139 365 c 0
 139 292 157 217 190 158 c 1
648 531 m 1
 213 122 l 1
 271 49 340 14 429 14 c 0
 588 14 702 146 702 331 c 0
 702 405 684 471 648 531 c 1
EndSplineSet
KernsSLIF: 65 -55 0 0
EndChar
StartChar: OE
Encoding: 234 338 28
Width: 1033
Flags: W
HStem: -20 38<379.5 398> 0 20 662 33<759 846.5> 669 20<600.5 618> 675 33<355.5 418.5>
VStem: 47 111<338 391> 543 90<175 353 389 491 491 556>
Fore
633 353 m 1x26
 633 136 l 2
 633 77 635 67 653 52 c 0
 671 37 695 32 757 32 c 2
 797 32 l 2
 914 32 924 37 972 132 c 0
 978 144 981 147 985 147 c 0
 999 147 1008 143 1008 136 c 0
 1008 134 1006 127 1003 117 c 2
 979 32 l 2
 973 10 968 -1 964 -3 c 0
 959 -5 956 -5 927 -5 c 2
 701 -2 l 1
 664 -1 l 2
 648 0 635 0 629 0 c 0x46
 571 0 547 -2 490 -10 c 0
 445 -17 413 -20 383 -20 c 0
 285 -20 201 23 133 109 c 0
 76 181 47 260 47 341 c 0
 47 441 92 543 165 614 c 1
 230 675 311 708 400 708 c 0x8e
 437 708 475 705 531 697 c 0
 575 690 588 689 613 689 c 0x16
 623 689 629 689 717 693 c 0
 738 694 753 695 759 695 c 2
 929 695 l 2
 960 695 960 695 960 667 c 2
 960 567 l 2
 960 547 959 545 950 545 c 2
 940 545 l 2
 929 545 929 545 927 575 c 0
 922 644 895 662 798 662 c 0
 708 662 676 660 659 653 c 0
 636 643 633 631 633 556 c 2
 633 389 l 1
 656 388 656 388 676 388 c 0
 811 388 825 394 848 464 c 0
 850 471 852 472 859 472 c 2
 865 472 l 2
 872 472 875 469 875 462 c 0
 875 457 874 450 873 441 c 0
 871 419 869 389 869 366 c 0
 869 338 871 298 873 289 c 0
 875 278 876 270 876 266 c 0
 876 261 872 257 867 257 c 2
 855 256 l 1
 848 257 848 257 845 260 c 0
 843 264 842 272 837 304 c 0
 830 352 826 354 710 354 c 0
 702 354 685 354 633 353 c 1x26
543 175 m 2x8e
 543 491 l 2
 543 623 504 675 405 675 c 0
 265 675 158 546 158 377 c 0
 158 299 184 209 226 137 c 0
 273 58 338 18 421 18 c 0
 460 18 493 29 511 47 c 0
 535 71 543 105 543 175 c 2x8e
EndSplineSet
EndChar
StartChar: ordmasculine
Encoding: 235 186 197
Width: 479
Flags: MW
HStem: 334 29<213 271.5> 646 29<206 264.5>
VStem: 66 69<474 549.5> 343 74<462.5 537.5>
Fore
243 675 m 0
 339 675 417 600 417 509 c 0
 417 416 332 334 235 334 c 0
 142 334 66 410 66 503 c 0
 66 596 147 675 243 675 c 0
234 646 m 0
 178 646 135 590 135 516 c 0
 135 432 183 363 243 363 c 0
 300 363 343 420 343 495 c 0
 343 580 295 646 234 646 c 0
EndSplineSet
EndChar
StartChar: ae
Encoding: 241 230 88
Width: 645
Flags: W
HStem: -20 57 -20 64<436 469.5> 405 33<445.5 465>
VStem: 31 81<86 111.5> 41 63
Fore
593 321 m 1xa8
 332 227 l 1
 334 155 338 127 349 104 c 0
 369 63 406 44 466 44 c 0
 520 44 548 59 589 112 c 1
 612 101 l 1
 569 15 514 -20 425 -20 c 0x70
 348 -20 295 10 265 71 c 1
 206 3 168 -20 115 -20 c 0
 90 -20 73 -10 57 13 c 0
 41 37 31 66 31 92 c 0xb0
 31 131 59 153 152 190 c 2
 255 231 l 1
 255 282 l 2
 255 323 251 338 238 353 c 0
 226 366 203 374 177 374 c 0
 134 374 104 358 104 337 c 0
 104 330 105 326 109 315 c 1
 47 280 l 1
 42 293 41 299 41 307 c 0
 41 338 56 355 116 391 c 2
 195 438 l 1
 277 437 315 407 322 339 c 1
 363 410 409 438 482 438 c 0
 525 438 559 426 576 404 c 0
 588 388 592 367 593 321 c 1xa8
334 255 m 1
 416 287 l 2
 480 311 503 330 503 357 c 0
 503 384 480 405 450 405 c 0
 428 405 404 395 385 378 c 0
 354 349 341 319 334 255 c 1
255 202 m 1x90
 179 168 l 2
 130 146 112 129 112 104 c 0
 112 68 138 37 167 37 c 0
 191 37 228 61 255 93 c 1
 255 202 l 1x90
EndSplineSet
KernsSLIF: 121 1 0 0 118 1 0 0
EndChar
StartChar: dotlessi
Encoding: 245 305 92
Width: 276
Flags: W
HStem: -7 20 0 20 420 20<175 175>
VStem: 104 76<133 267 267 285>
Fore
52 365 m 1x90
 50 378 l 1
 116 410 l 2
 154 428 158 430 175 440 c 1
 182 437 l 1
 181 409 l 1
 181 361 l 1
 180 285 l 1
 180 133 l 1
 181 65 l 1
 181 36 192 27 235 22 c 0
 247 21 251 19 251 12 c 2
 251 5 l 2
 251 -4 248 -7 240 -7 c 0xb0
 235 -7 235 -7 204 -4 c 0
 183 -1 161 0 139 0 c 0x50
 110 0 101 -1 54 -6 c 0
 50 -7 44 -7 40 -7 c 0
 31 -7 28 -4 28 5 c 2
 28 12 l 2
 28 19 31 21 44 22 c 0
 77 24 95 31 100 45 c 0
 102 50 103 58 104 73 c 1
 104 133 l 1
 104 267 l 2
 104 336 102 339 52 365 c 1x90
EndSplineSet
EndChar
StartChar: lslash
Encoding: 248 322 110
Width: 276
Flags: W
HStem: -7 20 0 20
VStem: 100 76<133 349 349 349 397 406 454 597 597 613>
Fore
176 406 m 1xa0
 176 133 l 1
 177 58 l 1
 178 35 193 26 231 22 c 0
 243 21 247 19 247 12 c 2
 247 5 l 2
 247 -4 244 -7 235 -7 c 0xa0
 229 -7 222 -6 194 -4 c 0
 171 -1 152 0 138 0 c 0x60
 124 0 105 -1 83 -3 c 0
 52 -7 47 -7 38 -7 c 0
 26 -7 24 -5 24 5 c 2
 24 12 l 2
 24 20 27 21 45 22 c 0
 66 22 88 31 94 41 c 0
 100 50 100 56 100 133 c 2
 100 349 l 1
 9 280 l 1
 9 328 l 1
 100 397 l 1
 100 597 l 2
 100 665 99 668 48 694 c 1
 47 708 l 1
 112 739 l 2
 124 745 136 750 147 756 c 2
 171 769 l 1
 178 766 l 1
 177 735 l 1
 177 681 l 1
 176 613 l 1
 176 454 l 1
 269 524 l 1
 269 476 l 1
 176 406 l 1xa0
EndSplineSet
EndChar
StartChar: oslash
Encoding: 249 248 90
Width: 535
Flags: MW
HStem: -20 33<253.5 315> 405 33<234 279>
VStem: 38 88<201 246.5> 406 88<148 215>
Fore
474 424 m 2
 429 372 l 1
 474 324 494 275 494 213 c 0
 494 83 388 -20 254 -20 c 0
 204 -20 168 -9 128 20 c 1
 84 -31 l 2
 73 -44 70 -47 66 -47 c 0
 57 -47 41 -34 41 -26 c 0
 41 -24 41 -24 58 -4 c 2
 100 45 l 1
 60 88 38 143 38 203 c 0
 38 332 144 438 273 438 c 0
 320 438 359 425 400 396 c 1
 443 446 l 2
 462 467 462 467 464 467 c 0
 473 467 490 453 490 446 c 0
 490 443 487 439 474 424 c 2
381 316 m 1
 170 69 l 1
 197 32 232 13 275 13 c 0
 355 13 406 81 406 191 c 0
 406 239 399 276 381 316 c 1
150 103 m 1
 362 351 l 1
 335 388 302 405 256 405 c 0
 212 405 177 387 158 354 c 0
 138 320 126 271 126 222 c 0
 126 180 134 139 150 103 c 1
EndSplineSet
EndChar
StartChar: oe
Encoding: 250 339 89
Width: 756
Flags: W
HStem: -20 34<212 273.5> -20 65<564.5 584.5> 404 34<547.5 584.5> 405 33<195.5 267.5>
VStem: 36 78<166 263> 366 92<211.5 239.5>
Fore
717 259 m 1x2c
 461 259 l 1
 458 248 458 244 458 235 c 0
 458 188 465 155 480 125 c 0
 507 72 543 45 586 45 c 0
 627 45 663 64 696 103 c 1
 717 87 l 1
 678 20 617 -20 552 -20 c 0x5c
 508 -20 464 3 437 38 c 0
 432 46 429 50 416 70 c 1
 359 8 306 -20 241 -20 c 0
 129 -20 36 80 36 202 c 0
 36 324 139 438 251 438 c 0x9c
 316 438 383 400 427 338 c 1
 472 407 519 438 576 438 c 0
 624 438 669 411 695 369 c 0
 711 342 717 316 717 274 c 2
 717 259 l 1x2c
229 405 m 0
 162 405 114 328 114 223 c 0
 114 109 175 14 249 14 c 0x9c
 316 14 366 89 366 190 c 0
 366 311 306 405 229 405 c 0
465 282 m 1x2c
 569 285 l 2
 609 286 613 287 623 294 c 0
 631 301 635 311 635 324 c 0
 635 364 601 404 568 404 c 0
 523 404 482 355 465 282 c 1x2c
EndSplineSet
EndChar
StartChar: germandbls
Encoding: 251 223 91
Width: 553
Flags: W
HStem: -15 27<386 414.5> -7 20 0 20 732 38<308.5 333.5>
VStem: 101 76<94 133 133 289 289 325.5> 288 74<37 48 48 62> 292 63 403 74<617.5 652> 458 63<92 115.5>
Fore
177 486 m 2x9b
 177 133 l 2
 177 55 177 50 183 41 c 0
 187 33 209 23 224 22 c 0
 238 20 240 19 240 12 c 2
 240 5 l 2
 240 -4 237 -7 229 -7 c 0x4b
 225 -7 225 -7 194 -4 c 0
 174 -1 155 0 140 0 c 0x2b
 124 0 106 -1 83 -3 c 0
 55 -6 47 -7 39 -7 c 0x4b
 29 -7 26 -4 26 5 c 2
 26 12 l 2
 26 19 30 21 42 22 c 0
 74 24 92 31 97 44 c 0
 99 50 100 58 101 73 c 1
 101 133 l 1
 101 289 l 2
 101 362 99 367 62 368 c 2
 42 369 l 2
 26 370 24 371 24 379 c 2
 24 386 l 2
 24 392 26 394 34 395 c 1
 78 409 96 438 102 503 c 0
 112 592 135 651 179 696 c 0
 222 741 283 770 334 770 c 0
 415 770 477 714 477 641 c 0
 477 594 456 553 404 501 c 0
 364 460 355 446 355 427 c 0x9b
 355 403 373 375 425 316 c 0
 501 231 521 193 521 134 c 0
 521 50 460 -15 383 -15 c 0
 328 -15 288 16 288 58 c 0
 288 85 305 105 328 105 c 0
 348 105 363 91 363 74 c 0
 363 70 363 67 362 62 c 1
 362 48 l 2
 362 25 375 12 397 12 c 0
 432 12 458 47 458 93 c 0x9480
 458 138 433 182 368 252 c 0
 306 318 292 343 292 381 c 0
 292 410 299 425 347 492 c 0
 392 556 403 581 403 618 c 0
 403 686 363 732 304 732 c 0
 216 732 177 657 177 486 c 2x9b
EndSplineSet
EndChar
StartChar: Adieresis
Encoding: 256 196 30
Width: 756
Flags: W
HStem: -5 20 0 20 273 39<245 452> 791 110<273 302.5 487 516.5>
VStem: 233 110<831.5 861> 447 110<831.5 861>
Fore
467 273 m 1xac
 233 273 l 1
 196 158 l 1
 184 119 177 88 177 70 c 0
 177 41 201 28 255 26 c 0
 260 26 261 24 261 16 c 2
 261 5 l 2
 261 -3 259 -5 250 -5 c 2xbc
 121 0 l 2x4c
 108 0 96 -1 82 -2 c 0
 55 -4 36 -5 27 -5 c 0
 20 -5 18 -2 18 7 c 2
 18 18 l 2
 18 26 20 26 40 28 c 0
 100 34 103 37 134 131 c 1
 318 667 l 1
 334 686 364 711 384 721 c 1
 621 123 l 1
 651 43 666 30 727 28 c 0
 733 28 734 25 734 18 c 2
 734 5 l 2
 734 -3 732 -5 725 -5 c 2
 711 -5 l 2x8c
 683 -3 603 0 596 0 c 0x4c
 581 0 507 -3 489 -4 c 0
 484 -5 479 -5 477 -5 c 0
 470 -5 468 -2 468 7 c 2
 468 17 l 2
 468 27 468 27 494 28 c 0
 532 30 549 38 549 55 c 0
 549 62 547 69 541 84 c 0
 537 93 534 102 530 110 c 1
 467 273 l 1xac
452 312 m 1
 341 597 l 1
 245 312 l 1
 452 312 l 1
288 901 m 0
 318 901 343 876 343 846 c 0
 343 815 318 791 287 791 c 0
 257 791 233 816 233 847 c 0
 233 876 258 901 288 901 c 0
502 901 m 0
 532 901 557 876 557 846 c 0
 557 815 532 791 501 791 c 0
 471 791 447 816 447 847 c 0
 447 876 472 901 502 901 c 0
EndSplineSet
KernsSLIF: 121 -79 0 0 119 -81 0 0 118 -79 0 0 117 -29 0 0 116 -16 0 0 39 -97 0 0 186 -89 0 0 113 -27 0 0 46 -4 0 0 111 -30 0 0 45 -11 0 0 172 -47 0 0 171 -46 0 0 100 -22 0 0 99 -20 0 0 98 -12 0 0 89 -76 0 0 87 -119 0 0 86 -128 0 0 85 -75 0 0 84 -60 0 0 81 -63 0 0 79 -63 0 0 71 -69 0 0 67 -71 0 0
EndChar
StartChar: Aacute
Encoding: 257 193 31
Width: 756
Flags: W
HStem: -5 20 0 20 273 39<245 452>
Fore
467 273 m 1xa0
 233 273 l 1
 196 158 l 1
 184 119 177 88 177 70 c 0
 177 41 201 28 255 26 c 0
 260 26 261 24 261 16 c 2
 261 5 l 2
 261 -3 259 -5 250 -5 c 2xa0
 121 0 l 2x40
 108 0 96 -1 82 -2 c 0
 55 -4 36 -5 27 -5 c 0
 20 -5 18 -2 18 7 c 2
 18 18 l 2
 18 26 20 26 40 28 c 0
 100 34 103 37 134 131 c 1
 318 667 l 1
 334 686 364 711 384 721 c 1
 621 123 l 1
 651 43 666 30 727 28 c 0
 733 28 734 25 734 18 c 2
 734 5 l 2
 734 -3 732 -5 725 -5 c 2
 711 -5 l 2x80
 683 -3 603 0 596 0 c 0x40
 581 0 507 -3 489 -4 c 0
 484 -5 479 -5 477 -5 c 0
 470 -5 468 -2 468 7 c 2
 468 17 l 2
 468 27 468 27 494 28 c 0
 532 30 549 38 549 55 c 0
 549 62 547 69 541 84 c 0
 537 93 534 102 530 110 c 1
 467 273 l 1xa0
452 312 m 1
 341 597 l 1
 245 312 l 1
 452 312 l 1
299 790 m 2
 427 905 l 2
 464 939 471 943 487 943 c 0
 509 943 528 921 528 896 c 0
 528 871 513 855 473 835 c 2
 321 761 l 2
 318 759 314 758 311 758 c 0
 308 758 304 760 302 763 c 2
 297 773 l 2
 295 776 294 779 294 781 c 0
 294 784 296 787 299 790 c 2
EndSplineSet
KernsSLIF: 121 -79 0 0 119 -81 0 0 118 -79 0 0 117 -29 0 0 116 -16 0 0 39 -97 0 0 113 -27 0 0 46 -4 0 0 111 -30 0 0 45 -11 0 0 172 -47 0 0 171 -46 0 0 101 -20 0 0 100 -22 0 0 99 -20 0 0 98 -13 0 0 89 -76 0 0 87 -119 0 0 86 -128 0 0 85 -75 0 0 84 -60 0 0 81 -63 0 0 79 -63 0 0 71 -69 0 0 67 -71 0 0
EndChar
StartChar: Agrave
Encoding: 258 192 32
Width: 756
Flags: W
HStem: -5 20 0 20 273 39<245 452>
Fore
467 273 m 1xa0
 233 273 l 1
 196 158 l 1
 184 119 177 88 177 70 c 0
 177 41 201 28 255 26 c 0
 260 26 261 24 261 16 c 2
 261 5 l 2
 261 -3 259 -5 250 -5 c 2xa0
 121 0 l 2x40
 108 0 96 -1 82 -2 c 0
 55 -4 36 -5 27 -5 c 0
 20 -5 18 -2 18 7 c 2
 18 18 l 2
 18 26 20 26 40 28 c 0
 100 34 103 37 134 131 c 1
 318 667 l 1
 334 686 364 711 384 721 c 1
 621 123 l 1
 651 43 666 30 727 28 c 0
 733 28 734 25 734 18 c 2
 734 5 l 2
 734 -3 732 -5 725 -5 c 2
 711 -5 l 2x80
 683 -3 603 0 596 0 c 0x40
 581 0 507 -3 489 -4 c 0
 484 -5 479 -5 477 -5 c 0
 470 -5 468 -2 468 7 c 2
 468 17 l 2
 468 27 468 27 494 28 c 0
 532 30 549 38 549 55 c 0
 549 62 547 69 541 84 c 0
 537 93 534 102 530 110 c 1
 467 273 l 1xa0
452 312 m 1
 341 597 l 1
 245 312 l 1
 452 312 l 1
436 761 m 2
 284 835 l 2
 244 855 229 871 229 896 c 0
 229 921 248 943 270 943 c 0
 286 943 293 938 330 905 c 2
 458 790 l 2
 461 787 463 783 463 781 c 0
 463 779 462 776 460 773 c 2
 455 763 l 2
 453 760 449 758 446 758 c 0
 443 758 439 759 436 761 c 2
EndSplineSet
KernsSLIF: 46 -4 0 0 89 -76 0 0 87 -119 0 0 86 -128 0 0 85 -75 0 0 84 -60 0 0 81 -63 0 0 79 -63 0 0 71 -69 0 0 67 -71 0 0
EndChar
StartChar: Acircumflex
Encoding: 259 194 33
Width: 756
Flags: W
HStem: -5 20 0 20 273 39<245 452>
Fore
467 273 m 1xa0
 233 273 l 1
 196 158 l 1
 184 119 177 88 177 70 c 0
 177 41 201 28 255 26 c 0
 260 26 261 24 261 16 c 2
 261 5 l 2
 261 -3 259 -5 250 -5 c 2xa0
 121 0 l 2x40
 108 0 96 -1 82 -2 c 0
 55 -4 36 -5 27 -5 c 0
 20 -5 18 -2 18 7 c 2
 18 18 l 2
 18 26 20 26 40 28 c 0
 100 34 103 37 134 131 c 1
 318 667 l 1
 334 686 364 711 384 721 c 1
 621 123 l 1
 651 43 666 30 727 28 c 0
 733 28 734 25 734 18 c 2
 734 5 l 2
 734 -3 732 -5 725 -5 c 2
 711 -5 l 2x80
 683 -3 603 0 596 0 c 0x40
 581 0 507 -3 489 -4 c 0
 484 -5 479 -5 477 -5 c 0
 470 -5 468 -2 468 7 c 2
 468 17 l 2
 468 27 468 27 494 28 c 0
 532 30 549 38 549 55 c 0
 549 62 547 69 541 84 c 0
 537 93 534 102 530 110 c 1
 467 273 l 1xa0
452 312 m 1
 341 597 l 1
 245 312 l 1
 452 312 l 1
399 845 m 1
 270 762 l 2
 266 759 262 758 260 758 c 0
 258 758 255 760 253 763 c 2
 242 775 l 2
 240 777 238 781 238 782 c 0
 238 784 241 788 245 792 c 2
 343 893 l 1
 382 931 386 934 402 934 c 0
 418 934 425 929 459 893 c 2
 558 792 l 2
 561 788 564 785 564 782 c 0
 564 781 562 778 560 775 c 2
 548 762 l 1
 545 760 543 758 541 758 c 0
 540 758 536 760 531 763 c 2
 399 845 l 1
EndSplineSet
KernsSLIF: 46 -4 0 0 89 -76 0 0 87 -119 0 0 86 -128 0 0 85 -75 0 0 84 -60 0 0 81 -63 0 0 79 -63 0 0 71 -69 0 0 67 -71 0 0
EndChar
StartChar: Atilde
Encoding: 260 195 34
Width: 756
Flags: W
HStem: -5 20 0 20 273 39<245 452> 758 86<461 466> 844 86<291 307>
Fore
467 273 m 1xa0
 233 273 l 1
 196 158 l 1
 184 119 177 88 177 70 c 0
 177 41 201 28 255 26 c 0
 260 26 261 24 261 16 c 2
 261 5 l 2
 261 -3 259 -5 250 -5 c 2xb8
 121 0 l 2x40
 108 0 96 -1 82 -2 c 0
 55 -4 36 -5 27 -5 c 0
 20 -5 18 -2 18 7 c 2
 18 18 l 2
 18 26 20 26 40 28 c 0
 100 34 103 37 134 131 c 1
 318 667 l 1
 334 686 364 711 384 721 c 1
 621 123 l 1
 651 43 666 30 727 28 c 0
 733 28 734 25 734 18 c 2
 734 5 l 2
 734 -3 732 -5 725 -5 c 2
 711 -5 l 2x80
 683 -3 603 0 596 0 c 0x40
 581 0 507 -3 489 -4 c 0
 484 -5 479 -5 477 -5 c 0
 470 -5 468 -2 468 7 c 2
 468 17 l 2
 468 27 468 27 494 28 c 0
 532 30 549 38 549 55 c 0
 549 62 547 69 541 84 c 0
 537 93 534 102 530 110 c 1
 467 273 l 1xa0
452 312 m 1
 341 597 l 1
 245 312 l 1
 452 312 l 1
529 921 m 2
 538 917 l 2
 542 915 545 910 545 906 c 0
 545 889 526 833 512 806 c 0
 494 773 476 758 456 758 c 0
 430 758 422 763 361 813 c 0
 336 834 316 844 298 844 c 0
 271 844 250 819 232 767 c 0
 229 760 228 758 226 758 c 0
 224 758 220 758 219 759 c 2
 207 764 l 2
 204 765 202 769 202 773 c 0
 203 787 210 821 215 836 c 0
 237 895 272 930 310 930 c 0
 336 930 336 930 414 873 c 0
 446 849 455 844 467 844 c 0
 483 844 492 856 513 913 c 0
 516 920 518 923 521 923 c 0
 524 923 526 922 529 921 c 2
EndSplineSet
KernsSLIF: 46 -4 0 0 89 -76 0 0 87 -119 0 0 86 -128 0 0 85 -75 0 0 84 -60 0 0 81 -63 0 0 79 -63 0 0 71 -69 0 0 67 -71 0 0
EndChar
StartChar: Aring
Encoding: 261 197 35
Width: 756
Flags: W
HStem: -5 20 0 20 273 39<245 452> 735 50<358.5 397> 903 50<360.5 397.5>
VStem: 262 50<826.5 860> 445 50<827 860.5>
Fore
467 273 m 1xa6
 233 273 l 1
 196 158 l 1
 184 119 177 88 177 70 c 0
 177 41 201 28 255 26 c 0
 260 26 261 24 261 16 c 2
 261 5 l 2
 261 -3 259 -5 250 -5 c 2xbe
 121 0 l 2x46
 108 0 96 -1 82 -2 c 0
 55 -4 36 -5 27 -5 c 0
 20 -5 18 -2 18 7 c 2
 18 18 l 2
 18 26 20 26 40 28 c 0
 100 34 103 37 134 131 c 1
 318 667 l 1
 334 686 364 711 384 721 c 1
 621 123 l 1
 651 43 666 30 727 28 c 0
 733 28 734 25 734 18 c 2
 734 5 l 2
 734 -3 732 -5 725 -5 c 2
 711 -5 l 2x86
 683 -3 603 0 596 0 c 0x46
 581 0 507 -3 489 -4 c 0
 484 -5 479 -5 477 -5 c 0
 470 -5 468 -2 468 7 c 2
 468 17 l 2
 468 27 468 27 494 28 c 0
 532 30 549 38 549 55 c 0
 549 62 547 69 541 84 c 0
 537 93 534 102 530 110 c 1
 467 273 l 1xa6
452 312 m 1
 341 597 l 1
 245 312 l 1
 452 312 l 1
379 953 m 0
 443 953 495 905 495 846 c 0
 495 786 440 735 377 735 c 0
 314 735 262 785 262 846 c 0
 262 904 316 953 379 953 c 0
379 903 m 0
 342 903 312 876 312 844 c 0
 312 809 339 785 378 785 c 0
 416 785 445 810 445 844 c 0
 445 877 416 903 379 903 c 0
EndSplineSet
KernsSLIF: 121 -79 0 0 119 -81 0 0 118 -79 0 0 117 -29 0 0 116 -16 0 0 39 -97 0 0 186 -89 0 0 113 -27 0 0 46 -4 0 0 111 -30 0 0 45 -11 0 0 172 -47 0 0 171 -46 0 0 101 -20 0 0 100 -22 0 0 99 -20 0 0 98 -12 0 0 89 -76 0 0 87 -119 0 0 86 -128 0 0 85 -75 0 0 84 -60 0 0 81 -63 0 0 79 -63 0 0 71 -69 0 0 67 -71 0 0
EndChar
StartChar: Ccedilla
Encoding: 262 199 36
Width: 738
Flags: MW
HStem: -226 37<377 399.5> 669 39<360 480.5>
VStem: 47 112<255 436.5> 435 80<-155 -136>
Fore
460 -20 m 1
 429 -55 l 1
 484 -64 515 -91 515 -127 c 0
 515 -183 458 -226 383 -226 c 0
 328 -226 289 -211 289 -190 c 0
 289 -178 299 -168 310 -168 c 0
 316 -168 324 -170 332 -174 c 0
 363 -187 369 -189 385 -189 c 0
 414 -189 435 -170 435 -144 c 0
 435 -128 426 -115 411 -107 c 0
 402 -103 392 -102 364 -101 c 1
 353 -78 l 1
 422 -19 l 1
 208 -4 47 152 47 345 c 0
 47 545 223 708 439 708 c 0
 522 708 613 685 678 649 c 1
 693 524 l 1
 694 519 694 515 694 514 c 0
 694 509 692 507 685 506 c 2
 678 505 l 2
 675 504 674 504 672 504 c 0
 668 504 668 504 652 544 c 0
 619 621 539 669 440 669 c 0
 280 669 159 529 159 344 c 0
 159 166 287 19 443 19 c 0
 528 19 611 53 641 100 c 0
 652 118 662 139 668 162 c 0
 673 177 675 180 681 179 c 2
 687 178 l 1
 694 177 l 2
 701 177 704 174 704 169 c 0
 704 166 704 166 701 152 c 1
 680 33 l 1
 619 1 541 -18 460 -20 c 1
EndSplineSet
EndChar
StartChar: Eth
Encoding: 263 208 37
Width: 793
Flags: W
HStem: -5 32<332.5 387> 0 20 349 39<21 120 210 447> 676 32<301 384>
VStem: 120 90<138 173 173 349 388 499 499 559.5> 646 106<287 397>
Fore
120 388 m 1x6c
 120 499 l 2
 120 620 120 624 107 638 c 0
 99 648 82 653 61 653 c 0
 52 653 41 652 27 649 c 0
 24 648 20 648 19 648 c 0
 12 648 10 653 10 670 c 0
 10 680 17 682 61 688 c 0
 141 700 261 708 341 708 c 0
 443 708 516 691 583 651 c 0
 691 588 752 479 752 349 c 0
 752 225 697 124 597 61 c 0
 521 14 445 -5 329 -5 c 0xbc
 295 -5 295 -5 218 -2 c 0
 196 -1 178 0 165 0 c 0
 146 0 76 -2 56 -4 c 0
 43 -5 34 -5 26 -5 c 0
 16 -5 12 -2 12 8 c 2
 12 14 l 2
 12 27 15 28 40 28 c 0
 83 28 100 34 111 51 c 0
 118 61 120 82 120 133 c 2
 120 349 l 1
 21 349 l 1
 21 388 l 1
 120 388 l 1x6c
210 388 m 1
 447 388 l 1
 447 349 l 1
 210 349 l 1
 210 173 l 2
 210 103 216 79 242 59 c 0
 266 39 309 27 356 27 c 0
 523 27 646 163 646 349 c 0
 646 445 615 530 556 592 c 0
 500 652 436 676 332 676 c 0
 270 676 236 668 221 650 c 0
 212 638 210 626 210 568 c 2
 210 388 l 1
EndSplineSet
EndChar
StartChar: Edieresis
Encoding: 264 203 38
Width: 627
Flags: W
HStem: -5 20 0 20 354 34<273 339> 662 33<36.5 45 369 399.5> 669 20<205.5 214> 791 110<209 239 424 454>
VStem: 138 90<133 136 136 353 389 556> 169 110<831.5 861> 384 110<831.5 861>
Fore
228 353 m 1x32
 228 136 l 2
 228 77 230 67 248 52 c 0
 266 37 290 32 352 32 c 2
 386 32 l 2
 503 32 511 36 561 132 c 0
 567 144 570 147 574 147 c 0
 587 147 597 143 597 137 c 0
 597 135 595 127 592 117 c 2
 568 32 l 1
 561 10 556 -1 552 -3 c 0
 548 -5 544 -5 516 -5 c 2x86
 296 -2 l 2
 259 -1 259 -1 235 -1 c 2
 205 -1 l 2
 181 0 170 0 170 0 c 2x42
 152 0 137 -1 113 -2 c 0
 77 -4 58 -5 43 -5 c 0
 27 -5 24 -3 24 8 c 2
 24 14 l 2
 24 28 24 28 67 28 c 0
 100 28 119 35 129 51 c 0
 136 62 138 82 138 133 c 2
 138 557 l 2
 138 618 135 635 123 647 c 0
 108 660 101 662 42 662 c 0
 31 662 27 666 27 676 c 2
 27 682 l 2
 27 691 31 695 41 695 c 0x92
 49 695 60 695 73 694 c 2
 113 692 l 1
 161 691 l 2
 185 690 202 689 209 689 c 0x0a
 219 689 237 690 261 691 c 0
 305 693 349 695 369 695 c 2
 515 695 l 2
 543 695 543 695 543 668 c 2
 543 567 l 2
 543 547 542 545 533 545 c 2
 523 545 l 2
 512 545 512 545 510 575 c 0
 507 617 493 641 466 653 c 0
 449 660 427 662 372 662 c 0
 228 662 228 662 228 556 c 2
 228 389 l 1
 237 388 265 388 271 388 c 0
 407 388 423 395 445 465 c 0
 447 471 449 472 456 472 c 2
 462 472 l 2
 469 472 472 469 472 463 c 1
 471 442 l 1
 468 418 466 386 466 364 c 0
 466 338 468 298 470 289 c 0
 472 278 473 270 473 266 c 0
 473 261 470 257 464 257 c 2
 452 256 l 2
 441 256 441 257 434 304 c 0
 427 354 427 354 280 354 c 0
 266 354 266 354 242 353 c 2
 228 353 l 1x32
224 901 m 0
 254 901 279 876 279 846 c 0
 279 815 254 791 224 791 c 0
 193 791 169 816 169 847 c 0x8580
 169 876 194 901 224 901 c 0
439 901 m 0
 469 901 494 876 494 846 c 0
 494 815 469 791 439 791 c 0
 408 791 384 816 384 847 c 0
 384 876 409 901 439 901 c 0
EndSplineSet
EndChar
StartChar: Eacute
Encoding: 265 201 39
Width: 627
Flags: W
HStem: -5 20 0 20 354 34<273 339> 662 33<36.5 45 369 399.5> 669 20<205.5 214>
VStem: 138 90<133 136 136 353 389 556>
Fore
228 353 m 1x34
 228 136 l 2
 228 77 230 67 248 52 c 0
 266 37 290 32 352 32 c 2
 386 32 l 2
 503 32 511 36 561 132 c 0
 567 144 570 147 574 147 c 0
 587 147 597 143 597 137 c 0
 597 135 595 127 592 117 c 2
 568 32 l 1
 561 10 556 -1 552 -3 c 0
 548 -5 544 -5 516 -5 c 2x84
 296 -2 l 2
 259 -1 259 -1 235 -1 c 2
 205 -1 l 2
 181 0 170 0 170 0 c 2x44
 152 0 137 -1 113 -2 c 0
 77 -4 58 -5 43 -5 c 0
 27 -5 24 -3 24 8 c 2
 24 14 l 2
 24 28 24 28 67 28 c 0
 100 28 119 35 129 51 c 0
 136 62 138 82 138 133 c 2
 138 557 l 2
 138 618 135 635 123 647 c 0
 108 660 101 662 42 662 c 0
 31 662 27 666 27 676 c 2
 27 682 l 2
 27 691 31 695 41 695 c 0x94
 49 695 60 695 73 694 c 2
 113 692 l 1
 161 691 l 2
 185 690 202 689 209 689 c 0x0c
 219 689 237 690 261 691 c 0
 305 693 349 695 369 695 c 2
 515 695 l 2
 543 695 543 695 543 668 c 2
 543 567 l 2
 543 547 542 545 533 545 c 2
 523 545 l 2
 512 545 512 545 510 575 c 0
 507 617 493 641 466 653 c 0
 449 660 427 662 372 662 c 0
 228 662 228 662 228 556 c 2
 228 389 l 1
 237 388 265 388 271 388 c 0
 407 388 423 395 445 465 c 0
 447 471 449 472 456 472 c 2
 462 472 l 2
 469 472 472 469 472 463 c 1
 471 442 l 1
 468 418 466 386 466 364 c 0
 466 338 468 298 470 289 c 0
 472 278 473 270 473 266 c 0
 473 261 470 257 464 257 c 2
 452 256 l 2
 441 256 441 257 434 304 c 0
 427 354 427 354 280 354 c 0
 266 354 266 354 242 353 c 2
 228 353 l 1x34
235 790 m 2
 364 905 l 2
 401 939 407 943 423 943 c 0
 445 943 464 921 464 896 c 0
 464 871 449 855 409 835 c 2
 257 761 l 2
 254 759 250 758 247 758 c 0
 244 758 240 760 239 763 c 1
 233 773 l 2
 231 776 230 779 230 781 c 0
 230 783 232 787 235 790 c 2
EndSplineSet
EndChar
StartChar: Egrave
Encoding: 266 200 40
Width: 627
Flags: W
HStem: -5 20 0 20 354 34<273 339> 662 33<36.5 45 369 399.5> 669 20<205.5 214>
VStem: 138 90<133 136 136 353 389 556>
Fore
228 353 m 1x34
 228 136 l 2
 228 77 230 67 248 52 c 0
 266 37 290 32 352 32 c 2
 386 32 l 2
 503 32 511 36 561 132 c 0
 567 144 570 147 574 147 c 0
 587 147 597 143 597 137 c 0
 597 135 595 127 592 117 c 2
 568 32 l 1
 561 10 556 -1 552 -3 c 0
 548 -5 544 -5 516 -5 c 2x84
 296 -2 l 2
 259 -1 259 -1 235 -1 c 2
 205 -1 l 2
 181 0 170 0 170 0 c 2x44
 152 0 137 -1 113 -2 c 0
 77 -4 58 -5 43 -5 c 0
 27 -5 24 -3 24 8 c 2
 24 14 l 2
 24 28 24 28 67 28 c 0
 100 28 119 35 129 51 c 0
 136 62 138 82 138 133 c 2
 138 557 l 2
 138 618 135 635 123 647 c 0
 108 660 101 662 42 662 c 0
 31 662 27 666 27 676 c 2
 27 682 l 2
 27 691 31 695 41 695 c 0x94
 49 695 60 695 73 694 c 2
 113 692 l 1
 161 691 l 2
 185 690 202 689 209 689 c 0x0c
 219 689 237 690 261 691 c 0
 305 693 349 695 369 695 c 2
 515 695 l 2
 543 695 543 695 543 668 c 2
 543 567 l 2
 543 547 542 545 533 545 c 2
 523 545 l 2
 512 545 512 545 510 575 c 0
 507 617 493 641 466 653 c 0
 449 660 427 662 372 662 c 0
 228 662 228 662 228 556 c 2
 228 389 l 1
 237 388 265 388 271 388 c 0
 407 388 423 395 445 465 c 0
 447 471 449 472 456 472 c 2
 462 472 l 2
 469 472 472 469 472 463 c 1
 471 442 l 1
 468 418 466 386 466 364 c 0
 466 338 468 298 470 289 c 0
 472 278 473 270 473 266 c 0
 473 261 470 257 464 257 c 2
 452 256 l 2
 441 256 441 257 434 304 c 0
 427 354 427 354 280 354 c 0
 266 354 266 354 242 353 c 2
 228 353 l 1x34
372 761 m 2
 221 835 l 2
 179 855 165 871 165 896 c 0
 165 921 184 943 206 943 c 0
 222 943 229 939 266 905 c 2
 394 790 l 2
 397 787 399 784 399 781 c 0
 399 779 398 776 396 773 c 2
 391 763 l 2
 389 760 386 758 382 758 c 0
 379 758 376 759 372 761 c 2
EndSplineSet
EndChar
StartChar: Ecircumflex
Encoding: 267 202 41
Width: 627
Flags: W
HStem: -5 20 0 20 354 34<273 339> 662 33<36.5 45 369 399.5> 669 20<205.5 214>
VStem: 138 90<133 136 136 353 389 556>
Fore
228 353 m 1x34
 228 136 l 2
 228 77 230 67 248 52 c 0
 266 37 290 32 352 32 c 2
 386 32 l 2
 503 32 511 36 561 132 c 0
 567 144 570 147 574 147 c 0
 587 147 597 143 597 137 c 0
 597 135 595 127 592 117 c 2
 568 32 l 1
 561 10 556 -1 552 -3 c 0
 548 -5 544 -5 516 -5 c 2x84
 296 -2 l 2
 259 -1 259 -1 235 -1 c 2
 205 -1 l 2
 181 0 170 0 170 0 c 2x44
 152 0 137 -1 113 -2 c 0
 77 -4 58 -5 43 -5 c 0
 27 -5 24 -3 24 8 c 2
 24 14 l 2
 24 28 24 28 67 28 c 0
 100 28 119 35 129 51 c 0
 136 62 138 82 138 133 c 2
 138 557 l 2
 138 618 135 635 123 647 c 0
 108 660 101 662 42 662 c 0
 31 662 27 666 27 676 c 2
 27 682 l 2
 27 691 31 695 41 695 c 0x94
 49 695 60 695 73 694 c 2
 113 692 l 1
 161 691 l 2
 185 690 202 689 209 689 c 0x0c
 219 689 237 690 261 691 c 0
 305 693 349 695 369 695 c 2
 515 695 l 2
 543 695 543 695 543 668 c 2
 543 567 l 2
 543 547 542 545 533 545 c 2
 523 545 l 2
 512 545 512 545 510 575 c 0
 507 617 493 641 466 653 c 0
 449 660 427 662 372 662 c 0
 228 662 228 662 228 556 c 2
 228 389 l 1
 237 388 265 388 271 388 c 0
 407 388 423 395 445 465 c 0
 447 471 449 472 456 472 c 2
 462 472 l 2
 469 472 472 469 472 463 c 1
 471 442 l 1
 468 418 466 386 466 364 c 0
 466 338 468 298 470 289 c 0
 472 278 473 270 473 266 c 0
 473 261 470 257 464 257 c 2
 452 256 l 2
 441 256 441 257 434 304 c 0
 427 354 427 354 280 354 c 0
 266 354 266 354 242 353 c 2
 228 353 l 1x34
335 845 m 1
 207 762 l 2
 202 759 199 758 196 758 c 0
 194 758 191 760 189 763 c 2
 178 775 l 2
 175 778 174 780 174 782 c 0
 174 784 176 787 181 792 c 2
 280 893 l 2
 317 931 322 934 338 934 c 0
 354 934 362 929 395 893 c 1
 494 792 l 2
 498 788 500 785 500 782 c 0
 500 781 498 777 496 775 c 2
 484 762 l 2
 482 760 479 758 477 758 c 0
 476 758 472 760 467 763 c 2
 335 845 l 1
EndSplineSet
EndChar
StartChar: Idieresis
Encoding: 268 207 42
Width: 332
Flags: W
HStem: -5 20 0 20 669 20<155 171.5> 674 20<28.5 37.5 297.5 306> 791 110<44 73.5 259 288.5>
VStem: 4 110<831.5 861> 123 90<132 556> 219 110<831.5 861>
Fore
123 132 m 2x87
 123 556 l 2
 123 608 121 627 114 639 c 0
 104 655 87 661 51 661 c 0
 21 662 19 662 19 675 c 2
 19 682 l 2
 19 691 23 694 34 694 c 0x1f
 41 694 53 694 65 693 c 0
 101 691 146 689 164 689 c 0x27
 179 689 257 692 274 693 c 0
 285 694 294 694 301 694 c 0
 311 694 314 691 314 682 c 2
 314 675 l 2
 314 663 312 662 290 661 c 0
 246 660 233 656 222 639 c 0
 215 627 213 608 213 556 c 2
 213 132 l 2
 213 81 215 62 222 50 c 0
 233 34 250 28 290 28 c 0
 315 28 317 26 317 14 c 2
 317 7 l 2
 317 -2 314 -5 304 -5 c 0x97
 296 -5 286 -5 274 -4 c 0
 257 -3 181 0 166 0 c 0x47
 151 0 91 -2 66 -4 c 0
 53 -5 42 -5 34 -5 c 0
 24 -5 20 -2 20 7 c 2
 20 14 l 2
 20 27 21 27 52 28 c 0
 85 28 104 35 114 50 c 0
 121 62 123 81 123 132 c 2x87
59 901 m 0
 89 901 114 876 114 846 c 0
 114 815 89 791 58 791 c 0
 28 791 4 816 4 847 c 0
 4 876 29 901 59 901 c 0
274 901 m 0
 304 901 329 876 329 846 c 0
 329 815 304 791 273 791 c 0
 243 791 219 816 219 847 c 0
 219 876 244 901 274 901 c 0
EndSplineSet
EndChar
StartChar: Iacute
Encoding: 269 205 43
Width: 332
Flags: W
HStem: -5 20 0 20 669 20<155.5 172> 674 20<28 37.5 297.5 306>
VStem: 123 90<132 556>
Fore
123 132 m 2x88
 123 556 l 2
 123 618 120 634 108 646 c 0
 94 659 85 661 34 662 c 0
 23 662 19 665 19 675 c 2
 19 682 l 2
 19 691 23 694 33 694 c 0x18
 42 694 52 694 65 693 c 0
 96 691 146 689 165 689 c 0x28
 179 689 259 692 274 693 c 0
 285 694 294 694 301 694 c 0
 311 694 314 691 314 682 c 2
 314 675 l 2
 314 663 312 662 290 661 c 0
 246 660 233 656 222 639 c 0
 215 627 213 608 213 556 c 2
 213 132 l 2
 213 81 215 62 222 50 c 0
 233 34 250 28 290 28 c 0
 315 28 317 26 317 14 c 2
 317 7 l 2
 317 -2 314 -5 303 -5 c 0x98
 296 -5 286 -5 274 -4 c 0
 256 -3 181 0 166 0 c 0x48
 150 0 96 -2 66 -4 c 0
 54 -5 41 -5 35 -5 c 0
 24 -5 20 -2 20 7 c 2
 20 14 l 2
 20 27 21 27 52 28 c 0
 85 28 104 35 114 50 c 0
 121 62 123 81 123 132 c 2x88
87 790 m 1
 216 905 l 2
 253 939 259 943 275 943 c 0
 297 943 316 921 316 896 c 0
 316 871 301 855 261 835 c 2
 109 761 l 2
 106 759 102 758 99 758 c 0
 96 758 92 760 91 763 c 1
 85 773 l 2
 84 775 83 778 83 781 c 0
 83 784 85 787 87 790 c 1
EndSplineSet
EndChar
StartChar: Igrave
Encoding: 270 204 44
Width: 332
Flags: W
HStem: -5 20 0 20 669 20<154.5 171> 674 20<27 36.5 296.5 305>
VStem: 122 90<132 556>
Fore
122 132 m 2x88
 122 556 l 2
 122 619 119 634 107 646 c 0
 93 659 84 661 33 662 c 0
 22 662 19 665 19 675 c 2
 19 682 l 2
 19 691 22 694 32 694 c 0x18
 41 694 51 694 64 693 c 0
 94 691 145 689 164 689 c 0x28
 178 689 257 692 273 693 c 0
 284 694 293 694 300 694 c 0
 310 694 313 691 313 682 c 2
 313 675 l 2
 313 663 311 662 289 661 c 0
 245 660 232 656 221 639 c 0
 214 627 212 609 212 556 c 2
 212 132 l 2
 212 80 214 62 221 50 c 0
 231 34 249 28 289 28 c 0
 314 28 316 26 316 14 c 2
 316 7 l 2
 316 -2 313 -5 303 -5 c 0x98
 294 -5 285 -5 273 -4 c 0
 256 -3 180 0 165 0 c 0x48
 149 0 95 -2 65 -4 c 0
 53 -5 40 -5 34 -5 c 0
 23 -5 19 -2 19 7 c 2
 19 14 l 2
 19 27 20 27 51 28 c 0
 85 28 103 35 113 50 c 0
 120 62 122 80 122 132 c 2x88
224 761 m 2
 72 835 l 2
 32 855 17 871 17 896 c 0
 17 921 36 943 58 943 c 0
 74 943 81 938 118 905 c 2
 246 790 l 2
 249 787 251 783 251 781 c 0
 251 779 250 776 248 773 c 2
 243 763 l 2
 241 760 237 758 234 758 c 0
 231 758 227 759 224 761 c 2
EndSplineSet
EndChar
StartChar: Icircumflex
Encoding: 271 206 45
Width: 332
Flags: W
HStem: -5 20 0 20 669 20<155.5 172> 674 20<28 37.5 297.5 306>
VStem: 123 90<132 556>
Fore
123 132 m 2x88
 123 556 l 2
 123 607 121 628 114 639 c 0
 104 655 87 661 51 661 c 0
 21 662 19 662 19 675 c 2
 19 682 l 2
 19 691 23 694 33 694 c 0x18
 42 694 52 694 64 693 c 0
 95 691 146 689 165 689 c 0x28
 179 689 258 692 274 693 c 0
 285 694 294 694 301 694 c 0
 311 694 314 691 314 682 c 2
 314 675 l 2
 314 663 312 662 290 661 c 0
 246 660 233 656 222 639 c 0
 215 628 213 607 213 556 c 2
 213 132 l 2
 213 82 215 61 222 50 c 0
 232 34 250 28 290 28 c 0
 315 28 317 26 317 14 c 2
 317 7 l 2
 317 -2 314 -5 304 -5 c 0x98
 296 -5 286 -5 274 -4 c 0
 256 -3 181 0 166 0 c 0x48
 150 0 91 -2 66 -4 c 0
 53 -5 42 -5 34 -5 c 0
 24 -5 20 -2 20 7 c 2
 20 14 l 2
 20 27 21 27 52 28 c 0
 85 28 104 35 114 50 c 0
 121 61 123 82 123 132 c 2x88
167 845 m 1
 38 762 l 2
 34 759 31 758 28 758 c 0
 26 758 23 760 21 763 c 2
 10 775 l 2
 7 778 6 780 6 782 c 0
 6 784 8 787 13 792 c 2
 112 893 l 2
 149 931 154 934 170 934 c 0
 186 934 193 929 227 893 c 2
 326 792 l 2
 330 788 332 784 332 782 c 0
 332 781 330 777 328 775 c 2
 316 762 l 2
 314 760 311 758 309 758 c 0
 308 758 304 760 299 763 c 2
 167 845 l 1
EndSplineSet
EndChar
StartChar: Ntilde
Encoding: 272 209 47
Width: 848
Flags: W
HStem: -5 20 0 20 669 20<700.5 708.5> 674 20<34.5 75.5 582.5 588.5 815.5 822.5> 758 86<507.5 512> 844 86<337 353>
VStem: 145 45<132 556 556 578.5> 678 50<144 556>
Fore
728 -31 m 1x13
 704 -31 l 1
 190 579 l 1
 190 132 l 2
 190 72 193 54 205 43 c 0
 219 30 230 28 279 28 c 0
 290 27 294 24 294 14 c 2
 294 7 l 2
 294 -1 290 -5 281 -5 c 0x8f
 278 -5 277 -5 215 -2 c 0
 190 -1 171 0 168 0 c 0x43
 161 0 154 0 84 -4 c 0
 69 -5 58 -5 56 -5 c 0
 46 -5 43 -2 43 7 c 2
 43 14 l 2
 43 27 44 27 74 28 c 0
 107 28 126 35 136 50 c 0
 143 62 145 81 145 132 c 2
 145 556 l 2
 145 601 144 604 126 622 c 0
 92 656 81 660 24 661 c 0
 16 661 13 663 13 671 c 2
 13 681 l 2
 13 693 16 694 53 694 c 0
 98 694 160 692 235 688 c 1
 555 274 l 2
 571 254 637 183 678 144 c 1
 678 556 l 2
 678 618 675 634 663 646 c 0
 649 659 641 660 589 662 c 0
 578 662 574 665 574 675 c 2
 574 682 l 2
 574 691 578 694 587 694 c 0x93
 590 694 592 694 653 691 c 0
 679 690 698 689 703 689 c 0x23
 714 689 720 689 789 693 c 0
 803 694 813 694 818 694 c 0
 827 694 831 691 831 682 c 2
 831 675 l 2
 831 662 830 662 799 661 c 0
 764 661 747 654 737 639 c 0
 730 627 728 609 728 556 c 2
 728 -31 l 1x13
575 921 m 2
 584 917 l 2
 588 915 591 911 591 906 c 0
 591 889 572 833 558 806 c 0
 540 773 522 758 502 758 c 0
 476 758 468 763 407 813 c 0
 382 834 362 844 344 844 c 0
 317 844 296 820 278 767 c 0
 275 760 274 758 272 758 c 0
 270 758 267 758 265 759 c 2
 253 764 l 2
 250 765 248 769 248 773 c 0
 248 784 256 821 261 836 c 0
 282 894 318 930 356 930 c 0
 382 930 382 930 460 873 c 0
 491 850 502 844 513 844 c 0
 529 844 538 857 560 913 c 0
 562 920 565 923 568 923 c 0
 570 923 573 922 575 921 c 2
EndSplineSet
EndChar
StartChar: Odieresis
Encoding: 273 214 48
Width: 848
Flags: MW
HStem: -20 34<349.5 509.5> 675 33<374 491> 791 110<319 349 533 563>
VStem: 43 106<265 414> 279 110<831.5 861> 493 110<831.5 861> 698 106<255 428.5>
Fore
424 708 m 0
 633 708 804 551 804 359 c 0
 804 151 625 -20 409 -20 c 0
 195 -20 43 126 43 332 c 0
 43 537 216 708 424 708 c 0
409 675 m 0
 339 675 277 650 233 603 c 0
 181 549 149 460 149 368 c 0
 149 162 267 14 432 14 c 0
 587 14 698 146 698 331 c 0
 698 526 573 675 409 675 c 0
334 901 m 0
 364 901 389 876 389 846 c 0
 389 815 364 791 334 791 c 0
 303 791 279 816 279 847 c 0
 279 876 304 901 334 901 c 0
548 901 m 0
 578 901 603 876 603 846 c 0
 603 815 578 791 548 791 c 0
 517 791 493 816 493 847 c 0
 493 876 518 901 548 901 c 0
EndSplineSet
KernsSLIF: 89 -63 0 0 88 -62 0 0 87 -58 0 0 86 -66 0 0 84 -21 0 0 65 -62 0 0
EndChar
StartChar: Oacute
Encoding: 274 211 49
Width: 848
Flags: MW
HStem: -20 34<349.5 509.5> 675 33<374 491>
VStem: 43 106<265 414> 698 106<255 428.5>
Fore
424 708 m 0
 633 708 804 551 804 359 c 0
 804 151 625 -20 409 -20 c 0
 195 -20 43 126 43 332 c 0
 43 537 216 708 424 708 c 0
409 675 m 0
 339 675 277 650 233 603 c 0
 181 549 149 460 149 368 c 0
 149 162 267 14 432 14 c 0
 587 14 698 146 698 331 c 0
 698 526 573 675 409 675 c 0
345 790 m 2
 474 905 l 2
 511 939 517 943 533 943 c 0
 555 943 574 921 574 896 c 0
 574 871 559 855 519 835 c 2
 367 761 l 2
 364 759 360 758 357 758 c 0
 354 758 350 760 348 763 c 2
 343 773 l 2
 341 776 340 779 340 781 c 0
 340 783 342 787 345 790 c 2
EndSplineSet
KernsSLIF: 89 -63 0 0 87 -58 0 0 86 -66 0 0 84 -21 0 0 65 -62 0 0
EndChar
StartChar: Ograve
Encoding: 275 210 50
Width: 848
Flags: MW
HStem: -20 34<349.5 509.5> 675 33<374 491>
VStem: 43 106<265 414> 698 106<255 428.5>
Fore
424 708 m 0
 633 708 804 551 804 359 c 0
 804 151 625 -20 409 -20 c 0
 195 -20 43 126 43 332 c 0
 43 537 216 708 424 708 c 0
409 675 m 0
 339 675 277 650 233 603 c 0
 181 549 149 460 149 368 c 0
 149 162 267 14 432 14 c 0
 587 14 698 146 698 331 c 0
 698 526 573 675 409 675 c 0
482 761 m 2
 330 835 l 2
 290 855 275 871 275 896 c 0
 275 921 294 943 316 943 c 0
 332 943 339 939 376 905 c 2
 504 790 l 2
 507 787 509 784 509 781 c 0
 509 779 508 776 506 773 c 2
 501 763 l 2
 499 760 495 758 492 758 c 0
 489 758 485 759 482 761 c 2
EndSplineSet
KernsSLIF: 89 -63 0 0 86 -66 0 0 84 -21 0 0
EndChar
StartChar: Ocircumflex
Encoding: 276 212 51
Width: 848
Flags: MW
HStem: -20 34<349.5 509.5> 675 33<374 491>
VStem: 43 106<265 414> 698 106<255 428.5>
Fore
424 708 m 0
 633 708 804 551 804 359 c 0
 804 151 625 -20 409 -20 c 0
 195 -20 43 126 43 332 c 0
 43 537 216 708 424 708 c 0
409 675 m 0
 339 675 277 650 233 603 c 0
 181 549 149 460 149 368 c 0
 149 162 267 14 432 14 c 0
 587 14 698 146 698 331 c 0
 698 526 573 675 409 675 c 0
445 845 m 1
 316 762 l 2
 312 759 308 758 306 758 c 0
 304 758 301 760 299 763 c 2
 288 775 l 2
 286 777 284 780 284 782 c 0
 284 784 286 787 291 792 c 2
 390 893 l 2
 427 931 432 934 448 934 c 0
 464 934 471 929 505 893 c 2
 604 792 l 2
 607 788 610 785 610 782 c 0
 610 781 608 778 606 775 c 2
 594 762 l 2
 592 760 589 758 587 758 c 0
 586 758 582 760 577 763 c 2
 445 845 l 1
EndSplineSet
KernsSLIF: 89 -63 0 0 86 -66 0 0 84 -21 0 0
EndChar
StartChar: Otilde
Encoding: 277 213 52
Width: 848
Flags: MW
HStem: -20 34<349.5 509.5> 675 33<374 491> 758 86<507 512> 844 86<337 353>
VStem: 43 106<265 414> 698 106<255 428.5>
Fore
424 708 m 0
 633 708 804 551 804 359 c 0
 804 151 625 -20 409 -20 c 0
 195 -20 43 126 43 332 c 0
 43 537 216 708 424 708 c 0
409 675 m 0
 339 675 277 650 233 603 c 0
 181 549 149 460 149 368 c 0
 149 162 267 14 432 14 c 0
 587 14 698 146 698 331 c 0
 698 526 573 675 409 675 c 0
575 921 m 2
 584 917 l 2
 588 915 591 910 591 906 c 0
 591 889 572 833 558 806 c 0
 540 773 522 758 502 758 c 0
 476 758 468 763 407 813 c 0
 382 834 362 844 344 844 c 0
 317 844 294 817 278 767 c 0
 275 760 274 758 272 758 c 0
 270 758 266 758 265 759 c 2
 253 764 l 2
 250 765 248 769 248 773 c 0
 248 783 256 821 261 836 c 0
 282 895 318 930 356 930 c 0
 382 930 382 930 460 873 c 0
 492 849 501 844 513 844 c 0
 529 844 538 857 559 913 c 0
 562 920 565 923 568 923 c 0
 570 923 572 922 575 921 c 2
EndSplineSet
KernsSLIF: 89 -63 0 0 86 -66 0 0 84 -21 0 0
EndChar
StartChar: Scaron
Encoding: 278 352 53
Width: 479
Flags: MW
HStem: -20 39<191.5 247> 669 39<233.5 270.5>
VStem: 42 82<526.5 544> 344 93<125.5 184>
Fore
396 666 m 1
 402 564 l 1
 402 556 l 2
 402 547 400 545 391 545 c 2
 381 544 l 1
 378 544 l 2
 365 543 365 543 359 579 c 0
 351 631 300 669 241 669 c 0
 173 669 124 622 124 557 c 0
 124 496 153 465 267 403 c 0
 399 332 437 283 437 185 c 0
 437 66 339 -20 203 -20 c 0
 160 -20 88 -6 60 8 c 0
 50 13 47 21 44 53 c 1
 36 121 l 1
 35 131 34 138 34 138 c 1
 34 143 37 146 44 146 c 2
 55 147 l 1
 57 147 l 2
 62 148 64 145 68 135 c 0
 82 95 88 84 106 65 c 0
 132 36 172 19 211 19 c 0
 283 19 344 79 344 150 c 0
 344 218 313 253 196 320 c 0
 71 391 42 427 42 513 c 0
 42 575 66 627 108 659 c 0
 149 690 205 708 262 708 c 0
 297 708 352 698 382 687 c 0
 393 683 395 680 396 666 c 1
244 846 m 1
 372 929 l 2
 377 932 380 934 383 934 c 0
 384 934 387 932 390 929 c 2
 401 916 l 1
 404 914 405 911 405 910 c 0
 405 908 403 904 398 900 c 1
 299 798 l 2
 262 761 257 758 241 758 c 0
 225 758 217 763 184 798 c 1
 85 899 l 2
 81 903 79 907 79 909 c 0
 79 910 81 914 83 916 c 2
 95 929 l 2
 98 932 100 934 101 934 c 0
 103 934 107 932 112 928 c 2
 244 846 l 1
EndSplineSet
EndChar
StartChar: Udieresis
Encoding: 279 220 54
Width: 812
Flags: W
HStem: -20 57<369.5 460> 669 20<170.5 186.5 669 669> 674 20 791 110<300 329.5 515 544.5>
VStem: 132 90<248.5 295 295 556> 260 110<831.5 861> 475 110<831.5 861> 642 49<303 552 552 568>
Fore
222 556 m 2x2f
 222 295 l 2
 222 202 223 190 232 157 c 0
 253 78 318 37 421 37 c 0
 499 37 565 65 600 113 c 0
 630 155 642 210 642 303 c 2
 642 552 l 2
 642 632 641 638 627 649 c 0
 617 658 600 661 564 662 c 0
 554 662 551 665 551 674 c 2
 551 682 l 2
 551 691 554 694 561 694 c 2xbf
 581 693 l 1
 669 689 l 1x4f
 785 694 l 2
 792 694 795 691 795 684 c 2
 795 672 l 2
 795 663 793 662 775 662 c 0
 696 661 689 653 691 568 c 1
 691 258 l 2
 691 77 593 -20 410 -20 c 0
 314 -20 235 6 188 52 c 0
 148 91 132 140 132 221 c 2
 132 556 l 2
 132 617 129 634 117 646 c 0
 103 659 92 661 40 661 c 0
 29 661 25 665 25 675 c 2
 25 682 l 2
 25 691 29 694 39 694 c 2xaf
 68 693 l 2
 82 692 162 689 179 689 c 0x4f
 194 689 269 692 286 693 c 2
 319 694 l 2
 329 694 332 691 332 682 c 2
 332 675 l 2
 332 661 332 661 293 661 c 0
 260 661 241 654 231 639 c 0
 224 628 222 607 222 556 c 2x2f
315 901 m 0
 345 901 370 876 370 846 c 0
 370 815 345 791 314 791 c 0
 284 791 260 816 260 847 c 0
 260 876 285 901 315 901 c 0
530 901 m 0
 560 901 585 876 585 846 c 0
 585 815 560 791 529 791 c 0
 499 791 475 816 475 847 c 0
 475 876 500 901 530 901 c 0
EndSplineSet
KernsSLIF: 114 -43 0 0 46 -31 0 0 112 -30 0 0 110 -38 0 0 109 -36 0 0 44 -24 0 0 98 11 0 0 65 -74 0 0
EndChar
StartChar: Uacute
Encoding: 280 218 55
Width: 812
Flags: W
HStem: -20 57<369.5 460> 669 20<170.5 186.5 669 669> 674 20
VStem: 132 90<248.5 295 295 556> 642 49<303 552 552 568>
Fore
222 556 m 2x38
 222 295 l 2
 222 202 223 190 232 157 c 0
 253 78 318 37 421 37 c 0
 499 37 565 65 600 113 c 0
 630 155 642 210 642 303 c 2
 642 552 l 2
 642 632 641 638 627 649 c 0
 617 658 600 661 564 662 c 0
 554 662 551 665 551 674 c 2
 551 682 l 2
 551 691 554 694 561 694 c 2xb8
 581 693 l 1
 669 689 l 1x58
 785 694 l 2
 792 694 795 691 795 684 c 2
 795 672 l 2
 795 663 793 662 775 662 c 0
 696 661 689 653 691 568 c 1
 691 258 l 2
 691 77 593 -20 410 -20 c 0
 314 -20 235 6 188 52 c 0
 148 91 132 140 132 221 c 2
 132 556 l 2
 132 617 129 634 117 646 c 0
 103 659 92 661 40 661 c 0
 29 661 25 665 25 675 c 2
 25 682 l 2
 25 691 29 694 39 694 c 2xb8
 68 693 l 2
 82 692 162 689 179 689 c 0x58
 194 689 269 692 286 693 c 2
 319 694 l 2
 329 694 332 691 332 682 c 2
 332 675 l 2
 332 661 332 661 293 661 c 0
 260 661 241 654 231 639 c 0
 224 628 222 607 222 556 c 2x38
327 790 m 2
 455 905 l 2
 492 939 499 943 515 943 c 0
 537 943 556 921 556 896 c 0
 556 871 542 855 501 835 c 2
 349 761 l 2
 346 759 342 758 339 758 c 0
 336 758 332 760 330 763 c 2
 325 773 l 2
 323 776 322 779 322 781 c 0
 322 784 324 787 327 790 c 2
EndSplineSet
KernsSLIF: 114 -43 0 0 46 -31 0 0 112 -30 0 0 110 -38 0 0 109 -36 0 0 44 -24 0 0 65 -74 0 0
EndChar
StartChar: Ugrave
Encoding: 281 217 56
Width: 812
Flags: W
HStem: -20 57<369.5 460> 669 20<170.5 186.5 669 669> 674 20
VStem: 132 90<248.5 295 295 556> 642 49<303 552 552 568>
Fore
222 556 m 2x38
 222 295 l 2
 222 202 223 190 232 157 c 0
 253 78 318 37 421 37 c 0
 499 37 565 65 600 113 c 0
 630 155 642 210 642 303 c 2
 642 552 l 2
 642 632 641 638 627 649 c 0
 617 658 600 661 564 662 c 0
 554 662 551 665 551 674 c 2
 551 682 l 2
 551 691 554 694 561 694 c 2xb8
 581 693 l 1
 669 689 l 1x58
 785 694 l 2
 792 694 795 691 795 684 c 2
 795 672 l 2
 795 663 793 662 775 662 c 0
 696 661 689 653 691 568 c 1
 691 258 l 2
 691 77 593 -20 410 -20 c 0
 314 -20 235 6 188 52 c 0
 148 91 132 140 132 221 c 2
 132 556 l 2
 132 617 129 634 117 646 c 0
 103 659 92 661 40 661 c 0
 29 661 25 665 25 675 c 2
 25 682 l 2
 25 691 29 694 39 694 c 2xb8
 68 693 l 2
 82 692 162 689 179 689 c 0x58
 194 689 269 692 286 693 c 2
 319 694 l 2
 329 694 332 691 332 682 c 2
 332 675 l 2
 332 661 332 661 293 661 c 0
 260 661 241 654 231 639 c 0
 224 628 222 607 222 556 c 2x38
464 761 m 2
 312 835 l 2
 272 855 257 871 257 896 c 0
 257 921 276 943 298 943 c 0
 314 943 320 939 357 905 c 2
 486 790 l 1
 489 786 491 783 491 781 c 0
 491 779 490 776 488 773 c 2
 483 763 l 2
 481 760 477 758 474 758 c 0
 471 758 467 759 464 761 c 2
EndSplineSet
KernsSLIF: 65 -74 0 0
EndChar
StartChar: Ucircumflex
Encoding: 282 219 57
Width: 812
Flags: W
HStem: -20 57<369.5 460> 669 20<170.5 186.5 669 669> 674 20
VStem: 132 90<248.5 295 295 556> 642 49<303 552 552 568>
Fore
222 556 m 2x38
 222 295 l 2
 222 202 223 190 232 157 c 0
 253 78 318 37 421 37 c 0
 499 37 565 65 600 113 c 0
 630 155 642 210 642 303 c 2
 642 552 l 2
 642 632 641 638 627 649 c 0
 617 658 600 661 564 662 c 0
 554 662 551 665 551 674 c 2
 551 682 l 2
 551 691 554 694 561 694 c 2xb8
 581 693 l 1
 669 689 l 1x58
 785 694 l 2
 792 694 795 691 795 684 c 2
 795 672 l 2
 795 663 793 662 775 662 c 0
 696 661 689 653 691 568 c 1
 691 258 l 2
 691 77 593 -20 410 -20 c 0
 314 -20 235 6 188 52 c 0
 148 91 132 140 132 221 c 2
 132 556 l 2
 132 617 129 634 117 646 c 0
 103 659 92 661 40 661 c 0
 29 661 25 665 25 675 c 2
 25 682 l 2
 25 691 29 694 39 694 c 2xb8
 68 693 l 2
 82 692 162 689 179 689 c 0x58
 194 689 269 692 286 693 c 2
 319 694 l 2
 329 694 332 691 332 682 c 2
 332 675 l 2
 332 661 332 661 293 661 c 0
 260 661 241 654 231 639 c 0
 224 628 222 607 222 556 c 2x38
427 845 m 1
 298 762 l 2
 294 759 290 758 288 758 c 0
 286 758 283 760 281 763 c 2
 270 775 l 2
 268 777 266 780 266 782 c 0
 266 784 268 788 273 792 c 1
 371 893 l 2
 409 931 414 934 430 934 c 0
 446 934 453 929 487 893 c 2
 585 792 l 2
 589 788 592 784 592 782 c 0
 592 781 590 778 588 775 c 2
 576 762 l 1
 573 760 570 758 569 758 c 0
 568 758 562 761 558 763 c 2
 427 845 l 1
EndSplineSet
KernsSLIF: 65 -74 0 0
EndChar
StartChar: Yacute
Encoding: 283 221 58
Width: 719
Flags: W
HStem: -5 20 0 20 669 20<145.5 172 594 608> 674 20<16.5 24.5 283 290.5 489.5 494 699 702.5>
VStem: 324 90<132 289 289 307.5>
Fore
414 341 m 1x18
 414 132 l 2
 414 71 417 55 429 43 c 0
 443 30 453 28 508 28 c 0
 519 27 523 24 523 14 c 2
 523 7 l 2
 523 -2 519 -5 509 -5 c 0x88
 501 -5 491 -5 478 -4 c 0
 457 -2 388 0 369 0 c 0x48
 350 0 280 -2 260 -4 c 0
 247 -5 238 -5 230 -5 c 0
 220 -5 216 -2 216 7 c 2
 216 14 l 2
 216 27 216 27 253 28 c 0
 286 28 305 35 315 50 c 0
 322 62 324 81 324 132 c 2
 324 289 l 2
 324 326 322 332 302 360 c 2
 117 613 l 2
 85 656 74 662 19 662 c 0
 11 662 9 664 9 673 c 2
 9 683 l 2
 9 691 12 694 21 694 c 0x98
 28 694 36 694 45 693 c 0
 78 691 134 689 157 689 c 0x28
 187 689 190 689 263 693 c 0
 271 694 280 694 286 694 c 0
 295 694 298 691 298 682 c 2
 298 673 l 2
 298 661 296 660 275 660 c 0
 233 661 211 655 211 643 c 0
 211 638 213 634 224 619 c 2
 234 605 l 1
 355 436 l 2
 369 417 383 400 395 387 c 1
 413 406 426 424 463 474 c 2
 515 546 l 2
 554 599 569 626 569 641 c 0
 569 656 553 662 513 662 c 0
 482 662 482 662 482 673 c 2
 482 681 l 2
 482 691 485 694 494 694 c 2x18
 519 693 l 2
 537 691 587 689 601 689 c 0x28
 615 689 657 691 675 693 c 2
 699 694 l 2
 706 694 709 691 709 684 c 2
 709 672 l 2
 709 662 708 661 686 661 c 0
 650 661 638 651 593 589 c 2
 414 341 l 1x18
281 790 m 1
 410 905 l 2
 448 940 453 943 469 943 c 0
 491 943 510 921 510 896 c 0
 510 871 495 855 455 835 c 2
 303 761 l 2
 300 759 297 758 293 758 c 0
 290 758 286 760 285 763 c 1
 279 773 l 1
 278 776 277 778 277 781 c 0
 277 784 279 787 281 790 c 1
EndSplineSet
EndChar
StartChar: Zcaron
Encoding: 284 381 59
Width: 664
Flags: W
HStem: -5 20 0 33<321.5 351.5> 658 33<264.5 342.5> 676 20<560 589.5>
Fore
43 19 m 1x80
 290 371 l 1
 476 638 476 638 476 647 c 0
 476 656 468 658 427 658 c 2
 250 658 l 2
 160 658 147 650 101 564 c 0
 90 543 88 541 83 541 c 0
 72 541 59 549 59 555 c 0
 59 559 59 559 69 606 c 1
 96 720 l 2
 100 738 101 739 111 739 c 2
 121 739 l 2
 129 739 130 739 133 731 c 0
 145 702 198 691 331 691 c 0x20
 354 691 360 691 510 695 c 0
 536 696 555 696 565 696 c 0
 614 696 624 694 624 687 c 0
 624 684 624 684 611 665 c 2
 367 319 l 2
 252 155 241 139 206 86 c 2
 194 67 l 2
 181 48 179 45 179 41 c 0
 179 35 185 33 205 33 c 2
 380 33 l 2x50
 480 33 506 43 545 100 c 1
 581 150 l 2
 586 158 589 161 591 161 c 0
 592 161 593 161 598 159 c 2
 608 155 l 2
 616 152 618 150 618 146 c 0
 618 143 618 143 616 137 c 2
 614 130 l 1
 584 19 l 2
 578 -3 576 -5 565 -5 c 2x80
 529 -4 l 2
 495 -3 368 0 335 0 c 0x40
 308 0 278 0 235 -1 c 2
 126 -3 l 1
 65 -4 l 2
 57 -5 50 -5 47 -5 c 0
 37 -5 33 -3 33 3 c 0
 33 7 35 11 39 15 c 2
 43 19 l 1x80
337 846 m 1
 465 929 l 2
 470 932 473 934 476 934 c 0
 477 934 480 932 483 929 c 2
 494 916 l 1
 497 914 498 911 498 910 c 0
 498 908 496 904 491 900 c 1
 392 798 l 2
 355 761 350 758 334 758 c 0
 318 758 311 763 277 798 c 2
 178 899 l 2
 174 903 172 907 172 909 c 0
 172 910 174 914 176 916 c 2
 188 929 l 2
 191 932 194 934 195 934 c 0
 196 934 200 932 205 928 c 2
 337 846 l 1
EndSplineSet
EndChar
StartChar: Thorn
Encoding: 285 222 60
Width: 590
Flags: W
HStem: -6 20 0 20 535 34<260 310.5> 669 20<147 174.5> 675 20<28.5 36.5 296 305>
VStem: 123 88<116 457 568 571 571 596> 451 101<325.5 378.5>
Fore
211 568 m 1x0e
 260 569 l 2
 361 569 424 550 476 504 c 0
 522 465 552 404 552 353 c 0
 552 298 514 232 461 198 c 0
 423 173 390 165 316 163 c 2
 302 163 l 2
 285 162 277 167 277 176 c 2
 277 184 l 2
 277 195 280 197 294 196 c 0
 322 194 354 201 379 214 c 0
 426 238 451 285 451 349 c 0
 451 461 381 535 273 535 c 0
 220 535 211 523 211 457 c 2
 211 116 l 2
 211 41 218 32 280 27 c 0
 314 25 314 25 314 13 c 2
 314 4 l 2
 314 -3 310 -6 301 -6 c 0xa6
 293 -6 268 -5 242 -3 c 0
 221 -1 195 0 170 0 c 0x46
 137 0 112 -1 87 -3 c 0
 64 -5 40 -6 32 -6 c 0
 23 -6 20 -3 20 9 c 2
 20 12 l 2
 20 25 21 25 61 26 c 0
 87 26 107 34 115 46 c 0
 122 58 123 67 123 116 c 2
 123 571 l 2
 123 621 120 638 111 647 c 0
 100 658 76 664 39 663 c 0
 23 663 20 665 20 677 c 2
 20 685 l 2
 20 692 24 695 33 695 c 0x8e
 40 695 64 693 89 692 c 0
 110 690 135 689 159 689 c 0x16
 190 689 215 690 240 692 c 0
 266 694 292 695 300 695 c 0
 310 695 314 692 314 685 c 2
 314 677 l 2
 314 664 314 664 276 663 c 0
 239 661 233 660 225 653 c 0
 216 645 211 632 211 609 c 2
 211 568 l 1x0e
EndSplineSet
EndChar
StartChar: Ydieresis
Encoding: 286 376 61
Width: 719
Flags: W
HStem: -5 20 0 20 669 20<145.5 172 594 608> 674 20<16.5 24.5 283 290.5 489.5 494 699 702.5> 791 110<255 285 470 499.5>
VStem: 215 110<831.5 861> 324 90<132 289 289 307.5> 430 110<831.5 861>
Fore
414 341 m 1x12
 414 132 l 2
 414 71 417 55 429 43 c 0
 443 30 453 28 508 28 c 0
 519 27 523 24 523 14 c 2
 523 7 l 2
 523 -2 519 -5 509 -5 c 0x8a
 501 -5 491 -5 478 -4 c 0
 457 -2 388 0 369 0 c 0x42
 350 0 280 -2 260 -4 c 0
 247 -5 238 -5 230 -5 c 0
 220 -5 216 -2 216 7 c 2
 216 14 l 2
 216 27 216 27 253 28 c 0
 286 28 305 35 315 50 c 0
 322 62 324 81 324 132 c 2
 324 289 l 2
 324 326 322 332 302 360 c 2
 117 613 l 2
 85 656 74 662 19 662 c 0
 11 662 9 664 9 673 c 2
 9 683 l 2
 9 691 12 694 21 694 c 0x92
 28 694 36 694 45 693 c 0
 78 691 134 689 157 689 c 0x22
 187 689 190 689 263 693 c 0
 271 694 280 694 286 694 c 0
 295 694 298 691 298 682 c 2
 298 673 l 2
 298 661 296 660 275 660 c 0
 233 661 211 655 211 643 c 0
 211 638 213 634 224 619 c 2
 234 605 l 1
 355 436 l 2
 369 417 383 400 395 387 c 1
 413 406 426 424 463 474 c 2
 515 546 l 2
 554 599 569 626 569 641 c 0
 569 656 553 662 513 662 c 0
 482 662 482 662 482 673 c 2
 482 681 l 2
 482 691 485 694 494 694 c 2x12
 519 693 l 2
 537 691 587 689 601 689 c 0x22
 615 689 657 691 675 693 c 2
 699 694 l 2
 706 694 709 691 709 684 c 2
 709 672 l 2
 709 662 708 661 686 661 c 0
 650 661 638 651 593 589 c 2
 414 341 l 1x12
270 901 m 0
 300 901 325 876 325 846 c 0
 325 815 300 791 270 791 c 0
 239 791 215 816 215 847 c 0x8d
 215 876 240 901 270 901 c 0
485 901 m 0
 515 901 540 876 540 846 c 0
 540 815 515 791 484 791 c 0
 454 791 430 816 430 847 c 0
 430 876 455 901 485 901 c 0
EndSplineSet
EndChar
StartChar: adieresis
Encoding: 287 228 95
Width: 424
Flags: W
HStem: -20 50 -20 64<358.5 362> 418 20<209 209> 545 110<99 129 302 332>
VStem: 39 81<83 112> 51 64 59 110<585.5 615.5> 262 110<585.5 615> 269 69<98 117 117 202 202 202 231 263 263 271>
Fore
405 73 m 1x6480
 423 66 l 1
 408 5 383 -20 341 -20 c 0x4880
 297 -20 271 12 271 67 c 1
 191 -8 170 -20 126 -20 c 0
 81 -20 39 35 39 92 c 0x8880
 39 132 61 148 166 190 c 2
 269 231 l 1
 269 282 l 2
 269 323 265 338 252 353 c 0
 240 366 217 374 189 374 c 0
 144 374 115 359 115 336 c 0
 115 330 116 326 119 315 c 1
 57 280 l 1
 52 293 51 299 51 307 c 0
 51 337 70 359 126 391 c 2
 209 438 l 1
 313 435 342 398 338 271 c 1
 338 263 l 1
 338 117 l 1
 338 98 l 2
 338 61 348 44 369 44 c 0
 384 44 392 50 405 73 c 1x6480
269 202 m 1
 193 168 l 2
 133 141 120 129 120 102 c 0
 120 64 141 30 166 30 c 0x9880
 193 30 210 41 261 90 c 1
 263 93 266 96 269 98 c 1
 269 202 l 1
114 655 m 0
 145 655 169 631 169 600 c 0
 169 569 145 545 113 545 c 0
 83 545 59 570 59 601 c 0x93
 59 630 84 655 114 655 c 0
317 655 m 0
 347 655 372 630 372 600 c 0
 372 569 348 545 316 545 c 0
 286 545 262 570 262 601 c 0
 262 630 287 655 317 655 c 0
EndSplineSet
KernsSLIF: 121 -20 0 0 119 -22 0 0 118 -19 0 0
EndChar
StartChar: aacute
Encoding: 288 225 96
Width: 424
Flags: W
HStem: -20 50 -20 64<358.5 362> 418 20<209 209>
VStem: 39 81<83 112> 51 64 269 69<98 117 117 202 202 202 231 263 263 271>
Fore
405 73 m 1x6c
 423 66 l 1
 408 5 383 -20 341 -20 c 0x54
 297 -20 271 12 271 67 c 1
 191 -8 170 -20 126 -20 c 0
 81 -20 39 35 39 92 c 0x94
 39 132 61 148 166 190 c 2
 269 231 l 1
 269 282 l 2
 269 323 265 338 252 353 c 0
 240 366 217 374 189 374 c 0
 144 374 115 359 115 336 c 0
 115 330 116 326 119 315 c 1
 57 280 l 1
 52 293 51 299 51 307 c 0
 51 337 70 359 126 391 c 2
 209 438 l 1
 313 435 342 398 338 271 c 1
 338 263 l 1
 338 117 l 1
 338 98 l 2
 338 61 348 44 369 44 c 0
 384 44 392 50 405 73 c 1x6c
269 202 m 1
 193 168 l 2
 133 141 120 129 120 102 c 0
 120 64 141 30 166 30 c 0x94
 193 30 210 41 261 90 c 1
 263 93 266 96 269 98 c 1
 269 202 l 1
156 536 m 2
 223 696 l 1
 252 763 262 777 285 777 c 0
 306 777 324 760 324 739 c 0
 324 720 317 707 284 664 c 1
 178 521 l 2
 172 513 172 513 170 513 c 0
 168 513 167 513 164 515 c 2
 157 519 l 2
 154 521 153 523 153 525 c 0
 153 527 154 531 156 536 c 2
EndSplineSet
KernsSLIF: 121 -20 0 0 119 -22 0 0 118 -19 0 0
EndChar
StartChar: agrave
Encoding: 289 224 97
Width: 424
Flags: W
HStem: -20 50 -20 64<358.5 362> 418 20<209 209>
VStem: 39 81<83 112> 51 64 269 69<98 117 117 202 202 202 231 263 263 271>
Fore
405 73 m 1x6c
 423 66 l 1
 408 5 383 -20 341 -20 c 0x54
 297 -20 271 12 271 67 c 1
 191 -8 170 -20 126 -20 c 0
 81 -20 39 35 39 92 c 0x94
 39 132 61 148 166 190 c 2
 269 231 l 1
 269 282 l 2
 269 323 265 338 252 353 c 0
 240 366 217 374 189 374 c 0
 144 374 115 359 115 336 c 0
 115 330 116 326 119 315 c 1
 57 280 l 1
 52 293 51 299 51 307 c 0
 51 337 70 359 126 391 c 2
 209 438 l 1
 313 435 342 398 338 271 c 1
 338 263 l 1
 338 117 l 1
 338 98 l 2
 338 61 348 44 369 44 c 0
 384 44 392 50 405 73 c 1x6c
269 202 m 1
 193 168 l 2
 133 141 120 129 120 102 c 0
 120 64 141 30 166 30 c 0x94
 193 30 210 41 261 90 c 1
 263 93 266 96 269 98 c 1
 269 202 l 1
246 521 m 2
 140 664 l 2
 107 708 100 720 100 739 c 0
 100 759 118 777 139 777 c 0
 162 777 173 764 201 696 c 2
 268 536 l 2
 270 531 271 527 271 525 c 0
 271 523 269 521 267 519 c 2
 260 515 l 2
 258 514 256 513 255 513 c 0
 253 513 251 514 246 521 c 2
EndSplineSet
KernsSLIF: 121 -20 0 0 119 -22 0 0 118 -19 0 0
EndChar
StartChar: acircumflex
Encoding: 290 226 98
Width: 424
Flags: W
HStem: -20 50 -20 64<358.5 362> 418 20<209 209> 672 20<213 213>
VStem: 39 81<83 112> 51 64 269 69<98 117 117 202 202 202 231 263 263 271>
Fore
405 73 m 1x66
 423 66 l 1
 408 5 383 -20 341 -20 c 0x4a
 297 -20 271 12 271 67 c 1
 191 -8 170 -20 126 -20 c 0
 81 -20 39 35 39 92 c 0x8a
 39 132 61 148 166 190 c 2
 269 231 l 1
 269 282 l 2
 269 323 265 338 252 353 c 0
 240 366 217 374 189 374 c 0
 144 374 115 359 115 336 c 0
 115 330 116 326 119 315 c 1
 57 280 l 1
 52 293 51 299 51 307 c 0
 51 337 70 359 126 391 c 2
 209 438 l 1
 313 435 342 398 338 271 c 1
 338 263 l 1
 338 117 l 1
 338 98 l 2
 338 61 348 44 369 44 c 0
 384 44 392 50 405 73 c 1x66
269 202 m 1
 193 168 l 2
 133 141 120 129 120 102 c 0
 120 64 141 30 166 30 c 0x9a
 193 30 210 41 261 90 c 1
 263 93 266 96 269 98 c 1
 269 202 l 1
213 692 m 1
 119 521 l 2
 116 515 114 513 111 513 c 0
 110 513 108 513 106 514 c 2
 94 520 l 2
 91 522 89 524 89 526 c 0
 89 529 90 532 92 537 c 2
 159 705 l 1
 181 762 194 777 219 777 c 0
 231 777 244 771 252 761 c 0
 262 749 262 749 279 707 c 2
 349 535 l 2
 351 531 352 527 352 525 c 0
 352 523 349 521 346 519 c 2
 337 515 l 2
 333 514 331 513 330 513 c 0
 327 513 324 516 321 521 c 2
 213 692 l 1
EndSplineSet
EndChar
StartChar: atilde
Encoding: 291 227 99
Width: 424
Flags: W
HStem: -20 50 -20 64<358.5 362> 418 20<209 209> 513 81<285.5 290.5> 609 81<161 161.5>
VStem: 39 81<83 112> 51 64 269 69<98 117 117 202 202 202 231 263 263 271>
Fore
405 73 m 1x63
 423 66 l 1
 408 5 383 -20 341 -20 c 0x45
 297 -20 271 12 271 67 c 1
 191 -8 170 -20 126 -20 c 0
 81 -20 39 35 39 92 c 0x85
 39 132 61 148 166 190 c 2
 269 231 l 1
 269 282 l 2
 269 323 265 338 252 353 c 0
 240 366 217 374 189 374 c 0
 144 374 115 359 115 336 c 0
 115 330 116 326 119 315 c 1
 57 280 l 1
 52 293 51 299 51 307 c 0
 51 337 70 359 126 391 c 2
 209 438 l 1
 313 435 342 398 338 271 c 1
 338 263 l 1
 338 117 l 1
 338 98 l 2
 338 61 348 44 369 44 c 0
 384 44 392 50 405 73 c 1x63
269 202 m 1
 193 168 l 2
 133 141 120 129 120 102 c 0
 120 64 141 30 166 30 c 0x9d
 193 30 210 41 261 90 c 1
 263 93 266 96 269 98 c 1
 269 202 l 1
357 679 m 2
 364 676 l 2
 366 674 368 670 368 666 c 0
 368 655 358 620 346 591 c 0
 326 541 302 513 279 513 c 0
 256 513 241 525 201 573 c 0
 179 600 168 609 155 609 c 0
 141 609 119 581 104 545 c 0
 95 520 91 513 87 513 c 0
 85 513 82 514 80 516 c 2
 74 519 l 1
 71 522 69 525 69 529 c 0
 69 538 82 584 91 607 c 0
 110 659 144 690 178 690 c 0
 196 690 207 681 231 652 c 0
 264 610 281 594 290 594 c 0
 306 594 319 614 340 672 c 0
 342 679 345 682 348 682 c 0
 350 682 352 681 357 679 c 2
EndSplineSet
EndChar
StartChar: aring
Encoding: 292 229 100
Width: 424
Flags: W
HStem: -20 50 -20 64<358.5 362> 418 20<209 209> 513 42<195.5 232.5> 688 42<196.5 233>
VStem: 39 81<83 112> 51 64 106 42<604 640.5> 269 69<98 117 117 202 202 202 231 263 263 271> 281 42<603 640>
Fore
405 73 m 1x6280
 423 66 l 1
 408 5 383 -20 341 -20 c 0x4480
 297 -20 271 12 271 67 c 1
 191 -8 170 -20 126 -20 c 0
 81 -20 39 35 39 92 c 0x8480
 39 132 61 148 166 190 c 2
 269 231 l 1
 269 282 l 2
 269 323 265 338 252 353 c 0
 240 366 217 374 189 374 c 0
 144 374 115 359 115 336 c 0
 115 330 116 326 119 315 c 1
 57 280 l 1
 52 293 51 299 51 307 c 0
 51 337 70 359 126 391 c 2
 209 438 l 1
 313 435 342 398 338 271 c 1
 338 263 l 1
 338 117 l 1
 338 98 l 2
 338 61 348 44 369 44 c 0
 384 44 392 50 405 73 c 1x6280
269 202 m 1
 193 168 l 2
 133 141 120 129 120 102 c 0
 120 64 141 30 166 30 c 0x9c80
 193 30 210 41 261 90 c 1
 263 93 266 96 269 98 c 1
 269 202 l 1
214 730 m 0
 275 730 323 682 323 622 c 0
 323 561 275 513 214 513 c 0
 154 513 106 562 106 623 c 0x9940
 106 681 155 730 214 730 c 0
215 688 m 0
 178 688 148 658 148 623 c 0
 148 585 177 555 214 555 c 0
 251 555 281 584 281 622 c 0
 281 658 251 688 215 688 c 0
EndSplineSet
KernsSLIF: 121 -20 0 0 119 -22 0 0 118 -19 0 0
EndChar
StartChar: ccedilla
Encoding: 293 231 101
Width: 424
Flags: MW
HStem: -210 34<177 199.5> -97 142 405 33<196.5 241.5>
VStem: 31 74<185.5 259> 236 63<-141 -123.5>
Fore
254 -16 m 1
 227 -49 l 1
 274 -57 299 -79 299 -115 c 0
 299 -167 242 -210 171 -210 c 0
 127 -210 95 -195 95 -174 c 0
 95 -164 104 -154 114 -154 c 0
 118 -154 125 -156 132 -160 c 0
 158 -173 169 -176 185 -176 c 0
 214 -176 236 -158 236 -135 c 0
 236 -112 218 -97 190 -97 c 0
 185 -97 175 -98 166 -99 c 1
 149 -81 l 1
 214 -20 l 1
 108 -16 31 73 31 191 c 0
 31 327 134 438 259 438 c 0
 330 438 389 401 389 356 c 0
 389 334 371 317 349 317 c 0
 329 317 326 320 294 363 c 0
 270 395 255 405 228 405 c 0
 162 405 105 328 105 241 c 0
 105 130 171 45 256 45 c 0
 306 45 332 60 390 123 c 1
 405 103 l 1
 352 28 308 -6 254 -16 c 1
EndSplineSet
EndChar
StartChar: edieresis
Encoding: 294 235 102
Width: 424
Flags: W
HStem: -20 64<219.5 251.5> 406 32<207.5 249> 545 110<98 128 302 332>
VStem: 31 74<174 219> 58 110<585.5 615.5> 262 110<585.5 615.5>
Fore
391 259 m 1xf0
 108 259 l 1
 106 240 105 232 105 221 c 0
 105 127 178 44 261 44 c 0
 299 44 329 60 375 102 c 1
 392 89 l 1
 342 15 286 -20 217 -20 c 0
 113 -20 31 72 31 190 c 0
 31 248 51 309 87 357 c 0
 126 410 178 438 237 438 c 0
 293 438 342 412 369 369 c 0
 385 343 391 317 391 274 c 2
 391 259 l 1xf0
113 282 m 1
 243 285 l 2
 281 286 287 287 297 294 c 1
 304 301 309 312 309 324 c 0
 309 369 272 406 226 406 c 0
 172 406 131 361 113 282 c 1
113 655 m 0xec
 144 655 168 631 168 600 c 0
 168 569 144 545 112 545 c 0
 82 545 58 570 58 601 c 0
 58 630 83 655 113 655 c 0xec
317 655 m 0
 348 655 372 631 372 600 c 0
 372 569 348 545 316 545 c 0
 286 545 262 570 262 601 c 0
 262 630 287 655 317 655 c 0
EndSplineSet
EndChar
StartChar: eacute
Encoding: 295 233 103
Width: 424
Flags: MW
HStem: -20 64<219.5 251.5> 406 32<207.5 249>
VStem: 31 74<174 219>
Fore
391 259 m 1
 108 259 l 1
 106 240 105 232 105 221 c 0
 105 127 178 44 261 44 c 0
 299 44 329 60 375 102 c 1
 392 89 l 1
 342 15 286 -20 217 -20 c 0
 113 -20 31 72 31 190 c 0
 31 248 51 309 87 357 c 0
 126 410 178 438 237 438 c 0
 293 438 342 412 369 369 c 0
 385 343 391 317 391 274 c 2
 391 259 l 1
113 282 m 1
 243 285 l 2
 281 286 287 287 297 294 c 1
 304 301 309 312 309 324 c 0
 309 369 272 406 226 406 c 0
 172 406 131 361 113 282 c 1
156 536 m 1
 223 696 l 2
 251 763 261 777 284 777 c 0
 305 777 323 759 323 739 c 0
 323 720 316 706 284 664 c 2
 177 521 l 2
 171 513 171 513 169 513 c 0
 168 513 166 514 164 515 c 2
 156 519 l 2
 154 521 152 523 152 525 c 0
 152 526 153 530 156 536 c 1
EndSplineSet
KernsSLIF: 121 -3 0 0 119 -5 0 0 118 -3 0 0
EndChar
StartChar: egrave
Encoding: 296 232 104
Width: 424
Flags: MW
HStem: -20 64<219.5 251.5> 406 32<207.5 249>
VStem: 31 74<174 219>
Fore
391 259 m 1
 108 259 l 1
 106 240 105 232 105 221 c 0
 105 127 178 44 261 44 c 0
 299 44 329 60 375 102 c 1
 392 89 l 1
 342 15 286 -20 217 -20 c 0
 113 -20 31 72 31 190 c 0
 31 248 51 309 87 357 c 0
 126 410 178 438 237 438 c 0
 293 438 342 412 369 369 c 0
 385 343 391 317 391 274 c 2
 391 259 l 1
113 282 m 1
 243 285 l 2
 281 286 287 287 297 294 c 1
 304 301 309 312 309 324 c 0
 309 369 272 406 226 406 c 0
 172 406 131 361 113 282 c 1
246 521 m 2
 139 664 l 2
 108 705 100 720 100 739 c 0
 100 760 118 777 139 777 c 0
 162 777 172 764 200 696 c 2
 267 536 l 1
 270 530 271 526 271 525 c 0
 271 523 269 521 266 519 c 2
 259 515 l 2
 257 514 255 513 254 513 c 0
 252 513 251 514 246 521 c 2
EndSplineSet
EndChar
StartChar: ecircumflex
Encoding: 297 234 105
Width: 424
Flags: MW
HStem: -20 64<219.5 251.5> 406 32<207.5 249> 672 20<213 213>
VStem: 31 74<174 219>
Fore
391 259 m 1
 108 259 l 1
 106 240 105 232 105 221 c 0
 105 127 178 44 261 44 c 0
 299 44 329 60 375 102 c 1
 392 89 l 1
 342 15 286 -20 217 -20 c 0
 113 -20 31 72 31 190 c 0
 31 248 51 309 87 357 c 0
 126 410 178 438 237 438 c 0
 293 438 342 412 369 369 c 0
 385 343 391 317 391 274 c 2
 391 259 l 1
113 282 m 1
 243 285 l 2
 281 286 287 287 297 294 c 1
 304 301 309 312 309 324 c 0
 309 369 272 406 226 406 c 0
 172 406 131 361 113 282 c 1
213 692 m 1
 118 521 l 2
 115 515 113 513 111 513 c 2
 105 514 l 1
 93 520 l 2
 90 522 88 524 88 526 c 0
 88 528 89 532 91 537 c 2
 158 705 l 1
 180 762 193 777 219 777 c 0
 231 777 243 771 251 761 c 0
 261 749 261 749 278 707 c 2
 348 535 l 1
 351 530 352 526 352 525 c 0
 352 523 350 521 345 519 c 2
 336 515 l 2
 333 514 330 513 329 513 c 0
 327 513 324 516 320 521 c 1
 213 692 l 1
EndSplineSet
KernsSLIF: 121 -3 0 0 119 -5 0 0 118 -3 0 0
EndChar
StartChar: idieresis
Encoding: 298 239 106
Width: 276
Flags: W
HStem: -7 20 0 20 420 20<176 176> 545 110<10 40 214 244>
VStem: -30 110<585.5 615> 105 76<94.5 133 133 267 267 285> 174 110<585.5 615.5>
Fore
53 365 m 1x8c
 51 378 l 1
 117 410 l 2
 129 416 141 421 152 427 c 0
 159 431 161 432 176 440 c 1
 183 437 l 1
 182 409 l 1
 182 361 l 1
 181 285 l 1
 181 133 l 2
 181 56 181 50 187 41 c 0
 193 31 212 23 236 22 c 0
 249 21 252 19 252 12 c 2
 252 5 l 2
 252 -4 249 -7 241 -7 c 0xbc
 236 -7 236 -7 205 -4 c 0
 184 -1 162 0 139 0 c 0x4c
 111 0 102 -1 55 -6 c 0
 51 -7 46 -7 42 -7 c 0
 32 -7 29 -4 29 5 c 2
 29 12 l 2
 29 19 33 21 45 22 c 0
 78 24 96 31 101 45 c 0
 103 50 104 58 105 73 c 1
 105 133 l 1
 105 267 l 2
 105 335 103 339 53 365 c 1x8c
25 655 m 0
 55 655 80 630 80 600 c 0
 80 569 56 545 24 545 c 0
 -6 545 -30 570 -30 601 c 0
 -30 630 -5 655 25 655 c 0
229 655 m 0
 260 655 284 631 284 600 c 0
 284 569 260 545 228 545 c 0
 198 545 174 570 174 601 c 0xb2
 174 630 199 655 229 655 c 0
EndSplineSet
EndChar
StartChar: iacute
Encoding: 299 237 107
Width: 276
Flags: W
HStem: -7 20 0 20 420 20<175 175>
VStem: 104 76<133 267 267 285>
Fore
52 365 m 1x90
 50 378 l 1
 116 410 l 2
 154 428 158 430 175 440 c 1
 182 437 l 1
 181 409 l 1
 181 361 l 1
 180 285 l 1
 180 133 l 1
 181 65 l 1
 181 36 192 27 235 22 c 0
 247 21 251 19 251 12 c 2
 251 5 l 2
 251 -4 248 -7 240 -7 c 0xb0
 235 -7 235 -7 204 -4 c 0
 183 -1 161 0 139 0 c 0x50
 110 0 101 -1 54 -6 c 0
 50 -7 44 -7 40 -7 c 0
 31 -7 28 -4 28 5 c 2
 28 12 l 2
 28 19 31 21 44 22 c 0
 77 24 95 31 100 45 c 0
 102 50 103 58 104 73 c 1
 104 133 l 1
 104 267 l 2
 104 336 102 339 52 365 c 1x90
82 536 m 2
 149 696 l 2
 177 764 187 777 210 777 c 0
 231 777 249 760 249 739 c 0
 249 720 241 704 210 664 c 1
 104 521 l 2
 98 513 98 513 96 513 c 0
 94 513 92 514 90 515 c 2
 83 519 l 2
 81 521 79 523 79 525 c 0
 79 527 80 531 82 536 c 2
EndSplineSet
EndChar
StartChar: igrave
Encoding: 300 236 108
Width: 276
Flags: W
HStem: -7 20 0 20 420 20<175 175>
VStem: 104 76<133 267 267 285>
Fore
52 365 m 1x90
 50 378 l 1
 116 410 l 2
 154 428 157 429 175 440 c 1
 182 437 l 1
 181 409 l 1
 181 361 l 1
 180 285 l 1
 180 133 l 1
 181 65 l 1
 181 36 192 27 235 22 c 0
 247 21 251 19 251 12 c 2
 251 5 l 2
 251 -4 248 -7 240 -7 c 0xb0
 235 -7 235 -7 204 -4 c 0
 183 -1 161 0 138 0 c 0x50
 110 0 101 -1 54 -6 c 0
 50 -7 45 -7 40 -7 c 0
 31 -7 28 -4 28 5 c 2
 28 12 l 2
 28 19 31 21 44 22 c 0
 77 24 94 31 100 45 c 0
 102 50 103 58 104 73 c 1
 104 133 l 1
 104 267 l 2
 104 335 102 339 52 365 c 1x90
172 521 m 2
 65 664 l 2
 34 706 26 720 26 739 c 0
 26 760 44 777 65 777 c 0
 88 777 98 764 126 696 c 1
 194 536 l 2
 196 531 197 527 197 525 c 0
 197 523 195 521 193 519 c 2
 186 515 l 2
 183 514 182 513 180 513 c 0
 178 513 177 514 172 521 c 2
EndSplineSet
EndChar
StartChar: icircumflex
Encoding: 301 238 109
Width: 276
Flags: W
HStem: -7 20 0 20 420 20<175 175> 672 20<139 139>
VStem: 104 76<133 267 267 285>
Fore
52 365 m 1x88
 50 378 l 1
 116 410 l 2
 154 428 155 429 175 440 c 1
 182 437 l 1
 181 409 l 1
 181 361 l 1
 180 285 l 1
 180 133 l 1
 181 58 l 1
 182 35 196 26 235 22 c 0
 247 21 251 19 251 12 c 2
 251 5 l 2
 251 -4 248 -7 240 -7 c 0xb8
 235 -7 235 -7 204 -4 c 0
 183 -1 161 0 139 0 c 0x48
 110 0 101 -1 54 -6 c 0
 50 -7 44 -7 40 -7 c 0
 31 -7 28 -4 28 5 c 2
 28 12 l 2
 28 19 31 21 44 22 c 0
 78 24 94 31 100 45 c 0
 102 50 103 58 104 73 c 1
 104 133 l 1
 104 267 l 2
 104 336 102 339 52 365 c 1x88
139 692 m 1
 45 521 l 2
 42 515 40 513 37 513 c 2
 32 514 l 1
 20 520 l 2
 17 522 15 524 15 526 c 0
 15 528 16 532 18 537 c 2
 84 705 l 1
 107 762 120 777 145 777 c 0
 157 777 170 771 178 761 c 0
 188 749 188 749 205 707 c 2
 275 535 l 2
 277 531 278 527 278 525 c 0
 278 523 276 521 272 519 c 2
 262 515 l 2
 259 514 257 513 256 513 c 0
 253 513 250 516 247 521 c 2
 139 692 l 1
EndSplineSet
EndChar
StartChar: ntilde
Encoding: 302 241 111
Width: 553
Flags: W
HStem: -7 20 0 20 381 57<315 317.5> 513 81<349.5 354.5> 609 81<225 225.5>
VStem: 98 76<133 270 270 304.5> 383 76<133 268 268 283>
Fore
174 326 m 1xa6
 174 133 l 2
 174 56 174 51 180 41 c 0
 186 31 206 23 229 22 c 0
 241 21 244 19 244 12 c 2
 244 5 l 2
 244 -4 242 -7 232 -7 c 0x9e
 227 -7 220 -6 191 -4 c 0
 168 -1 150 0 136 0 c 0x46
 122 0 104 -1 80 -4 c 0
 50 -7 45 -7 39 -7 c 0
 30 -7 27 -4 27 5 c 2
 27 12 l 2
 27 19 30 21 43 22 c 0
 67 24 88 32 92 41 c 0
 96 47 97 52 97 65 c 1
 98 133 l 1
 98 270 l 2
 98 339 97 341 46 368 c 1
 44 381 l 1
 110 413 l 2
 141 427 143 428 155 435 c 2
 169 442 l 1
 174 440 l 1
 174 358 l 1
 259 423 290 438 340 438 c 0
 385 438 425 417 443 383 c 0
 455 360 459 336 459 283 c 2
 459 133 l 1
 460 65 l 1
 460 36 471 27 514 22 c 0
 527 21 530 19 530 12 c 2
 530 5 l 2
 530 -4 527 -7 517 -7 c 0xa6
 512 -7 504 -6 477 -4 c 0
 454 -1 435 0 422 0 c 0x46
 408 0 389 -1 366 -4 c 0
 335 -7 330 -7 324 -7 c 0
 316 -7 313 -4 313 5 c 2
 313 12 l 2
 313 19 316 21 328 22 c 0
 352 23 373 32 377 41 c 0
 381 47 382 52 382 65 c 1
 383 133 l 1
 383 268 l 2
 383 315 381 328 373 344 c 0
 361 367 334 381 301 381 c 0
 255 381 209 361 174 326 c 1xa6
421 679 m 2
 427 676 l 2
 430 674 432 671 432 666 c 0
 432 655 422 620 410 591 c 0
 390 541 366 513 343 513 c 0
 320 513 305 525 265 573 c 0
 242 601 232 609 219 609 c 0
 205 609 182 581 168 545 c 0
 158 519 155 513 151 513 c 0
 149 513 146 514 144 516 c 2
 138 519 l 1
 135 522 133 525 133 528 c 0
 133 537 147 588 154 607 c 0
 175 659 208 690 242 690 c 0
 259 690 271 681 295 652 c 0
 329 609 345 594 354 594 c 0
 370 594 381 611 404 672 c 0
 406 679 409 682 412 682 c 0
 414 682 417 681 421 679 c 2
EndSplineSet
EndChar
StartChar: odieresis
Encoding: 303 246 112
Width: 535
Flags: W
HStem: -20 33<231.5 317> 405 33<234.5 303> 545 110<154 184 357 387>
VStem: 36 88<162 246.5> 114 110<585.5 615.5> 317 110<585.5 615.5> 410 88<148 255.5>
Fore
274 438 m 0xf2
 398 438 498 337 498 213 c 0
 498 83 391 -20 256 -20 c 0
 130 -20 36 76 36 205 c 0
 36 332 145 438 274 438 c 0xf2
257 405 m 0
 212 405 177 387 157 354 c 0
 137 322 124 270 124 223 c 0
 124 101 187 13 276 13 c 0
 358 13 410 82 410 191 c 0
 410 320 349 405 257 405 c 0
169 655 m 0xec
 200 655 224 631 224 600 c 0
 224 569 200 545 168 545 c 0
 138 545 114 570 114 601 c 0
 114 630 139 655 169 655 c 0xec
372 655 m 0
 403 655 427 631 427 600 c 0
 427 569 403 545 371 545 c 0
 341 545 317 570 317 601 c 0
 317 630 342 655 372 655 c 0
EndSplineSet
KernsSLIF: 121 -28 0 0 120 -32 0 0 119 -30 0 0 118 -27 0 0 116 -6 0 0
EndChar
StartChar: oacute
Encoding: 304 243 113
Width: 535
Flags: MW
HStem: -20 33<231.5 317> 405 33<234.5 303>
VStem: 36 88<162 246.5> 410 88<148 255.5>
Fore
274 438 m 0
 398 438 498 337 498 213 c 0
 498 83 391 -20 256 -20 c 0
 130 -20 36 76 36 205 c 0
 36 332 145 438 274 438 c 0
257 405 m 0
 212 405 177 387 157 354 c 0
 137 322 124 270 124 223 c 0
 124 101 187 13 276 13 c 0
 358 13 410 82 410 191 c 0
 410 320 349 405 257 405 c 0
211 536 m 1
 279 696 l 2
 307 763 317 777 340 777 c 0
 361 777 379 759 379 739 c 0
 379 720 372 707 340 664 c 2
 233 521 l 2
 227 513 227 513 225 513 c 0
 223 513 222 514 220 515 c 2
 212 519 l 2
 210 521 208 523 208 525 c 0
 208 526 209 530 211 536 c 1
EndSplineSet
KernsSLIF: 121 -28 0 0 119 -30 0 0 118 -27 0 0
EndChar
StartChar: ograve
Encoding: 305 242 114
Width: 535
Flags: MW
HStem: -20 33<231.5 317> 405 33<234.5 303>
VStem: 36 88<162 246.5> 410 88<148 255.5>
Fore
274 438 m 0
 398 438 498 337 498 213 c 0
 498 83 391 -20 256 -20 c 0
 130 -20 36 76 36 205 c 0
 36 332 145 438 274 438 c 0
257 405 m 0
 212 405 177 387 157 354 c 0
 137 322 124 270 124 223 c 0
 124 101 187 13 276 13 c 0
 358 13 410 82 410 191 c 0
 410 320 349 405 257 405 c 0
301 521 m 1
 195 664 l 2
 164 705 156 720 156 739 c 0
 156 760 174 777 195 777 c 0
 218 777 227 765 256 696 c 2
 323 536 l 1
 326 530 327 526 327 525 c 0
 327 523 325 521 322 519 c 2
 315 515 l 2
 313 514 311 513 310 513 c 0
 308 513 307 514 301 521 c 1
EndSplineSet
KernsSLIF: 121 -28 0 0 119 -30 0 0 118 -27 0 0
EndChar
StartChar: ocircumflex
Encoding: 306 244 115
Width: 535
Flags: MW
HStem: -20 33<231.5 317> 405 33<234.5 303> 672 20<269 269>
VStem: 36 88<162 246.5> 410 88<148 255.5>
Fore
274 438 m 0
 398 438 498 337 498 213 c 0
 498 83 391 -20 256 -20 c 0
 130 -20 36 76 36 205 c 0
 36 332 145 438 274 438 c 0
257 405 m 0
 212 405 177 387 157 354 c 0
 137 322 124 270 124 223 c 0
 124 101 187 13 276 13 c 0
 358 13 410 82 410 191 c 0
 410 320 349 405 257 405 c 0
269 692 m 1
 174 521 l 2
 171 515 169 513 166 513 c 0
 165 513 163 513 161 514 c 2
 149 520 l 2
 146 522 144 524 144 526 c 0
 144 528 145 532 147 537 c 2
 214 705 l 1
 236 762 249 777 274 777 c 0
 286 777 299 771 307 761 c 0
 317 749 317 749 334 707 c 2
 404 535 l 2
 406 531 407 527 407 525 c 0
 407 523 405 521 401 519 c 2
 392 515 l 2
 388 514 386 513 385 513 c 0
 383 513 379 516 376 521 c 2
 269 692 l 1
EndSplineSet
KernsSLIF: 116 -6 0 0
EndChar
StartChar: otilde
Encoding: 307 245 116
Width: 535
Flags: MW
HStem: -20 33<231.5 317> 405 33<234.5 303> 513 81<341 346.5> 609 81<216 217>
VStem: 36 88<162 246.5> 410 88<148 255.5>
Fore
274 438 m 0
 398 438 498 337 498 213 c 0
 498 83 391 -20 256 -20 c 0
 130 -20 36 76 36 205 c 0
 36 332 145 438 274 438 c 0
257 405 m 0
 212 405 177 387 157 354 c 0
 137 322 124 270 124 223 c 0
 124 101 187 13 276 13 c 0
 358 13 410 82 410 191 c 0
 410 320 349 405 257 405 c 0
412 679 m 2
 419 676 l 2
 422 674 424 671 424 666 c 0
 424 654 414 620 402 591 c 0
 381 540 358 513 335 513 c 0
 312 513 297 525 257 573 c 0
 234 600 223 609 211 609 c 0
 196 609 174 581 160 545 c 0
 150 520 146 513 142 513 c 0
 140 513 138 514 135 516 c 2
 129 519 l 1
 126 522 124 525 124 529 c 0
 124 538 137 585 145 607 c 0
 166 659 199 690 233 690 c 0
 250 690 262 681 286 652 c 0
 320 610 336 594 346 594 c 0
 361 594 376 617 395 672 c 0
 398 679 400 682 403 682 c 0
 406 682 408 681 412 679 c 2
EndSplineSet
EndChar
StartChar: scaron
Encoding: 308 353 117
Width: 351
Flags: MW
HStem: -20 32<141.5 190> 406 32<168 213.5>
VStem: 45 66<325 351.5> 248 73<78 107>
Fore
312 406 m 1
 306 315 l 1
 282 315 l 1
 263 380 237 406 190 406 c 0
 146 406 111 377 111 341 c 0
 111 309 124 297 203 253 c 0
 293 203 321 171 321 117 c 0
 321 39 251 -20 159 -20 c 0
 112 -20 78 -10 35 16 c 1
 29 115 l 1
 57 117 l 1
 76 50 116 12 167 12 c 0
 213 12 248 46 248 89 c 0
 248 125 224 149 154 187 c 0
 72 230 45 262 45 316 c 0
 45 387 108 438 195 438 c 0
 235 438 267 429 312 406 c 1
191 598 m 1
 286 769 l 2
 289 775 291 777 293 777 c 0
 295 777 297 776 299 775 c 2
 310 769 l 2
 313 768 315 766 315 764 c 0
 315 760 314 757 313 753 c 1
 246 584 l 2
 224 528 211 513 185 513 c 0
 173 513 161 519 153 529 c 0
 143 541 143 541 126 582 c 2
 55 754 l 2
 53 759 52 763 52 764 c 0
 52 766 55 769 58 770 c 2
 68 774 l 2
 71 775 73 776 75 776 c 0
 77 776 81 773 84 768 c 2
 191 598 l 1
EndSplineSet
EndChar
StartChar: udieresis
Encoding: 309 252 118
Width: 535
Flags: W
HStem: -20 64<242 248.5> 420 20<157 157 441 441> 545 110<154 184 357 387>
VStem: 92 76<142 168 168 315 315 328 328 345> 114 110<585.5 615.5> 317 110<585.5 615.5> 377 76<103.5 133 133 308 308 344>
Fore
377 100 m 1xf2
 377 308 l 2
 377 380 369 390 307 389 c 0
 300 389 298 391 298 399 c 2
 298 409 l 2
 298 415 300 417 314 418 c 0
 364 424 375 426 441 440 c 1
 454 435 l 1
 454 428 454 402 453 356 c 1
 453 133 l 2
 453 74 453 66 457 60 c 0
 460 53 466 50 475 50 c 0
 484 50 488 51 516 58 c 1
 518 53 518 51 518 45 c 0
 518 39 518 36 516 32 c 1
 379 -20 l 1
 374 -4 l 1
 377 69 l 1
 304 -3 275 -20 222 -20 c 0
 181 -20 140 -2 118 26 c 0
 98 52 92 79 92 142 c 2
 92 315 l 2
 92 375 80 391 33 390 c 0
 14 389 13 390 13 399 c 2
 13 409 l 2
 13 417 13 417 36 419 c 0
 59 422 95 428 157 440 c 1
 169 435 l 1
 169 418 l 1
 168 380 l 1
 168 328 l 1
 168 168 l 2
 168 113 170 100 181 82 c 0
 196 58 225 44 259 44 c 0
 303 44 341 62 377 100 c 1xf2
169 655 m 0xe8
 200 655 224 631 224 600 c 0xec
 224 569 200 545 168 545 c 0xf0
 138 545 114 570 114 601 c 0
 114 630 139 655 169 655 c 0xe8
372 655 m 0
 403 655 427 631 427 600 c 0
 427 569 403 545 371 545 c 0
 341 545 317 570 317 601 c 0
 317 630 342 655 372 655 c 0
EndSplineSet
EndChar
StartChar: uacute
Encoding: 310 250 119
Width: 535
Flags: MW
HStem: -20 64<242 248.5> 420 20<157 157 441 441>
VStem: 92 76<142 168 168 315 315 328 328 345> 377 76<103.5 133 133 308 308 344>
Fore
377 100 m 1
 377 308 l 2
 377 380 369 390 307 389 c 0
 300 389 298 391 298 399 c 2
 298 409 l 2
 298 415 300 417 314 418 c 0
 364 424 375 426 441 440 c 1
 454 435 l 1
 454 428 454 402 453 356 c 1
 453 133 l 2
 453 74 453 66 457 60 c 0
 460 53 466 50 475 50 c 0
 484 50 488 51 516 58 c 1
 518 53 518 51 518 45 c 0
 518 39 518 36 516 32 c 1
 379 -20 l 1
 374 -4 l 1
 377 69 l 1
 304 -3 275 -20 222 -20 c 0
 181 -20 140 -2 118 26 c 0
 98 52 92 79 92 142 c 2
 92 315 l 2
 92 375 80 391 33 390 c 0
 14 389 13 390 13 399 c 2
 13 409 l 2
 13 417 13 417 36 419 c 0
 59 422 95 428 157 440 c 1
 169 435 l 1
 169 418 l 1
 168 380 l 1
 168 328 l 1
 168 168 l 2
 168 113 170 100 181 82 c 0
 196 58 225 44 259 44 c 0
 303 44 341 62 377 100 c 1
211 536 m 2
 279 696 l 2
 307 763 317 777 340 777 c 0
 361 777 379 759 379 739 c 0
 379 720 372 707 340 664 c 2
 233 521 l 2
 227 513 227 513 225 513 c 0
 223 513 222 514 219 515 c 2
 212 519 l 2
 210 521 208 523 208 525 c 0
 208 527 209 531 211 536 c 2
EndSplineSet
EndChar
StartChar: ugrave
Encoding: 311 249 120
Width: 535
Flags: MW
HStem: -20 64<242 248.5> 420 20<157 157 441 441>
VStem: 92 76<142 168 168 315 315 328 328 345> 377 76<103.5 133 133 308 308 344>
Fore
377 100 m 1
 377 308 l 2
 377 380 369 390 307 389 c 0
 300 389 298 391 298 399 c 2
 298 409 l 2
 298 415 300 417 314 418 c 0
 364 424 375 426 441 440 c 1
 454 435 l 1
 454 428 454 402 453 356 c 1
 453 133 l 2
 453 74 453 66 457 60 c 0
 460 53 466 50 475 50 c 0
 484 50 488 51 516 58 c 1
 518 53 518 51 518 45 c 0
 518 39 518 36 516 32 c 1
 379 -20 l 1
 374 -4 l 1
 377 69 l 1
 304 -3 275 -20 222 -20 c 0
 181 -20 140 -2 118 26 c 0
 98 52 92 79 92 142 c 2
 92 315 l 2
 92 375 80 391 33 390 c 0
 14 389 13 390 13 399 c 2
 13 409 l 2
 13 417 13 417 36 419 c 0
 59 422 95 428 157 440 c 1
 169 435 l 1
 169 418 l 1
 168 380 l 1
 168 328 l 1
 168 168 l 2
 168 113 170 100 181 82 c 0
 196 58 225 44 259 44 c 0
 303 44 341 62 377 100 c 1
301 521 m 1
 195 664 l 1
 164 704 156 720 156 738 c 0
 156 760 174 777 195 777 c 0
 218 777 227 764 256 696 c 2
 323 536 l 2
 325 531 326 528 326 525 c 0
 326 523 324 521 322 519 c 2
 315 515 l 2
 313 514 311 513 310 513 c 0
 308 513 307 514 301 521 c 1
EndSplineSet
EndChar
